AmiriLatin-Italic.ufo
<glyph name="quotedbl" format="2">
  <advance width="273"/>
  <unicode hex="0022"/>
  <outline>
    <contour>
      <point x="206" y="683" type="curve" smooth="yes"/>
      <point x="218" y="683"/>
      <point x="223" y="680"/>
      <point x="231" y="670" type="curve"/>
      <point x="231" y="642"/>
      <point x="224" y="531"/>
      <point x="218" y="480" type="curve"/>
      <point x="215" y="474"/>
      <point x="206" y="466"/>
      <point x="198" y="462" type="curve"/>
      <point x="195" y="462"/>
      <point x="191" y="464"/>
      <point x="189" y="468" type="curve"/>
      <point x="168" y="538"/>
      <point x="155" y="587"/>
      <point x="155" y="614" type="curve" smooth="yes"/>
      <point x="155" y="641"/>
      <point x="175" y="683"/>
    </contour>
    <contour>
      <point x="89" y="683" type="curve" smooth="yes"/>
      <point x="101" y="683"/>
      <point x="106" y="680"/>
      <point x="114" y="670" type="curve"/>
      <point x="114" y="642"/>
      <point x="107" y="531"/>
      <point x="101" y="480" type="curve"/>
      <point x="98" y="474"/>
      <point x="89" y="466"/>
      <point x="81" y="462" type="curve"/>
      <point x="78" y="462"/>
      <point x="74" y="464"/>
      <point x="72" y="468" type="curve"/>
      <point x="51" y="538"/>
      <point x="38" y="587"/>
      <point x="38" y="614" type="curve" smooth="yes"/>
      <point x="38" y="641"/>
      <point x="58" y="683"/>
    </contour>
  </outline>
</glyph>
<glyph name="numbersign" format="2">
	<unicode hex="0023"/>
	<advance width="468"/>
	<outline>
		<contour>
			<point x="404" y="360" type="curve"/>
			<point x="249" y="360"/>
			<point x="249" y="360"/>
			<point x="83" y="360" type="curve"/>
			<point x="71" y="360"/>
			<point x="78" y="404"/>
			<point x="91" y="408" type="curve"/>
			<point x="410" y="408" type="line"/>
			<point x="424" y="408"/>
			<point x="417" y="366"/>
		</contour>
		<contour>
			<point x="377" y="174" type="curve"/>
			<point x="222" y="174"/>
			<point x="221" y="174"/>
			<point x="55" y="174" type="curve"/>
			<point x="43" y="174"/>
			<point x="52" y="218"/>
			<point x="65" y="222" type="curve"/>
			<point x="383" y="222" type="line"/>
			<point x="397" y="222"/>
			<point x="390" y="180"/>
		</contour>
		<contour>
			<point x="365" y="516" type="curve"/>
			<point x="295" y="75" type="line" smooth="yes"/>
			<point x="294" y="71"/>
			<point x="286" y="62"/>
			<point x="271" y="62" type="curve" smooth="yes"/>
			<point x="261" y="62"/>
			<point x="260" y="66"/>
			<point x="260" y="66" type="curve"/>
			<point x="331" y="506" type="line"/>
			<point x="334" y="515"/>
			<point x="333" y="519"/>
			<point x="352" y="519" type="curve" smooth="yes"/>
			<point x="361" y="519"/>
			<point x="362" y="518"/>
		</contour>
		<contour>
			<point x="208" y="516" type="curve"/>
			<point x="136" y="75" type="line" smooth="yes"/>
			<point x="135" y="71"/>
			<point x="129" y="62"/>
			<point x="114" y="62" type="curve" smooth="yes"/>
			<point x="104" y="62"/>
			<point x="103" y="66"/>
			<point x="103" y="66" type="curve"/>
			<point x="173" y="506" type="line"/>
			<point x="176" y="515"/>
			<point x="176" y="519"/>
			<point x="195" y="519" type="curve" smooth="yes"/>
			<point x="204" y="519"/>
			<point x="205" y="518"/>
		</contour>
	</outline>
</glyph>
<glyph name="ampersand" format="2">
  <advance width="762"/>
  <unicode hex="0026"/>
  <outline>
    <contour>
      <point x="408" y="523" type="curve" smooth="yes"/>
      <point x="453" y="523"/>
      <point x="490" y="486"/>
      <point x="490" y="441" type="curve" smooth="yes"/>
      <point x="490" y="293"/>
      <point x="242" y="236"/>
      <point x="181" y="222" type="curve" smooth="yes"/>
      <point x="113" y="207"/>
      <point x="42" y="191"/>
      <point x="42" y="150" type="curve" smooth="yes"/>
      <point x="42" y="132"/>
      <point x="54" y="127"/>
      <point x="62" y="120" type="curve" smooth="yes"/>
      <point x="71" y="112"/>
      <point x="80" y="104"/>
      <point x="80" y="88" type="curve" smooth="yes"/>
      <point x="80" y="60"/>
      <point x="60" y="46"/>
      <point x="37" y="46" type="curve" smooth="yes"/>
      <point x="27" y="46"/>
      <point x="20" y="47"/>
      <point x="13" y="51" type="curve"/>
      <point x="0" y="62"/>
      <point x="-7" y="88"/>
      <point x="-7" y="104" type="curve" smooth="yes"/>
      <point x="-7" y="165"/>
      <point x="31" y="212"/>
      <point x="100" y="232" type="curve" smooth="yes"/>
      <point x="176" y="253"/>
      <point x="399" y="306"/>
      <point x="399" y="425" type="curve" smooth="yes"/>
      <point x="399" y="459"/>
      <point x="387" y="482"/>
      <point x="350" y="482" type="curve" smooth="yes"/>
      <point x="283" y="482"/>
      <point x="216" y="385"/>
      <point x="216" y="249" type="curve" smooth="yes"/>
      <point x="216" y="100"/>
      <point x="283" y="26"/>
      <point x="400" y="26" type="curve" smooth="yes"/>
      <point x="490" y="26"/>
      <point x="583" y="97"/>
      <point x="583" y="188" type="curve" smooth="yes"/>
      <point x="583" y="205"/>
      <point x="574" y="226"/>
      <point x="568" y="232" type="curve"/>
      <point x="519" y="216"/>
      <point x="457" y="185"/>
      <point x="457" y="142" type="curve" smooth="yes"/>
      <point x="457" y="133"/>
      <point x="458" y="125"/>
      <point x="461" y="120" type="curve"/>
      <point x="457" y="118"/>
      <point x="446" y="119"/>
      <point x="441" y="125" type="curve"/>
      <point x="430" y="134"/>
      <point x="421" y="157"/>
      <point x="421" y="181" type="curve" smooth="yes"/>
      <point x="421" y="225"/>
      <point x="461" y="255"/>
      <point x="533" y="286" type="curve" smooth="yes"/>
      <point x="622" y="324"/>
      <point x="729" y="392"/>
      <point x="720" y="529" type="curve"/>
      <point x="729" y="530"/>
      <point x="736" y="524"/>
      <point x="739" y="521" type="curve"/>
      <point x="751" y="498"/>
      <point x="761" y="471"/>
      <point x="761" y="430" type="curve" smooth="yes"/>
      <point x="761" y="352"/>
      <point x="707" y="291"/>
      <point x="639" y="258" type="curve"/>
      <point x="643" y="250"/>
      <point x="645" y="238"/>
      <point x="645" y="223" type="curve" smooth="yes"/>
      <point x="645" y="106"/>
      <point x="513" y="-5"/>
      <point x="369" y="-5" type="curve" smooth="yes"/>
      <point x="241" y="-5"/>
      <point x="136" y="55"/>
      <point x="136" y="219" type="curve" smooth="yes"/>
      <point x="136" y="362"/>
      <point x="249" y="523"/>
    </contour>
  </outline>
</glyph>
<glyph name="comma" format="2">
  <advance width="196"/>
  <unicode hex="002C"/>
  <outline>
    <contour>
      <point x="104" y="120" type="curve" smooth="yes"/>
      <point x="112" y="120"/>
      <point x="122" y="117"/>
      <point x="129" y="113" type="curve"/>
      <point x="136" y="101"/>
      <point x="146" y="82"/>
      <point x="146" y="45" type="curve" smooth="yes"/>
      <point x="146" y="-11"/>
      <point x="81" y="-109"/>
      <point x="31" y="-136" type="curve"/>
      <point x="24" y="-136"/>
      <point x="17" y="-121"/>
      <point x="17" y="-115" type="curve"/>
      <point x="37" y="-100"/>
      <point x="78" y="-69"/>
      <point x="78" y="-7" type="curve" smooth="yes"/>
      <point x="78" y="25"/>
      <point x="46" y="34"/>
      <point x="46" y="72" type="curve" smooth="yes"/>
      <point x="46" y="93"/>
      <point x="69" y="120"/>
    </contour>
  </outline>
</glyph>
<glyph name="hyphen" format="2">
	<unicode hex="002D"/>
	<advance width="368"/>
	<outline>
		<contour>
			<point x="69" y="255" type="curve"/>
			<point x="69" y="255"/>
			<point x="273" y="266"/>
			<point x="305" y="267" type="curve" smooth="yes"/>
			<point x="309" y="267"/>
			<point x="312" y="266"/>
			<point x="312" y="258" type="curve" smooth="yes"/>
			<point x="312" y="241"/>
			<point x="307" y="222"/>
			<point x="299" y="205" type="curve"/>
			<point x="253" y="202"/>
			<point x="152" y="198"/>
			<point x="63" y="194" type="curve" smooth="yes"/>
			<point x="58" y="194"/>
			<point x="57" y="196"/>
			<point x="57" y="205" type="curve" smooth="yes"/>
			<point x="57" y="224"/>
			<point x="62" y="240"/>
		</contour>
	</outline>
</glyph>
<glyph name="one" format="2">
  <advance width="532"/>
  <unicode hex="0031"/>
  <outline>
    <contour>
      <point x="241" y="113" type="curve" smooth="yes"/>
      <point x="241" y="508" type="line" smooth="yes"/>
      <point x="241" y="536"/>
      <point x="235" y="545"/>
      <point x="221" y="545" type="curve" smooth="yes"/>
      <point x="206" y="545"/>
      <point x="168" y="531"/>
      <point x="152" y="525" type="curve"/>
      <point x="147" y="529"/>
      <point x="143" y="535"/>
      <point x="143" y="542" type="curve" smooth="yes"/>
      <point x="143" y="544"/>
      <point x="142" y="547"/>
      <point x="145" y="548" type="curve" smooth="yes"/>
      <point x="225" y="584"/>
      <point x="311" y="627"/>
      <point x="314" y="627" type="curve" smooth="yes"/>
      <point x="316" y="627" type="line" smooth="yes"/>
      <point x="322" y="627"/>
      <point x="325" y="616"/>
      <point x="326" y="611" type="curve"/>
      <point x="326" y="611"/>
      <point x="318" y="577"/>
      <point x="318" y="517" type="curve" smooth="yes"/>
      <point x="318" y="113" type="line" smooth="yes"/>
      <point x="318" y="84"/>
      <point x="318" y="57"/>
      <point x="323" y="41" type="curve" smooth="yes"/>
      <point x="326" y="30"/>
      <point x="374" y="25"/>
      <point x="386" y="25" type="curve"/>
      <point x="390" y="20"/>
      <point x="391" y="2"/>
      <point x="386" y="-3" type="curve"/>
      <point x="346" y="-1"/>
      <point x="315" y="2"/>
      <point x="277" y="2" type="curve" smooth="yes"/>
      <point x="239" y="2"/>
      <point x="213" y="-1"/>
      <point x="173" y="-3" type="curve"/>
      <point x="168" y="2"/>
      <point x="169" y="20"/>
      <point x="173" y="25" type="curve"/>
      <point x="185" y="25"/>
      <point x="232" y="30"/>
      <point x="235" y="41" type="curve" smooth="yes"/>
      <point x="240" y="57"/>
      <point x="241" y="84"/>
    </contour>
  </outline>
</glyph>
<glyph name="three" format="2">
  <advance width="532"/>
  <unicode hex="0033"/>
  <outline>
    <contour>
      <point x="275" y="627" type="curve" smooth="yes"/>
      <point x="325" y="627"/>
      <point x="403" y="582"/>
      <point x="403" y="502" type="curve" smooth="yes"/>
      <point x="403" y="439"/>
      <point x="346" y="391"/>
      <point x="312" y="370" type="curve"/>
      <point x="368" y="362"/>
      <point x="449" y="309"/>
      <point x="449" y="213" type="curve" smooth="yes"/>
      <point x="449" y="79"/>
      <point x="323" y="-5"/>
      <point x="201" y="-5" type="curve" smooth="yes"/>
      <point x="175" y="-5"/>
      <point x="133" y="2"/>
      <point x="102" y="18" type="curve"/>
      <point x="96" y="22"/>
      <point x="82" y="39"/>
      <point x="82" y="55" type="curve" smooth="yes"/>
      <point x="82" y="83"/>
      <point x="102" y="102"/>
      <point x="123" y="102" type="curve" smooth="yes"/>
      <point x="150" y="102"/>
      <point x="162" y="75"/>
      <point x="178" y="59" type="curve" smooth="yes"/>
      <point x="197" y="40"/>
      <point x="224" y="34"/>
      <point x="250" y="34" type="curve" smooth="yes"/>
      <point x="302" y="34"/>
      <point x="365" y="74"/>
      <point x="365" y="186" type="curve" smooth="yes"/>
      <point x="365" y="265"/>
      <point x="304" y="323"/>
      <point x="240" y="323" type="curve" smooth="yes"/>
      <point x="219" y="323"/>
      <point x="194" y="314"/>
      <point x="182" y="311" type="curve"/>
      <point x="178" y="316"/>
      <point x="176" y="322"/>
      <point x="176" y="330" type="curve" smooth="yes"/>
      <point x="176" y="334"/>
      <point x="176" y="337"/>
      <point x="178" y="340" type="curve"/>
      <point x="256" y="358"/>
      <point x="330" y="400"/>
      <point x="330" y="484" type="curve" smooth="yes"/>
      <point x="330" y="536"/>
      <point x="290" y="575"/>
      <point x="234" y="575" type="curve" smooth="yes"/>
      <point x="172" y="575"/>
      <point x="134" y="518"/>
      <point x="125" y="511" type="curve"/>
      <point x="119" y="511"/>
      <point x="113" y="523"/>
      <point x="113" y="532" type="curve"/>
      <point x="143" y="577"/>
      <point x="199" y="627"/>
    </contour>
  </outline>
</glyph>
<glyph name="four" format="2">
  <advance width="532"/>
  <unicode hex="0034"/>
  <outline>
    <contour>
      <point x="396" y="629" type="curve" smooth="yes"/>
      <point x="406" y="629"/>
      <point x="411" y="619"/>
      <point x="411" y="611" type="curve" smooth="yes"/>
      <point x="411" y="226" type="line"/>
      <point x="469" y="226" type="line" smooth="yes"/>
      <point x="475" y="226"/>
      <point x="482" y="207"/>
      <point x="482" y="186" type="curve" smooth="yes"/>
      <point x="482" y="177"/>
      <point x="481" y="173"/>
      <point x="479" y="170" type="curve"/>
      <point x="411" y="170" type="line"/>
      <point x="411" y="-1" type="line"/>
      <point x="411" y="-1"/>
      <point x="407" y="-6"/>
      <point x="369" y="-6" type="curve" smooth="yes"/>
      <point x="346" y="-6"/>
      <point x="334" y="-5"/>
      <point x="334" y="2" type="curve" smooth="yes"/>
      <point x="334" y="170" type="line"/>
      <point x="59" y="170" type="line"/>
      <point x="52" y="174"/>
      <point x="49" y="182"/>
      <point x="49" y="188" type="curve"/>
      <point x="367" y="604" type="line" smooth="yes"/>
      <point x="373" y="612"/>
      <point x="388" y="629"/>
    </contour>
    <contour>
      <point x="334" y="512" type="line"/>
      <point x="115" y="226" type="line"/>
      <point x="334" y="226" type="line"/>
    </contour>
  </outline>
</glyph>
<glyph name="five" format="2">
	<unicode hex="0035"/>
	<advance width="532"/>
	<outline>
		<contour>
			<point x="266" y="386" type="curve" smooth="yes"/>
			<point x="381" y="386"/>
			<point x="449" y="296"/>
			<point x="449" y="213" type="curve" smooth="yes"/>
			<point x="449" y="79"/>
			<point x="323" y="-5"/>
			<point x="201" y="-5" type="curve" smooth="yes"/>
			<point x="175" y="-5"/>
			<point x="133" y="2"/>
			<point x="102" y="18" type="curve"/>
			<point x="96" y="22"/>
			<point x="82" y="39"/>
			<point x="82" y="55" type="curve" smooth="yes"/>
			<point x="82" y="83"/>
			<point x="102" y="102"/>
			<point x="123" y="102" type="curve" smooth="yes"/>
			<point x="150" y="102"/>
			<point x="162" y="75"/>
			<point x="178" y="59" type="curve" smooth="yes"/>
			<point x="197" y="40"/>
			<point x="224" y="34"/>
			<point x="250" y="34" type="curve" smooth="yes"/>
			<point x="302" y="34"/>
			<point x="365" y="73"/>
			<point x="365" y="186" type="curve" smooth="yes"/>
			<point x="365" y="247"/>
			<point x="322" y="331"/>
			<point x="209" y="331" type="curve" smooth="yes"/>
			<point x="188" y="331"/>
			<point x="143" y="324"/>
			<point x="127" y="316" type="curve"/>
			<point x="123" y="316"/>
			<point x="119" y="323"/>
			<point x="119" y="330" type="curve"/>
			<point x="140" y="439"/>
			<point x="165" y="560"/>
			<point x="176" y="620" type="curve"/>
			<point x="320" y="620" type="line" smooth="yes"/>
			<point x="360" y="620"/>
			<point x="410" y="629"/>
			<point x="410" y="629" type="curve"/>
			<point x="416" y="625"/>
			<point x="422" y="623"/>
			<point x="422" y="618" type="curve" smooth="yes"/>
			<point x="422" y="612"/>
			<point x="411" y="570"/>
			<point x="393" y="549" type="curve"/>
			<point x="366" y="546"/>
			<point x="330" y="543"/>
			<point x="279" y="543" type="curve" smooth="yes"/>
			<point x="279" y="543"/>
			<point x="210" y="543"/>
			<point x="197" y="543" type="curve"/>
			<point x="185" y="484"/>
			<point x="174" y="422"/>
			<point x="162" y="367" type="curve"/>
			<point x="189" y="378"/>
			<point x="240" y="386"/>
		</contour>
	</outline>
</glyph>
<glyph name="six" format="2">
	<unicode hex="0036"/>
	<advance width="532"/>
	<outline>
		<contour>
			<point x="159" y="299" type="curve"/>
			<point x="156" y="278"/>
			<point x="155" y="255"/>
			<point x="155" y="232" type="curve" smooth="yes"/>
			<point x="155" y="144"/>
			<point x="193" y="26"/>
			<point x="271" y="26" type="curve" smooth="yes"/>
			<point x="333" y="26"/>
			<point x="378" y="92"/>
			<point x="378" y="180" type="curve" smooth="yes"/>
			<point x="378" y="263"/>
			<point x="343" y="338"/>
			<point x="255" y="338" type="curve" smooth="yes"/>
			<point x="227" y="338"/>
			<point x="191" y="334"/>
		</contour>
		<contour>
			<point x="282" y="386" type="curve" smooth="yes"/>
			<point x="419" y="386"/>
			<point x="461" y="268"/>
			<point x="461" y="198" type="curve" smooth="yes"/>
			<point x="461" y="89"/>
			<point x="374" y="-6"/>
			<point x="263" y="-6" type="curve" smooth="yes"/>
			<point x="145" y="-6"/>
			<point x="71" y="110"/>
			<point x="71" y="215" type="curve" smooth="yes"/>
			<point x="71" y="315"/>
			<point x="103" y="407"/>
			<point x="165" y="474" type="curve" smooth="yes"/>
			<point x="234" y="550"/>
			<point x="345" y="611"/>
			<point x="427" y="632" type="curve"/>
			<point x="436" y="632"/>
			<point x="438" y="610"/>
			<point x="438" y="604" type="curve"/>
			<point x="356" y="578"/>
			<point x="211" y="515"/>
			<point x="167" y="342" type="curve"/>
			<point x="201" y="370"/>
			<point x="249" y="386"/>
		</contour>
	</outline>
</glyph>
<glyph name="nine" format="2">
  <advance width="532"/>
  <unicode hex="0039"/>
  <outline>
    <contour>
      <point x="373" y="327" type="curve"/>
      <point x="376" y="348"/>
      <point x="377" y="371"/>
      <point x="377" y="394" type="curve" smooth="yes"/>
      <point x="377" y="482"/>
      <point x="340" y="600"/>
      <point x="262" y="600" type="curve" smooth="yes"/>
      <point x="200" y="600"/>
      <point x="155" y="534"/>
      <point x="155" y="446" type="curve" smooth="yes"/>
      <point x="155" y="363"/>
      <point x="189" y="288"/>
      <point x="277" y="288" type="curve" smooth="yes"/>
      <point x="305" y="288"/>
      <point x="341" y="292"/>
    </contour>
    <contour>
      <point x="94" y="22" type="curve"/>
      <point x="176" y="48"/>
      <point x="321" y="111"/>
      <point x="365" y="284" type="curve"/>
      <point x="331" y="256"/>
      <point x="283" y="240"/>
      <point x="250" y="240" type="curve" smooth="yes"/>
      <point x="113" y="240"/>
      <point x="72" y="358"/>
      <point x="72" y="428" type="curve" smooth="yes"/>
      <point x="72" y="537"/>
      <point x="159" y="632"/>
      <point x="270" y="632" type="curve" smooth="yes"/>
      <point x="388" y="632"/>
      <point x="461" y="516"/>
      <point x="461" y="411" type="curve" smooth="yes"/>
      <point x="461" y="311"/>
      <point x="429" y="219"/>
      <point x="367" y="152" type="curve" smooth="yes"/>
      <point x="298" y="76"/>
      <point x="187" y="15"/>
      <point x="105" y="-6" type="curve"/>
      <point x="96" y="-6"/>
      <point x="94" y="16"/>
    </contour>
  </outline>
</glyph>
<glyph name="colon" format="2">
  <advance width="220"/>
  <unicode hex="003A"/>
  <outline>
    <contour>
      <point x="57" y="44" type="curve" smooth="yes"/>
      <point x="57" y="73"/>
      <point x="82" y="97"/>
      <point x="111" y="97" type="curve" smooth="yes"/>
      <point x="140" y="97"/>
      <point x="164" y="73"/>
      <point x="164" y="44" type="curve" smooth="yes"/>
      <point x="164" y="15"/>
      <point x="140" y="-11"/>
      <point x="111" y="-11" type="curve" smooth="yes"/>
      <point x="82" y="-11"/>
      <point x="57" y="15"/>
    </contour>
    <contour>
      <point x="57" y="368" type="curve" smooth="yes"/>
      <point x="57" y="397"/>
      <point x="82" y="421"/>
      <point x="111" y="421" type="curve" smooth="yes"/>
      <point x="140" y="421"/>
      <point x="164" y="397"/>
      <point x="164" y="368" type="curve" smooth="yes"/>
      <point x="164" y="339"/>
      <point x="140" y="313"/>
      <point x="111" y="313" type="curve" smooth="yes"/>
      <point x="82" y="313"/>
      <point x="57" y="339"/>
    </contour>
  </outline>
</glyph>
<glyph name="semicolon" format="2">
	<unicode hex="003B"/>
	<advance width="226"/>
	<outline>
		<contour>
			<point x="124" y="120" type="curve" smooth="yes"/>
			<point x="132" y="120"/>
			<point x="142" y="117"/>
			<point x="149" y="113" type="curve"/>
			<point x="156" y="101"/>
			<point x="167" y="82"/>
			<point x="167" y="45" type="curve" smooth="yes"/>
			<point x="167" y="-11"/>
			<point x="102" y="-109"/>
			<point x="52" y="-136" type="curve"/>
			<point x="45" y="-136"/>
			<point x="37" y="-121"/>
			<point x="37" y="-115" type="curve"/>
			<point x="57" y="-100"/>
			<point x="99" y="-69"/>
			<point x="99" y="-7" type="curve" smooth="yes"/>
			<point x="99" y="25"/>
			<point x="66" y="34"/>
			<point x="66" y="72" type="curve" smooth="yes"/>
			<point x="66" y="93"/>
			<point x="89" y="120"/>
		</contour>
		<contour>
			<point x="60" y="368" type="curve" smooth="yes"/>
			<point x="60" y="397"/>
			<point x="85" y="421"/>
			<point x="114" y="421" type="curve" smooth="yes"/>
			<point x="143" y="421"/>
			<point x="167" y="397"/>
			<point x="167" y="368" type="curve" smooth="yes"/>
			<point x="167" y="339"/>
			<point x="143" y="313"/>
			<point x="114" y="313" type="curve" smooth="yes"/>
			<point x="85" y="313"/>
			<point x="60" y="339"/>
		</contour>
	</outline>
</glyph>
<glyph name="less" format="2">
	<unicode hex="003C"/>
	<advance width="480"/>
	<outline>
		<contour>
			<point x="434" y="34" type="curve" smooth="yes"/>
			<point x="434" y="27"/>
			<point x="424" y="-15"/>
			<point x="418" y="-15" type="curve" smooth="yes"/>
			<point x="417" y="-15"/>
			<point x="415" y="-14"/>
			<point x="413" y="-13" type="curve" smooth="yes"/>
			<point x="47" y="173" type="line" smooth="yes"/>
			<point x="32" y="181"/>
			<point x="29" y="195"/>
			<point x="29" y="212" type="curve" smooth="yes"/>
			<point x="29" y="223"/>
			<point x="37" y="230"/>
			<point x="47" y="235" type="curve" smooth="yes"/>
			<point x="407" y="418" type="line" smooth="yes"/>
			<point x="409" y="419"/>
			<point x="411" y="420"/>
			<point x="412" y="420" type="curve" smooth="yes"/>
			<point x="415" y="420"/>
			<point x="422" y="410"/>
			<point x="429" y="374" type="curve" smooth="yes"/>
			<point x="430" y="368"/>
			<point x="426" y="365"/>
			<point x="426" y="365" type="curve"/>
			<point x="107" y="204" type="line"/>
			<point x="431" y="40" type="line"/>
			<point x="431" y="40"/>
			<point x="434" y="39"/>
		</contour>
	</outline>
</glyph>
<glyph name="equal" format="2">
  <advance width="551"/>
  <unicode hex="003D"/>
  <outline>
    <contour>
      <point x="467" y="117" type="curve"/>
      <point x="310" y="117"/>
      <point x="239" y="117"/>
      <point x="71" y="117" type="curve"/>
      <point x="59" y="117"/>
      <point x="72" y="166"/>
      <point x="86" y="171" type="curve"/>
      <point x="480" y="171" type="line"/>
      <point x="494" y="171"/>
      <point x="481" y="124"/>
    </contour>
    <contour>
      <point x="467" y="258" type="curve"/>
      <point x="310" y="258"/>
      <point x="239" y="258"/>
      <point x="71" y="258" type="curve"/>
      <point x="59" y="258"/>
      <point x="72" y="307"/>
      <point x="86" y="312" type="curve"/>
      <point x="480" y="312" type="line"/>
      <point x="494" y="312"/>
      <point x="481" y="265"/>
    </contour>
  </outline>
</glyph>
<glyph name="A" format="2">
  <advance width="572"/>
  <unicode hex="0041"/>
  <outline>
    <contour>
      <point x="333" y="25" type="curve"/>
      <point x="368" y="25"/>
      <point x="389" y="36"/>
      <point x="389" y="56" type="curve" smooth="yes"/>
      <point x="389" y="66"/>
      <point x="389" y="85"/>
      <point x="386" y="104" type="curve" smooth="yes"/>
      <point x="364" y="250" type="line"/>
      <point x="170" y="250" type="line"/>
      <point x="137" y="190"/>
      <point x="109" y="139"/>
      <point x="100" y="122" type="curve" smooth="yes"/>
      <point x="82" y="88"/>
      <point x="72" y="64"/>
      <point x="72" y="49" type="curve" smooth="yes"/>
      <point x="72" y="28"/>
      <point x="125" y="25"/>
      <point x="132" y="25" type="curve"/>
      <point x="134" y="22"/>
      <point x="131" y="3"/>
      <point x="128" y="-3" type="curve"/>
      <point x="92" y="-1"/>
      <point x="82" y="2"/>
      <point x="42" y="2" type="curve" smooth="yes"/>
      <point x="0" y="2"/>
      <point x="-12" y="-1"/>
      <point x="-54" y="-3" type="curve"/>
      <point x="-56" y="0"/>
      <point x="-52" y="18"/>
      <point x="-48" y="25" type="curve"/>
      <point x="-37" y="25"/>
      <point x="-5" y="31"/>
      <point x="7" y="44" type="curve" smooth="yes"/>
      <point x="31" y="69"/>
      <point x="48" y="101"/>
      <point x="68" y="136" type="curve" smooth="yes"/>
      <point x="337" y="619" type="line" smooth="yes"/>
      <point x="346" y="635"/>
      <point x="368" y="647"/>
      <point x="376" y="647" type="curve" smooth="yes"/>
      <point x="379" y="647"/>
      <point x="380" y="646"/>
      <point x="381" y="645" type="curve"/>
      <point x="465" y="123" type="line" smooth="yes"/>
      <point x="471" y="86"/>
      <point x="476" y="61"/>
      <point x="477" y="57" type="curve" smooth="yes"/>
      <point x="483" y="29"/>
      <point x="531" y="25"/>
      <point x="538" y="25" type="curve"/>
      <point x="541" y="18"/>
      <point x="537" y="0"/>
      <point x="535" y="-3" type="curve"/>
      <point x="499" y="-1"/>
      <point x="468" y="2"/>
      <point x="428" y="2" type="curve" smooth="yes"/>
      <point x="386" y="2"/>
      <point x="369" y="-1"/>
      <point x="327" y="-3" type="curve"/>
      <point x="323" y="2"/>
      <point x="327" y="20"/>
    </contour>
    <contour>
      <point x="188" y="282" type="line"/>
      <point x="359" y="282" type="line"/>
      <point x="321" y="522" type="line"/>
    </contour>
  </outline>
</glyph>
<glyph name="B" format="2">
  <advance width="552"/>
  <unicode hex="0042"/>
  <outline>
    <contour>
      <point x="213" y="361" type="line"/>
      <point x="305" y="361" type="line" smooth="yes"/>
      <point x="370" y="361"/>
      <point x="423" y="427"/>
      <point x="423" y="510" type="curve" smooth="yes"/>
      <point x="423" y="565"/>
      <point x="396" y="615"/>
      <point x="312" y="615" type="curve" smooth="yes"/>
      <point x="301" y="615"/>
      <point x="269" y="614"/>
      <point x="264" y="605" type="curve" smooth="yes"/>
      <point x="257" y="593"/>
      <point x="251" y="561"/>
      <point x="246" y="532" type="curve" smooth="yes"/>
    </contour>
    <contour>
      <point x="206" y="331" type="line"/>
      <point x="163" y="111" type="line" smooth="yes"/>
      <point x="160" y="97"/>
      <point x="153" y="49"/>
      <point x="158" y="42" type="curve" smooth="yes"/>
      <point x="169" y="26"/>
      <point x="193" y="25"/>
      <point x="226" y="25" type="curve" smooth="yes"/>
      <point x="326" y="25"/>
      <point x="399" y="94"/>
      <point x="399" y="215" type="curve" smooth="yes"/>
      <point x="399" y="244"/>
      <point x="402" y="331"/>
      <point x="262" y="331" type="curve" smooth="yes"/>
    </contour>
    <contour>
      <point x="228" y="642" type="curve" smooth="yes"/>
      <point x="263" y="642"/>
      <point x="303" y="644"/>
      <point x="357" y="644" type="curve" smooth="yes"/>
      <point x="440" y="644"/>
      <point x="509" y="608"/>
      <point x="509" y="524" type="curve" smooth="yes"/>
      <point x="509" y="426"/>
      <point x="431" y="378"/>
      <point x="392" y="357" type="curve"/>
      <point x="436" y="353"/>
      <point x="492" y="301"/>
      <point x="492" y="221" type="curve" smooth="yes"/>
      <point x="492" y="88"/>
      <point x="370" y="-3"/>
      <point x="205" y="-3" type="curve" smooth="yes"/>
      <point x="-4" y="-3" type="line"/>
      <point x="-8" y="2"/>
      <point x="-4" y="20"/>
      <point x="1" y="25" type="curve"/>
      <point x="12" y="25"/>
      <point x="62" y="30"/>
      <point x="67" y="41" type="curve" smooth="yes"/>
      <point x="75" y="57"/>
      <point x="79" y="84"/>
      <point x="85" y="113" type="curve" smooth="yes"/>
      <point x="166" y="530" type="line" smooth="yes"/>
      <point x="172" y="559"/>
      <point x="177" y="588"/>
      <point x="176" y="603" type="curve" smooth="yes"/>
      <point x="176" y="615"/>
      <point x="128" y="618"/>
      <point x="117" y="618" type="curve"/>
      <point x="114" y="623"/>
      <point x="116" y="641"/>
      <point x="122" y="646" type="curve"/>
      <point x="159" y="644"/>
      <point x="193" y="642"/>
    </contour>
  </outline>
</glyph>
<glyph name="C" format="2">
	<unicode hex="0043"/>
	<advance width="629"/>
	<outline>
		<contour>
			<point x="556" y="169" type="curve"/>
			<point x="569" y="169"/>
			<point x="583" y="161"/>
			<point x="583" y="161" type="curve"/>
			<point x="579" y="141"/>
			<point x="528" y="39"/>
			<point x="513" y="27" type="curve"/>
			<point x="460" y="0"/>
			<point x="406" y="-8"/>
			<point x="322" y="-8" type="curve" smooth="yes"/>
			<point x="164" y="-8"/>
			<point x="58" y="114"/>
			<point x="58" y="259" type="curve" smooth="yes"/>
			<point x="58" y="505"/>
			<point x="251" y="654"/>
			<point x="454" y="650" type="curve" smooth="yes"/>
			<point x="511" y="649"/>
			<point x="563" y="637"/>
			<point x="611" y="625" type="curve"/>
			<point x="609" y="590"/>
			<point x="605" y="509"/>
			<point x="602" y="482" type="curve" smooth="yes"/>
			<point x="602" y="479"/>
			<point x="598" y="478"/>
			<point x="594" y="478" type="curve"/>
			<point x="588" y="478"/>
			<point x="579" y="478"/>
			<point x="571" y="482" type="curve"/>
			<point x="576" y="560"/>
			<point x="508" y="620"/>
			<point x="426" y="620" type="curve" smooth="yes"/>
			<point x="274" y="620"/>
			<point x="149" y="487"/>
			<point x="150" y="275" type="curve" smooth="yes"/>
			<point x="150" y="159"/>
			<point x="204" y="21"/>
			<point x="350" y="21" type="curve" smooth="yes"/>
			<point x="450" y="21"/>
			<point x="514" y="89"/>
		</contour>
	</outline>
</glyph>
<glyph name="E" format="2">
	<unicode hex="0045"/>
	<advance width="541"/>
	<outline>
		<contour>
			<point x="228" y="642" type="curve" smooth="yes"/>
			<point x="313" y="642"/>
			<point x="422" y="648"/>
			<point x="521" y="648" type="curve"/>
			<point x="518" y="599"/>
			<point x="521" y="560"/>
			<point x="521" y="516" type="curve"/>
			<point x="518" y="513"/>
			<point x="511" y="511"/>
			<point x="504" y="511" type="curve" smooth="yes"/>
			<point x="497" y="511"/>
			<point x="493" y="513"/>
			<point x="493" y="518" type="curve" smooth="yes"/>
			<point x="488" y="596"/>
			<point x="455" y="615"/>
			<point x="407" y="615" type="curve" smooth="yes"/>
			<point x="329" y="615" type="line" smooth="yes"/>
			<point x="318" y="615"/>
			<point x="270" y="614"/>
			<point x="265" y="604" type="curve" smooth="yes"/>
			<point x="257" y="588"/>
			<point x="250" y="560"/>
			<point x="245" y="534" type="curve" smooth="yes"/>
			<point x="209" y="347" type="line" smooth="yes"/>
			<point x="208" y="342"/>
			<point x="227" y="341"/>
			<point x="247" y="341" type="curve" smooth="yes"/>
			<point x="295" y="341" type="line" smooth="yes"/>
			<point x="382" y="341"/>
			<point x="380" y="347"/>
			<point x="408" y="411" type="curve" smooth="yes"/>
			<point x="410" y="416"/>
			<point x="417" y="418"/>
			<point x="424" y="418" type="curve" smooth="yes"/>
			<point x="431" y="418"/>
			<point x="436" y="416"/>
			<point x="438" y="413" type="curve"/>
			<point x="402" y="229" type="line"/>
			<point x="400" y="227"/>
			<point x="394" y="225"/>
			<point x="387" y="225" type="curve" smooth="yes"/>
			<point x="380" y="225"/>
			<point x="375" y="227"/>
			<point x="374" y="232" type="curve" smooth="yes"/>
			<point x="371" y="288"/>
			<point x="368" y="295"/>
			<point x="361" y="301" type="curve" smooth="yes"/>
			<point x="352" y="308"/>
			<point x="301" y="309"/>
			<point x="267" y="309" type="curve" smooth="yes"/>
			<point x="242" y="309"/>
			<point x="201" y="309"/>
			<point x="199" y="300" type="curve" smooth="yes"/>
			<point x="161" y="106" type="line" smooth="yes"/>
			<point x="158" y="91"/>
			<point x="149" y="44"/>
			<point x="154" y="39" type="curve" smooth="yes"/>
			<point x="164" y="29"/>
			<point x="179" y="29"/>
			<point x="217" y="29" type="curve" smooth="yes"/>
			<point x="260" y="29" type="line" smooth="yes"/>
			<point x="310" y="29"/>
			<point x="350" y="39"/>
			<point x="381" y="60" type="curve" smooth="yes"/>
			<point x="407" y="78"/>
			<point x="433" y="106"/>
			<point x="457" y="158" type="curve" smooth="yes"/>
			<point x="459" y="162"/>
			<point x="465" y="164"/>
			<point x="472" y="164" type="curve" smooth="yes"/>
			<point x="481" y="164"/>
			<point x="491" y="161"/>
			<point x="493" y="158" type="curve"/>
			<point x="466" y="105"/>
			<point x="427" y="39"/>
			<point x="412" y="-4" type="curve"/>
			<point x="313" y="-4"/>
			<point x="225" y="0"/>
			<point x="104" y="0" type="curve" smooth="yes"/>
			<point x="61" y="0"/>
			<point x="30" y="-3"/>
			<point x="-5" y="-3" type="curve"/>
			<point x="-9" y="2"/>
			<point x="-5" y="20"/>
			<point x="0" y="25" type="curve"/>
			<point x="11" y="25"/>
			<point x="61" y="30"/>
			<point x="66" y="41" type="curve" smooth="yes"/>
			<point x="74" y="57"/>
			<point x="79" y="84"/>
			<point x="85" y="113" type="curve" smooth="yes"/>
			<point x="166" y="530" type="line" smooth="yes"/>
			<point x="172" y="559"/>
			<point x="177" y="587"/>
			<point x="175" y="603" type="curve" smooth="yes"/>
			<point x="174" y="614"/>
			<point x="126" y="618"/>
			<point x="115" y="618" type="curve"/>
			<point x="112" y="623"/>
			<point x="115" y="641"/>
			<point x="121" y="646" type="curve"/>
			<point x="158" y="644"/>
			<point x="193" y="642"/>
		</contour>
	</outline>
</glyph>
<glyph name="F" format="2">
  <advance width="496"/>
  <unicode hex="0046"/>
  <outline>
    <contour>
      <point x="228" y="642" type="curve" smooth="yes"/>
      <point x="313" y="642"/>
      <point x="422" y="648"/>
      <point x="521" y="648" type="curve"/>
      <point x="518" y="599"/>
      <point x="521" y="560"/>
      <point x="521" y="516" type="curve"/>
      <point x="518" y="513"/>
      <point x="511" y="511"/>
      <point x="504" y="511" type="curve" smooth="yes"/>
      <point x="497" y="511"/>
      <point x="493" y="513"/>
      <point x="493" y="518" type="curve" smooth="yes"/>
      <point x="488" y="596"/>
      <point x="455" y="615"/>
      <point x="407" y="615" type="curve" smooth="yes"/>
      <point x="329" y="615" type="line" smooth="yes"/>
      <point x="318" y="615"/>
      <point x="270" y="614"/>
      <point x="265" y="604" type="curve" smooth="yes"/>
      <point x="257" y="588"/>
      <point x="250" y="560"/>
      <point x="245" y="534" type="curve" smooth="yes"/>
      <point x="209" y="347" type="line" smooth="yes"/>
      <point x="208" y="342"/>
      <point x="227" y="341"/>
      <point x="247" y="341" type="curve" smooth="yes"/>
      <point x="295" y="341" type="line" smooth="yes"/>
      <point x="382" y="341"/>
      <point x="380" y="347"/>
      <point x="408" y="411" type="curve" smooth="yes"/>
      <point x="410" y="416"/>
      <point x="417" y="418"/>
      <point x="424" y="418" type="curve" smooth="yes"/>
      <point x="431" y="418"/>
      <point x="436" y="416"/>
      <point x="438" y="413" type="curve"/>
      <point x="402" y="229" type="line"/>
      <point x="400" y="227"/>
      <point x="394" y="225"/>
      <point x="387" y="225" type="curve" smooth="yes"/>
      <point x="380" y="225"/>
      <point x="375" y="227"/>
      <point x="374" y="232" type="curve" smooth="yes"/>
      <point x="371" y="288"/>
      <point x="368" y="295"/>
      <point x="361" y="301" type="curve" smooth="yes"/>
      <point x="352" y="308"/>
      <point x="301" y="309"/>
      <point x="267" y="309" type="curve" smooth="yes"/>
      <point x="242" y="309"/>
      <point x="201" y="309"/>
      <point x="199" y="300" type="curve" smooth="yes"/>
      <point x="163" y="113" type="line" smooth="yes"/>
      <point x="157" y="84"/>
      <point x="152" y="57"/>
      <point x="154" y="41" type="curve" smooth="yes"/>
      <point x="155" y="30"/>
      <point x="212" y="25"/>
      <point x="223" y="25" type="curve"/>
      <point x="226" y="20"/>
      <point x="223" y="2"/>
      <point x="217" y="-3" type="curve"/>
      <point x="180" y="-1"/>
      <point x="138" y="2"/>
      <point x="103" y="2" type="curve" smooth="yes"/>
      <point x="60" y="2"/>
      <point x="30" y="-3"/>
      <point x="-5" y="-3" type="curve"/>
      <point x="-9" y="2"/>
      <point x="-5" y="20"/>
      <point x="0" y="25" type="curve"/>
      <point x="11" y="25"/>
      <point x="61" y="30"/>
      <point x="66" y="41" type="curve" smooth="yes"/>
      <point x="74" y="57"/>
      <point x="79" y="84"/>
      <point x="85" y="113" type="curve" smooth="yes"/>
      <point x="166" y="530" type="line" smooth="yes"/>
      <point x="172" y="559"/>
      <point x="177" y="587"/>
      <point x="175" y="603" type="curve" smooth="yes"/>
      <point x="174" y="614"/>
      <point x="126" y="618"/>
      <point x="115" y="618" type="curve"/>
      <point x="112" y="623"/>
      <point x="115" y="641"/>
      <point x="121" y="646" type="curve"/>
      <point x="158" y="644"/>
      <point x="193" y="642"/>
    </contour>
  </outline>
</glyph>
<glyph name="G" format="2">
  <advance width="680"/>
  <unicode hex="0047"/>
  <outline>
    <contour>
      <point x="571" y="482" type="curve"/>
      <point x="576" y="560"/>
      <point x="508" y="620"/>
      <point x="426" y="620" type="curve" smooth="yes"/>
      <point x="274" y="620"/>
      <point x="149" y="487"/>
      <point x="150" y="275" type="curve" smooth="yes"/>
      <point x="150" y="159"/>
      <point x="205" y="21"/>
      <point x="347" y="21" type="curve" smooth="yes"/>
      <point x="394" y="21"/>
      <point x="435" y="40"/>
      <point x="456" y="54" type="curve" smooth="yes"/>
      <point x="461" y="58"/>
      <point x="465" y="63"/>
      <point x="466" y="70" type="curve" smooth="yes"/>
      <point x="471" y="96"/>
      <point x="485" y="171"/>
      <point x="485" y="171" type="curve" smooth="yes"/>
      <point x="491" y="200"/>
      <point x="497" y="227"/>
      <point x="495" y="243" type="curve" smooth="yes"/>
      <point x="494" y="254"/>
      <point x="442" y="259"/>
      <point x="431" y="259" type="curve"/>
      <point x="428" y="264"/>
      <point x="430" y="282"/>
      <point x="436" y="287" type="curve"/>
      <point x="473" y="285"/>
      <point x="506" y="282"/>
      <point x="541" y="282" type="curve" smooth="yes"/>
      <point x="576" y="282"/>
      <point x="610" y="285"/>
      <point x="648" y="287" type="curve"/>
      <point x="652" y="282"/>
      <point x="650" y="264"/>
      <point x="645" y="259" type="curve"/>
      <point x="634" y="259"/>
      <point x="587" y="254"/>
      <point x="582" y="243" type="curve" smooth="yes"/>
      <point x="574" y="227"/>
      <point x="569" y="200"/>
      <point x="563" y="171" type="curve" smooth="yes"/>
      <point x="550" y="102" type="line" smooth="yes"/>
      <point x="546" y="81"/>
      <point x="552" y="76"/>
      <point x="552" y="66" type="curve" smooth="yes"/>
      <point x="552" y="60"/>
      <point x="547" y="54"/>
      <point x="530" y="45" type="curve" smooth="yes"/>
      <point x="485" y="22"/>
      <point x="436" y="-8"/>
      <point x="316" y="-8" type="curve" smooth="yes"/>
      <point x="166" y="-8"/>
      <point x="58" y="114"/>
      <point x="58" y="259" type="curve" smooth="yes"/>
      <point x="58" y="505"/>
      <point x="251" y="654"/>
      <point x="454" y="650" type="curve" smooth="yes"/>
      <point x="511" y="649"/>
      <point x="563" y="637"/>
      <point x="611" y="625" type="curve"/>
      <point x="609" y="590"/>
      <point x="604" y="511"/>
      <point x="602" y="482" type="curve" smooth="yes"/>
      <point x="602" y="479"/>
      <point x="598" y="478"/>
      <point x="594" y="478" type="curve"/>
      <point x="588" y="478"/>
      <point x="579" y="478"/>
    </contour>
  </outline>
</glyph>
<glyph name="I" format="2">
  <advance width="305"/>
  <unicode hex="0049"/>
  <outline>
    <contour>
      <point x="227" y="642" type="curve" smooth="yes"/>
      <point x="262" y="642"/>
      <point x="297" y="644"/>
      <point x="335" y="646" type="curve"/>
      <point x="339" y="641"/>
      <point x="334" y="623"/>
      <point x="329" y="618" type="curve"/>
      <point x="318" y="618"/>
      <point x="268" y="614"/>
      <point x="263" y="603" type="curve" smooth="yes"/>
      <point x="255" y="587"/>
      <point x="251" y="559"/>
      <point x="245" y="530" type="curve" smooth="yes"/>
      <point x="164" y="113" type="line" smooth="yes"/>
      <point x="158" y="84"/>
      <point x="152" y="57"/>
      <point x="154" y="41" type="curve" smooth="yes"/>
      <point x="155" y="30"/>
      <point x="203" y="25"/>
      <point x="214" y="25" type="curve"/>
      <point x="217" y="20"/>
      <point x="214" y="2"/>
      <point x="208" y="-3" type="curve"/>
      <point x="171" y="-1"/>
      <point x="138" y="2"/>
      <point x="103" y="2" type="curve" smooth="yes"/>
      <point x="68" y="2"/>
      <point x="33" y="-1"/>
      <point x="-5" y="-3" type="curve"/>
      <point x="-9" y="2"/>
      <point x="-5" y="20"/>
      <point x="0" y="25" type="curve"/>
      <point x="11" y="25"/>
      <point x="61" y="30"/>
      <point x="66" y="41" type="curve" smooth="yes"/>
      <point x="74" y="57"/>
      <point x="79" y="84"/>
      <point x="85" y="113" type="curve" smooth="yes"/>
      <point x="166" y="530" type="line" smooth="yes"/>
      <point x="172" y="559"/>
      <point x="176" y="587"/>
      <point x="174" y="603" type="curve" smooth="yes"/>
      <point x="173" y="614"/>
      <point x="126" y="618"/>
      <point x="115" y="618" type="curve"/>
      <point x="112" y="623"/>
      <point x="115" y="641"/>
      <point x="121" y="646" type="curve"/>
      <point x="158" y="644"/>
      <point x="192" y="642"/>
    </contour>
  </outline>
</glyph>
<glyph name="K" format="2">
	<unicode hex="004B"/>
	<advance width="599"/>
	<outline>
		<contour>
			<point x="469" y="70" type="curve" smooth="yes"/>
			<point x="488" y="48"/>
			<point x="510" y="29"/>
			<point x="559" y="25" type="curve"/>
			<point x="563" y="20"/>
			<point x="554" y="-1"/>
			<point x="553" y="-3" type="curve"/>
			<point x="492" y="-3"/>
			<point x="443" y="1"/>
			<point x="426" y="8" type="curve" smooth="yes"/>
			<point x="414" y="13"/>
			<point x="394" y="23"/>
			<point x="373" y="50" type="curve" smooth="yes"/>
			<point x="358" y="71"/>
			<point x="294" y="171"/>
			<point x="216" y="297" type="curve" smooth="yes"/>
			<point x="215" y="300"/>
			<point x="213" y="300"/>
			<point x="209" y="300" type="curve" smooth="yes"/>
			<point x="206" y="300"/>
			<point x="202" y="299"/>
			<point x="200" y="298" type="curve"/>
			<point x="164" y="113" type="line" smooth="yes"/>
			<point x="158" y="84"/>
			<point x="153" y="57"/>
			<point x="155" y="41" type="curve" smooth="yes"/>
			<point x="156" y="30"/>
			<point x="203" y="25"/>
			<point x="214" y="25" type="curve"/>
			<point x="217" y="20"/>
			<point x="215" y="2"/>
			<point x="209" y="-3" type="curve"/>
			<point x="172" y="-1"/>
			<point x="138" y="2"/>
			<point x="103" y="2" type="curve" smooth="yes"/>
			<point x="68" y="2"/>
			<point x="34" y="-1"/>
			<point x="-4" y="-3" type="curve"/>
			<point x="-8" y="2"/>
			<point x="-4" y="20"/>
			<point x="1" y="25" type="curve"/>
			<point x="12" y="25"/>
			<point x="61" y="30"/>
			<point x="66" y="41" type="curve" smooth="yes"/>
			<point x="74" y="57"/>
			<point x="79" y="84"/>
			<point x="85" y="113" type="curve" smooth="yes"/>
			<point x="166" y="530" type="line" smooth="yes"/>
			<point x="172" y="559"/>
			<point x="177" y="587"/>
			<point x="175" y="603" type="curve" smooth="yes"/>
			<point x="174" y="614"/>
			<point x="127" y="618"/>
			<point x="116" y="618" type="curve"/>
			<point x="113" y="623"/>
			<point x="116" y="641"/>
			<point x="122" y="646" type="curve"/>
			<point x="159" y="644"/>
			<point x="193" y="642"/>
			<point x="228" y="642" type="curve" smooth="yes"/>
			<point x="263" y="642"/>
			<point x="297" y="644"/>
			<point x="335" y="646" type="curve"/>
			<point x="339" y="641"/>
			<point x="335" y="623"/>
			<point x="330" y="618" type="curve"/>
			<point x="319" y="618"/>
			<point x="268" y="614"/>
			<point x="263" y="603" type="curve" smooth="yes"/>
			<point x="255" y="587"/>
			<point x="251" y="559"/>
			<point x="245" y="530" type="curve" smooth="yes"/>
			<point x="207" y="332" type="line"/>
			<point x="228" y="345"/>
			<point x="283" y="390"/>
			<point x="328" y="429" type="curve" smooth="yes"/>
			<point x="414" y="504"/>
			<point x="414" y="502"/>
			<point x="469" y="562" type="curve" smooth="yes"/>
			<point x="476" y="570"/>
			<point x="486" y="583"/>
			<point x="488" y="593" type="curve" smooth="yes"/>
			<point x="493" y="617"/>
			<point x="450" y="617"/>
			<point x="442" y="617" type="curve"/>
			<point x="440" y="623"/>
			<point x="443" y="637"/>
			<point x="448" y="646" type="curve"/>
			<point x="481" y="644"/>
			<point x="517" y="641"/>
			<point x="550" y="641" type="curve" smooth="yes"/>
			<point x="590" y="641"/>
			<point x="613" y="644"/>
			<point x="650" y="646" type="curve"/>
			<point x="651" y="640"/>
			<point x="647" y="617"/>
			<point x="642" y="617" type="curve" smooth="yes"/>
			<point x="633" y="616"/>
			<point x="584" y="617"/>
			<point x="546" y="581" type="curve" smooth="yes"/>
			<point x="450" y="489"/>
			<point x="390" y="439"/>
			<point x="295" y="357" type="curve" smooth="yes"/>
			<point x="288" y="351"/>
			<point x="290" y="347"/>
			<point x="293" y="342" type="curve" smooth="yes"/>
			<point x="359" y="233"/>
			<point x="413" y="141"/>
		</contour>
	</outline>
</glyph>
<glyph name="L" format="2">
  <advance width="517"/>
  <unicode hex="004C"/>
  <outline>
    <contour>
      <point x="162" y="109" type="line" smooth="yes"/>
      <point x="159" y="94"/>
      <point x="149" y="44"/>
      <point x="154" y="39" type="curve" smooth="yes"/>
      <point x="164" y="29"/>
      <point x="179" y="29"/>
      <point x="217" y="29" type="curve" smooth="yes"/>
      <point x="269" y="29" type="line" smooth="yes"/>
      <point x="303" y="29"/>
      <point x="344" y="39"/>
      <point x="374" y="56" type="curve" smooth="yes"/>
      <point x="403" y="73"/>
      <point x="433" y="106"/>
      <point x="457" y="158" type="curve" smooth="yes"/>
      <point x="459" y="162"/>
      <point x="465" y="164"/>
      <point x="472" y="164" type="curve" smooth="yes"/>
      <point x="481" y="164"/>
      <point x="492" y="161"/>
      <point x="494" y="158" type="curve"/>
      <point x="467" y="105"/>
      <point x="428" y="39"/>
      <point x="413" y="-4" type="curve"/>
      <point x="314" y="-4"/>
      <point x="225" y="0"/>
      <point x="104" y="0" type="curve" smooth="yes"/>
      <point x="61" y="0"/>
      <point x="31" y="-3"/>
      <point x="-4" y="-3" type="curve"/>
      <point x="-8" y="2"/>
      <point x="-4" y="20"/>
      <point x="1" y="25" type="curve"/>
      <point x="12" y="25"/>
      <point x="62" y="30"/>
      <point x="67" y="41" type="curve" smooth="yes"/>
      <point x="75" y="57"/>
      <point x="79" y="84"/>
      <point x="85" y="113" type="curve" smooth="yes"/>
      <point x="166" y="530" type="line" smooth="yes"/>
      <point x="172" y="559"/>
      <point x="178" y="587"/>
      <point x="176" y="603" type="curve" smooth="yes"/>
      <point x="175" y="614"/>
      <point x="128" y="618"/>
      <point x="117" y="618" type="curve"/>
      <point x="114" y="623"/>
      <point x="116" y="641"/>
      <point x="122" y="646" type="curve"/>
      <point x="159" y="644"/>
      <point x="193" y="642"/>
      <point x="228" y="642" type="curve" smooth="yes"/>
      <point x="263" y="642"/>
      <point x="297" y="644"/>
      <point x="335" y="646" type="curve"/>
      <point x="339" y="641"/>
      <point x="335" y="623"/>
      <point x="330" y="618" type="curve"/>
      <point x="319" y="618"/>
      <point x="269" y="614"/>
      <point x="264" y="603" type="curve" smooth="yes"/>
      <point x="256" y="587"/>
      <point x="251" y="559"/>
      <point x="246" y="530" type="curve" smooth="yes"/>
    </contour>
  </outline>
</glyph>
<glyph name="M" format="2">
  <advance width="818"/>
  <unicode hex="004D"/>
  <outline>
    <contour>
      <point x="388" y="48" type="curve" smooth="yes"/>
      <point x="383" y="39"/>
      <point x="355" y="0"/>
      <point x="344" y="-2" type="curve" smooth="yes"/>
      <point x="341" y="-3"/>
      <point x="339" y="-1"/>
      <point x="336" y="0" type="curve"/>
      <point x="225" y="570" type="line"/>
      <point x="180" y="357"/>
      <point x="118" y="83"/>
      <point x="116" y="73" type="curve" smooth="yes"/>
      <point x="114" y="64"/>
      <point x="114" y="51"/>
      <point x="115" y="43" type="curve" smooth="yes"/>
      <point x="118" y="28"/>
      <point x="176" y="25"/>
      <point x="183" y="25" type="curve"/>
      <point x="186" y="19"/>
      <point x="181" y="0"/>
      <point x="179" y="-3" type="curve"/>
      <point x="143" y="-1"/>
      <point x="124" y="2"/>
      <point x="84" y="2" type="curve" smooth="yes"/>
      <point x="42" y="2"/>
      <point x="19" y="-1"/>
      <point x="-23" y="-3" type="curve"/>
      <point x="-24" y="-1"/>
      <point x="-22" y="17"/>
      <point x="-17" y="25" type="curve"/>
      <point x="-6" y="25"/>
      <point x="48" y="30"/>
      <point x="59" y="43" type="curve" smooth="yes"/>
      <point x="70" y="56"/>
      <point x="74" y="71"/>
      <point x="79" y="92" type="curve" smooth="yes"/>
      <point x="133" y="326"/>
      <point x="180" y="541"/>
      <point x="183" y="559" type="curve" smooth="yes"/>
      <point x="186" y="573"/>
      <point x="189" y="587"/>
      <point x="187" y="598" type="curve"/>
      <point x="186" y="610"/>
      <point x="138" y="618"/>
      <point x="127" y="618" type="curve"/>
      <point x="125" y="624"/>
      <point x="129" y="643"/>
      <point x="133" y="646" type="curve"/>
      <point x="161" y="644"/>
      <point x="185" y="643"/>
      <point x="221" y="643" type="curve" smooth="yes"/>
      <point x="248" y="643"/>
      <point x="279" y="644"/>
      <point x="300" y="646" type="curve"/>
      <point x="306" y="584"/>
      <point x="398" y="136"/>
      <point x="397" y="136" type="curve"/>
      <point x="396" y="136"/>
      <point x="617" y="529"/>
      <point x="617" y="529" type="curve" smooth="yes"/>
      <point x="642" y="574"/>
      <point x="680" y="646"/>
      <point x="680" y="646" type="curve"/>
      <point x="708" y="644"/>
      <point x="730" y="643"/>
      <point x="748" y="643" type="curve" smooth="yes"/>
      <point x="780" y="643"/>
      <point x="815" y="644"/>
      <point x="838" y="646" type="curve"/>
      <point x="838" y="643"/>
      <point x="836" y="618"/>
      <point x="836" y="618" type="curve"/>
      <point x="823" y="618"/>
      <point x="775" y="611"/>
      <point x="768" y="601" type="curve"/>
      <point x="763" y="592"/>
      <point x="758" y="575"/>
      <point x="756" y="563" type="curve" smooth="yes"/>
      <point x="682" y="137" type="line" smooth="yes"/>
      <point x="675" y="99"/>
      <point x="671" y="65"/>
      <point x="675" y="42" type="curve" smooth="yes"/>
      <point x="677" y="28"/>
      <point x="728" y="25"/>
      <point x="735" y="25" type="curve"/>
      <point x="738" y="16"/>
      <point x="734" y="0"/>
      <point x="732" y="-3" type="curve"/>
      <point x="696" y="-1"/>
      <point x="664" y="2"/>
      <point x="624" y="2" type="curve" smooth="yes"/>
      <point x="582" y="2"/>
      <point x="556" y="-1"/>
      <point x="514" y="-3" type="curve"/>
      <point x="513" y="-1"/>
      <point x="515" y="17"/>
      <point x="520" y="25" type="curve"/>
      <point x="531" y="25"/>
      <point x="568" y="29"/>
      <point x="581" y="36" type="curve" smooth="yes"/>
      <point x="588" y="40"/>
      <point x="594" y="63"/>
      <point x="597" y="77" type="curve" smooth="yes"/>
      <point x="600" y="91"/>
      <point x="644" y="367"/>
      <point x="674" y="553" type="curve"/>
      <point x="661" y="532"/>
      <point x="388" y="48"/>
    </contour>
  </outline>
</glyph>
<glyph name="N" format="2">
  <advance width="714"/>
  <unicode hex="004E"/>
  <outline>
    <contour>
      <point x="613" y="528" type="line" smooth="yes"/>
      <point x="620" y="563"/>
      <point x="622" y="583"/>
      <point x="616" y="599" type="curve" smooth="yes"/>
      <point x="611" y="613"/>
      <point x="566" y="618"/>
      <point x="551" y="618" type="curve"/>
      <point x="548" y="625"/>
      <point x="551" y="641"/>
      <point x="554" y="646" type="curve"/>
      <point x="590" y="644"/>
      <point x="613" y="643"/>
      <point x="653" y="643" type="curve" smooth="yes"/>
      <point x="695" y="643"/>
      <point x="713" y="644"/>
      <point x="755" y="646" type="curve"/>
      <point x="757" y="641"/>
      <point x="758" y="629"/>
      <point x="751" y="618" type="curve"/>
      <point x="740" y="618"/>
      <point x="687" y="612"/>
      <point x="678" y="600" type="curve" smooth="yes"/>
      <point x="667" y="585"/>
      <point x="663" y="570"/>
      <point x="656" y="533" type="curve" smooth="yes"/>
      <point x="579" y="136" type="line" smooth="yes"/>
      <point x="568" y="79"/>
      <point x="563" y="50"/>
      <point x="555" y="-1" type="curve"/>
      <point x="552" y="-4"/>
      <point x="541" y="-5"/>
      <point x="538" y="-5" type="curve" smooth="yes"/>
      <point x="530" y="-5"/>
      <point x="519" y="4"/>
      <point x="512" y="18" type="curve" smooth="yes"/>
      <point x="219" y="556" type="line"/>
      <point x="133" y="112" type="line" smooth="yes"/>
      <point x="126" y="77"/>
      <point x="123" y="61"/>
      <point x="129" y="45" type="curve" smooth="yes"/>
      <point x="133" y="35"/>
      <point x="179" y="25"/>
      <point x="194" y="25" type="curve"/>
      <point x="197" y="18"/>
      <point x="193" y="3"/>
      <point x="190" y="-3" type="curve"/>
      <point x="154" y="-1"/>
      <point x="129" y="2"/>
      <point x="89" y="2" type="curve" smooth="yes"/>
      <point x="47" y="2"/>
      <point x="30" y="-1"/>
      <point x="-12" y="-3" type="curve"/>
      <point x="-14" y="2"/>
      <point x="-13" y="14"/>
      <point x="-6" y="25" type="curve"/>
      <point x="5" y="25"/>
      <point x="59" y="33"/>
      <point x="68" y="45" type="curve" smooth="yes"/>
      <point x="79" y="60"/>
      <point x="84" y="74"/>
      <point x="91" y="111" type="curve" smooth="yes"/>
      <point x="173" y="535" type="line" smooth="yes"/>
      <point x="180" y="572"/>
      <point x="182" y="587"/>
      <point x="177" y="602" type="curve" smooth="yes"/>
      <point x="173" y="614"/>
      <point x="121" y="618"/>
      <point x="110" y="618" type="curve"/>
      <point x="107" y="629"/>
      <point x="111" y="641"/>
      <point x="115" y="646" type="curve"/>
      <point x="156" y="644"/>
      <point x="168" y="643"/>
      <point x="198" y="643" type="curve" smooth="yes"/>
      <point x="225" y="643"/>
      <point x="265" y="645"/>
      <point x="278" y="646" type="curve"/>
      <point x="309" y="568"/>
      <point x="470" y="309"/>
      <point x="541" y="158" type="curve"/>
    </contour>
  </outline>
</glyph>
<glyph name="O" format="2">
  <advance width="693"/>
  <unicode hex="004F"/>
  <outline>
    <contour>
      <point x="396" y="620" type="curve" smooth="yes"/>
      <point x="273" y="620"/>
      <point x="151" y="467"/>
      <point x="151" y="262" type="curve" smooth="yes"/>
      <point x="151" y="150"/>
      <point x="186" y="18"/>
      <point x="320" y="18" type="curve" smooth="yes"/>
      <point x="469" y="18"/>
      <point x="564" y="209"/>
      <point x="564" y="384" type="curve" smooth="yes"/>
      <point x="564" y="478"/>
      <point x="534" y="620"/>
    </contour>
    <contour>
      <point x="405" y="649" type="curve" smooth="yes"/>
      <point x="559" y="649"/>
      <point x="656" y="529"/>
      <point x="656" y="373" type="curve" smooth="yes"/>
      <point x="656" y="144"/>
      <point x="500" y="-11"/>
      <point x="312" y="-11" type="curve" smooth="yes"/>
      <point x="154" y="-11"/>
      <point x="60" y="113"/>
      <point x="60" y="267" type="curve" smooth="yes"/>
      <point x="60" y="492"/>
      <point x="227" y="649"/>
    </contour>
  </outline>
</glyph>
<glyph name="P" format="2">
  <advance width="499"/>
  <unicode hex="0050"/>
  <outline>
    <contour>
      <point x="510" y="496" type="curve" smooth="yes"/>
      <point x="510" y="371"/>
      <point x="402" y="275"/>
      <point x="283" y="275" type="curve" smooth="yes"/>
      <point x="262" y="275"/>
      <point x="244" y="281"/>
      <point x="239" y="285" type="curve" smooth="yes"/>
      <point x="237" y="287"/>
      <point x="231" y="296"/>
      <point x="231" y="301" type="curve" smooth="yes"/>
      <point x="231" y="303"/>
      <point x="233" y="304"/>
      <point x="235" y="305" type="curve"/>
      <point x="243" y="301"/>
      <point x="259" y="301"/>
      <point x="268" y="301" type="curve" smooth="yes"/>
      <point x="340" y="301"/>
      <point x="423" y="373"/>
      <point x="423" y="482" type="curve" smooth="yes"/>
      <point x="423" y="537"/>
      <point x="411" y="615"/>
      <point x="310" y="615" type="curve" smooth="yes"/>
      <point x="299" y="615"/>
      <point x="268" y="614"/>
      <point x="263" y="605" type="curve" smooth="yes"/>
      <point x="256" y="593"/>
      <point x="251" y="561"/>
      <point x="245" y="532" type="curve" smooth="yes"/>
      <point x="163" y="113" type="line" smooth="yes"/>
      <point x="157" y="84"/>
      <point x="152" y="57"/>
      <point x="154" y="41" type="curve" smooth="yes"/>
      <point x="155" y="30"/>
      <point x="203" y="25"/>
      <point x="214" y="25" type="curve"/>
      <point x="217" y="20"/>
      <point x="214" y="2"/>
      <point x="208" y="-3" type="curve"/>
      <point x="171" y="-1"/>
      <point x="137" y="2"/>
      <point x="102" y="2" type="curve" smooth="yes"/>
      <point x="67" y="2"/>
      <point x="33" y="-1"/>
      <point x="-5" y="-3" type="curve"/>
      <point x="-9" y="2"/>
      <point x="-5" y="20"/>
      <point x="0" y="25" type="curve"/>
      <point x="11" y="25"/>
      <point x="61" y="30"/>
      <point x="66" y="41" type="curve" smooth="yes"/>
      <point x="74" y="57"/>
      <point x="79" y="84"/>
      <point x="85" y="113" type="curve" smooth="yes"/>
      <point x="166" y="530" type="line" smooth="yes"/>
      <point x="172" y="559"/>
      <point x="176" y="587"/>
      <point x="174" y="603" type="curve" smooth="yes"/>
      <point x="173" y="614"/>
      <point x="126" y="618"/>
      <point x="115" y="618" type="curve"/>
      <point x="112" y="623"/>
      <point x="115" y="641"/>
      <point x="121" y="646" type="curve"/>
      <point x="158" y="644"/>
      <point x="194" y="642"/>
      <point x="229" y="642" type="curve" smooth="yes"/>
      <point x="264" y="642"/>
      <point x="280" y="644"/>
      <point x="334" y="644" type="curve" smooth="yes"/>
      <point x="438" y="644"/>
      <point x="510" y="585"/>
    </contour>
  </outline>
</glyph>
<glyph name="Q" format="2">
	<unicode hex="0051"/>
	<advance width="693"/>
	<outline>
		<contour>
			<point x="405" y="649" type="curve" smooth="yes"/>
			<point x="559" y="649"/>
			<point x="656" y="529"/>
			<point x="656" y="373" type="curve" smooth="yes"/>
			<point x="656" y="172"/>
			<point x="534" y="28"/>
			<point x="377" y="-4" type="curve"/>
			<point x="449" y="-46"/>
			<point x="472" y="-79"/>
			<point x="561" y="-79" type="curve" smooth="yes"/>
			<point x="597" y="-79"/>
			<point x="643" y="-68"/>
			<point x="650" y="-66" type="curve"/>
			<point x="657" y="-66"/>
			<point x="669" y="-75"/>
			<point x="669" y="-79" type="curve"/>
			<point x="613" y="-107"/>
			<point x="553" y="-133"/>
			<point x="497" y="-133" type="curve" smooth="yes"/>
			<point x="402" y="-133"/>
			<point x="334" y="-36"/>
			<point x="222" y="4" type="curve" smooth="yes"/>
			<point x="118" y="41"/>
			<point x="60" y="144"/>
			<point x="60" y="267" type="curve" smooth="yes"/>
			<point x="60" y="492"/>
			<point x="227" y="649"/>
		</contour>
		<contour>
			<point x="396" y="620" type="curve" smooth="yes"/>
			<point x="273" y="620"/>
			<point x="151" y="467"/>
			<point x="151" y="262" type="curve" smooth="yes"/>
			<point x="151" y="150"/>
			<point x="186" y="18"/>
			<point x="320" y="18" type="curve" smooth="yes"/>
			<point x="469" y="18"/>
			<point x="564" y="209"/>
			<point x="564" y="384" type="curve" smooth="yes"/>
			<point x="564" y="478"/>
			<point x="534" y="620"/>
		</contour>
	</outline>
</glyph>
<glyph name="R" format="2">
  <advance width="565"/>
  <unicode hex="0052"/>
  <outline>
    <contour>
      <point x="540" y="-3" type="curve"/>
      <point x="460" y="-3"/>
      <point x="398" y="1"/>
      <point x="375" y="46" type="curve" smooth="yes"/>
      <point x="346" y="104"/>
      <point x="304" y="199"/>
      <point x="272" y="284" type="curve" smooth="yes"/>
      <point x="269" y="293"/>
      <point x="260" y="296"/>
      <point x="247" y="296" type="curve" smooth="yes"/>
      <point x="199" y="296" type="line"/>
      <point x="164" y="113" type="line" smooth="yes"/>
      <point x="158" y="84"/>
      <point x="152" y="57"/>
      <point x="154" y="41" type="curve" smooth="yes"/>
      <point x="155" y="30"/>
      <point x="203" y="25"/>
      <point x="214" y="25" type="curve"/>
      <point x="217" y="20"/>
      <point x="214" y="2"/>
      <point x="208" y="-3" type="curve"/>
      <point x="171" y="-1"/>
      <point x="138" y="2"/>
      <point x="103" y="2" type="curve" smooth="yes"/>
      <point x="68" y="2"/>
      <point x="33" y="-1"/>
      <point x="-5" y="-3" type="curve"/>
      <point x="-9" y="2"/>
      <point x="-5" y="20"/>
      <point x="0" y="25" type="curve"/>
      <point x="11" y="25"/>
      <point x="61" y="30"/>
      <point x="66" y="41" type="curve" smooth="yes"/>
      <point x="74" y="57"/>
      <point x="79" y="84"/>
      <point x="85" y="113" type="curve" smooth="yes"/>
      <point x="166" y="530" type="line" smooth="yes"/>
      <point x="172" y="559"/>
      <point x="176" y="587"/>
      <point x="174" y="603" type="curve" smooth="yes"/>
      <point x="173" y="614"/>
      <point x="126" y="618"/>
      <point x="115" y="618" type="curve"/>
      <point x="112" y="623"/>
      <point x="115" y="641"/>
      <point x="121" y="646" type="curve"/>
      <point x="158" y="644"/>
      <point x="195" y="642"/>
      <point x="230" y="642" type="curve" smooth="yes"/>
      <point x="265" y="642"/>
      <point x="305" y="644"/>
      <point x="359" y="644" type="curve" smooth="yes"/>
      <point x="442" y="644"/>
      <point x="512" y="597"/>
      <point x="512" y="506" type="curve" smooth="yes"/>
      <point x="512" y="412"/>
      <point x="427" y="339"/>
      <point x="352" y="312" type="curve"/>
      <point x="384" y="224"/>
      <point x="431" y="126"/>
      <point x="455" y="84" type="curve" smooth="yes"/>
      <point x="478" y="44"/>
      <point x="497" y="29"/>
      <point x="546" y="25" type="curve"/>
      <point x="550" y="20"/>
      <point x="541" y="-1"/>
    </contour>
    <contour>
      <point x="205" y="325" type="line"/>
      <point x="254" y="325" type="line" smooth="yes"/>
      <point x="331" y="325"/>
      <point x="425" y="381"/>
      <point x="425" y="500" type="curve" smooth="yes"/>
      <point x="425" y="540"/>
      <point x="412" y="615"/>
      <point x="311" y="615" type="curve" smooth="yes"/>
      <point x="300" y="615"/>
      <point x="268" y="614"/>
      <point x="263" y="605" type="curve" smooth="yes"/>
      <point x="256" y="593"/>
      <point x="251" y="561"/>
      <point x="245" y="532" type="curve" smooth="yes"/>
    </contour>
  </outline>
</glyph>
<glyph name="S" format="2">
	<unicode hex="0053"/>
	<advance width="460"/>
	<outline>
		<contour>
			<point x="304" y="650" type="curve" smooth="yes"/>
			<point x="361" y="650"/>
			<point x="390" y="639"/>
			<point x="438" y="627" type="curve"/>
			<point x="435" y="594"/>
			<point x="424" y="515"/>
			<point x="418" y="486" type="curve" smooth="yes"/>
			<point x="417" y="479"/>
			<point x="411" y="479"/>
			<point x="408" y="479" type="curve" smooth="yes"/>
			<point x="404" y="479"/>
			<point x="393" y="480"/>
			<point x="387" y="486" type="curve"/>
			<point x="392" y="564"/>
			<point x="367" y="620"/>
			<point x="297" y="620" type="curve" smooth="yes"/>
			<point x="217" y="620"/>
			<point x="176" y="558"/>
			<point x="176" y="508" type="curve" smooth="yes"/>
			<point x="176" y="428"/>
			<point x="236" y="396"/>
			<point x="288" y="355" type="curve" smooth="yes"/>
			<point x="340" y="314"/>
			<point x="411" y="279"/>
			<point x="411" y="188" type="curve" smooth="yes"/>
			<point x="411" y="67"/>
			<point x="294" y="-8"/>
			<point x="188" y="-8" type="curve" smooth="yes"/>
			<point x="133" y="-8"/>
			<point x="82" y="12"/>
			<point x="45" y="33" type="curve"/>
			<point x="32" y="86"/>
			<point x="31" y="168"/>
			<point x="33" y="180" type="curve"/>
			<point x="36" y="184"/>
			<point x="50" y="186"/>
			<point x="57" y="186" type="curve" smooth="yes"/>
			<point x="62" y="186"/>
			<point x="65" y="184"/>
			<point x="67" y="180" type="curve"/>
			<point x="67" y="126"/>
			<point x="104" y="21"/>
			<point x="200" y="21" type="curve" smooth="yes"/>
			<point x="265" y="21"/>
			<point x="324" y="66"/>
			<point x="324" y="144" type="curve" smooth="yes"/>
			<point x="324" y="214"/>
			<point x="280" y="248"/>
			<point x="231" y="287" type="curve" smooth="yes"/>
			<point x="172" y="334"/>
			<point x="99" y="364"/>
			<point x="99" y="465" type="curve" smooth="yes"/>
			<point x="99" y="577"/>
			<point x="213" y="650"/>
		</contour>
	</outline>
</glyph>
<glyph name="T" format="2">
  <advance width="573"/>
  <unicode hex="0054"/>
  <outline>
    <contour>
      <point x="537" y="640" type="line" smooth="yes"/>
      <point x="552" y="640"/>
      <point x="583" y="648"/>
      <point x="595" y="654" type="curve" smooth="yes"/>
      <point x="605" y="659"/>
      <point x="607" y="659"/>
      <point x="612" y="656" type="curve"/>
      <point x="607" y="596"/>
      <point x="603" y="540"/>
      <point x="603" y="488" type="curve"/>
      <point x="600" y="485"/>
      <point x="592" y="480"/>
      <point x="584" y="481" type="curve" smooth="yes"/>
      <point x="579" y="481"/>
      <point x="573" y="483"/>
      <point x="572" y="486" type="curve"/>
      <point x="573" y="554"/>
      <point x="555" y="605"/>
      <point x="510" y="605" type="curve" smooth="yes"/>
      <point x="394" y="605" type="line"/>
      <point x="298" y="113" type="line" smooth="yes"/>
      <point x="292" y="84"/>
      <point x="286" y="57"/>
      <point x="288" y="41" type="curve" smooth="yes"/>
      <point x="289" y="30"/>
      <point x="337" y="25"/>
      <point x="348" y="25" type="curve"/>
      <point x="351" y="20"/>
      <point x="349" y="2"/>
      <point x="343" y="-3" type="curve"/>
      <point x="306" y="-1"/>
      <point x="272" y="2"/>
      <point x="237" y="2" type="curve" smooth="yes"/>
      <point x="202" y="2"/>
      <point x="167" y="-1"/>
      <point x="129" y="-3" type="curve"/>
      <point x="125" y="2"/>
      <point x="130" y="20"/>
      <point x="135" y="25" type="curve"/>
      <point x="146" y="25"/>
      <point x="195" y="30"/>
      <point x="200" y="41" type="curve" smooth="yes"/>
      <point x="208" y="57"/>
      <point x="213" y="84"/>
      <point x="219" y="113" type="curve" smooth="yes"/>
      <point x="315" y="605" type="line"/>
      <point x="198" y="605" type="line" smooth="yes"/>
      <point x="153" y="605"/>
      <point x="114" y="554"/>
      <point x="88" y="486" type="curve" smooth="yes"/>
      <point x="86" y="483"/>
      <point x="79" y="481"/>
      <point x="74" y="481" type="curve" smooth="yes"/>
      <point x="65" y="480"/>
      <point x="59" y="485"/>
      <point x="57" y="488" type="curve"/>
      <point x="78" y="540"/>
      <point x="96" y="596"/>
      <point x="114" y="656" type="curve"/>
      <point x="120" y="659"/>
      <point x="129" y="656"/>
      <point x="134" y="653" type="curve" smooth="yes"/>
      <point x="144" y="647"/>
      <point x="168" y="640"/>
      <point x="182" y="640" type="curve" smooth="yes"/>
    </contour>
  </outline>
</glyph>
<glyph name="U" format="2">
	<unicode hex="0055"/>
	<advance width="645"/>
	<outline>
		<contour>
			<point x="213" y="642" type="curve" smooth="yes"/>
			<point x="248" y="642"/>
			<point x="282" y="644"/>
			<point x="320" y="646" type="curve"/>
			<point x="324" y="641"/>
			<point x="319" y="623"/>
			<point x="314" y="618" type="curve"/>
			<point x="303" y="618"/>
			<point x="254" y="614"/>
			<point x="249" y="603" type="curve" smooth="yes"/>
			<point x="241" y="587"/>
			<point x="236" y="559"/>
			<point x="230" y="530" type="curve" smooth="yes"/>
			<point x="183" y="289" type="line" smooth="yes"/>
			<point x="168" y="213"/>
			<point x="170" y="155"/>
			<point x="189" y="117" type="curve" smooth="yes"/>
			<point x="210" y="74"/>
			<point x="248" y="53"/>
			<point x="306" y="53" type="curve" smooth="yes"/>
			<point x="400" y="53"/>
			<point x="472" y="100"/>
			<point x="507" y="268" type="curve" smooth="yes"/>
			<point x="559" y="532" type="line" smooth="yes"/>
			<point x="566" y="567"/>
			<point x="568" y="584"/>
			<point x="562" y="600" type="curve" smooth="yes"/>
			<point x="558" y="610"/>
			<point x="516" y="619"/>
			<point x="501" y="619" type="curve"/>
			<point x="498" y="626"/>
			<point x="502" y="641"/>
			<point x="505" y="647" type="curve"/>
			<point x="541" y="645"/>
			<point x="563" y="643"/>
			<point x="603" y="643" type="curve" smooth="yes"/>
			<point x="645" y="643"/>
			<point x="660" y="645"/>
			<point x="702" y="647" type="curve"/>
			<point x="704" y="642"/>
			<point x="704" y="630"/>
			<point x="697" y="619" type="curve"/>
			<point x="686" y="619"/>
			<point x="631" y="612"/>
			<point x="622" y="600" type="curve" smooth="yes"/>
			<point x="611" y="585"/>
			<point x="608" y="570"/>
			<point x="601" y="533" type="curve" smooth="yes"/>
			<point x="549" y="270" type="line" smooth="yes"/>
			<point x="511" y="75"/>
			<point x="418" y="-4"/>
			<point x="276" y="-4" type="curve" smooth="yes"/>
			<point x="207" y="-4"/>
			<point x="154" y="21"/>
			<point x="122" y="66" type="curve" smooth="yes"/>
			<point x="92" y="109"/>
			<point x="80" y="170"/>
			<point x="95" y="245" type="curve" smooth="yes"/>
			<point x="151" y="530" type="line" smooth="yes"/>
			<point x="157" y="559"/>
			<point x="163" y="587"/>
			<point x="161" y="603" type="curve" smooth="yes"/>
			<point x="160" y="614"/>
			<point x="112" y="618"/>
			<point x="101" y="618" type="curve"/>
			<point x="98" y="623"/>
			<point x="101" y="641"/>
			<point x="107" y="646" type="curve"/>
			<point x="144" y="644"/>
			<point x="178" y="642"/>
		</contour>
	</outline>
</glyph>
<glyph name="W" format="2">
  <advance width="821"/>
  <unicode hex="0057"/>
  <outline>
    <contour>
      <point x="168" y="642" type="curve" smooth="yes"/>
      <point x="208" y="642"/>
      <point x="242" y="644"/>
      <point x="279" y="646" type="curve"/>
      <point x="280" y="640"/>
      <point x="275" y="619"/>
      <point x="271" y="618" type="curve"/>
      <point x="264" y="618"/>
      <point x="215" y="613"/>
      <point x="210" y="586" type="curve" smooth="yes"/>
      <point x="209" y="580"/>
      <point x="209" y="561"/>
      <point x="211" y="532" type="curve" smooth="yes"/>
      <point x="216" y="449"/>
      <point x="229" y="286"/>
      <point x="241" y="141" type="curve"/>
      <point x="465" y="614" type="line" smooth="yes"/>
      <point x="474" y="633"/>
      <point x="494" y="646"/>
      <point x="504" y="646" type="curve" smooth="yes"/>
      <point x="508" y="646"/>
      <point x="509" y="642"/>
      <point x="512" y="631" type="curve"/>
      <point x="514" y="610"/>
      <point x="546" y="335"/>
      <point x="569" y="141" type="curve"/>
      <point x="737" y="512" type="line" smooth="yes"/>
      <point x="747" y="535"/>
      <point x="757" y="562"/>
      <point x="760" y="580" type="curve" smooth="yes"/>
      <point x="766" y="611"/>
      <point x="716" y="618"/>
      <point x="705" y="618" type="curve"/>
      <point x="701" y="620"/>
      <point x="705" y="641"/>
      <point x="711" y="646" type="curve"/>
      <point x="744" y="644"/>
      <point x="775" y="642"/>
      <point x="808" y="642" type="curve" smooth="yes"/>
      <point x="850" y="642"/>
      <point x="861" y="644"/>
      <point x="898" y="646" type="curve"/>
      <point x="900" y="641"/>
      <point x="894" y="618"/>
      <point x="891" y="618" type="curve" smooth="yes"/>
      <point x="884" y="618"/>
      <point x="849" y="610"/>
      <point x="828" y="593" type="curve" smooth="yes"/>
      <point x="813" y="581"/>
      <point x="800" y="559"/>
      <point x="781" y="519" type="curve" smooth="yes"/>
      <point x="553" y="31" type="line" smooth="yes"/>
      <point x="545" y="13"/>
      <point x="524" y="-2"/>
      <point x="512" y="-2" type="curve" smooth="yes"/>
      <point x="508" y="-2"/>
      <point x="506" y="10"/>
      <point x="506" y="14" type="curve" smooth="yes"/>
      <point x="485" y="197"/>
      <point x="469" y="309"/>
      <point x="446" y="499" type="curve"/>
      <point x="224" y="31" type="line" smooth="yes"/>
      <point x="216" y="13"/>
      <point x="196" y="-2"/>
      <point x="184" y="-2" type="curve" smooth="yes"/>
      <point x="180" y="-2"/>
      <point x="177" y="10"/>
      <point x="177" y="14" type="curve" smooth="yes"/>
      <point x="130" y="520" type="line" smooth="yes"/>
      <point x="127" y="559"/>
      <point x="128" y="581"/>
      <point x="114" y="599" type="curve" smooth="yes"/>
      <point x="104" y="612"/>
      <point x="75" y="618"/>
      <point x="64" y="618" type="curve" smooth="yes"/>
      <point x="62" y="618"/>
      <point x="68" y="644"/>
      <point x="70" y="646" type="curve"/>
      <point x="111" y="644"/>
      <point x="126" y="642"/>
    </contour>
  </outline>
</glyph>
<glyph name="X" format="2">
  <advance width="605"/>
  <unicode hex="0058"/>
  <outline>
    <contour>
      <point x="219" y="642" type="curve" smooth="yes"/>
      <point x="264" y="642"/>
      <point x="299" y="644"/>
      <point x="336" y="646" type="curve"/>
      <point x="337" y="640"/>
      <point x="334" y="618"/>
      <point x="329" y="618" type="curve" smooth="yes"/>
      <point x="316" y="618"/>
      <point x="274" y="612"/>
      <point x="269" y="587" type="curve" smooth="yes"/>
      <point x="267" y="579"/>
      <point x="269" y="570"/>
      <point x="274" y="558" type="curve" smooth="yes"/>
      <point x="346" y="383" type="line"/>
      <point x="415" y="461"/>
      <point x="495" y="551"/>
      <point x="514" y="578" type="curve" smooth="yes"/>
      <point x="516" y="581"/>
      <point x="521" y="588"/>
      <point x="522" y="594" type="curve" smooth="yes"/>
      <point x="523" y="600"/>
      <point x="513" y="617"/>
      <point x="462" y="617" type="curve"/>
      <point x="458" y="618"/>
      <point x="462" y="639"/>
      <point x="466" y="646" type="curve"/>
      <point x="502" y="643"/>
      <point x="530" y="641"/>
      <point x="563" y="641" type="curve" smooth="yes"/>
      <point x="610" y="641"/>
      <point x="641" y="644"/>
      <point x="663" y="646" type="curve"/>
      <point x="665" y="641"/>
      <point x="663" y="623"/>
      <point x="656" y="617" type="curve"/>
      <point x="649" y="617"/>
      <point x="600" y="613"/>
      <point x="568" y="578" type="curve" smooth="yes"/>
      <point x="360" y="353" type="line"/>
      <point x="480" y="64" type="line" smooth="yes"/>
      <point x="492" y="36"/>
      <point x="531" y="25"/>
      <point x="561" y="25" type="curve"/>
      <point x="564" y="20"/>
      <point x="557" y="-1"/>
      <point x="556" y="-3" type="curve"/>
      <point x="520" y="-1"/>
      <point x="501" y="2"/>
      <point x="464" y="2" type="curve" smooth="yes"/>
      <point x="413" y="2"/>
      <point x="381" y="-1"/>
      <point x="330" y="-3" type="curve"/>
      <point x="326" y="2"/>
      <point x="330" y="25"/>
      <point x="335" y="25" type="curve" smooth="yes"/>
      <point x="345" y="25"/>
      <point x="390" y="34"/>
      <point x="394" y="53" type="curve" smooth="yes"/>
      <point x="395" y="56"/>
      <point x="393" y="61"/>
      <point x="392" y="64" type="curve" smooth="yes"/>
      <point x="298" y="293" type="line"/>
      <point x="229" y="215"/>
      <point x="125" y="90"/>
      <point x="104" y="64" type="curve" smooth="yes"/>
      <point x="102" y="61"/>
      <point x="97" y="55"/>
      <point x="96" y="49" type="curve" smooth="yes"/>
      <point x="95" y="43"/>
      <point x="110" y="25"/>
      <point x="161" y="25" type="curve"/>
      <point x="164" y="19"/>
      <point x="159" y="0"/>
      <point x="157" y="-3" type="curve"/>
      <point x="124" y="-1"/>
      <point x="88" y="2"/>
      <point x="55" y="2" type="curve" smooth="yes"/>
      <point x="8" y="2"/>
      <point x="-20" y="-1"/>
      <point x="-57" y="-3" type="curve"/>
      <point x="-59" y="3"/>
      <point x="-52" y="22"/>
      <point x="-50" y="25" type="curve"/>
      <point x="-43" y="25"/>
      <point x="19" y="29"/>
      <point x="51" y="64" type="curve" smooth="yes"/>
      <point x="283" y="324" type="line"/>
      <point x="196" y="535" type="line" smooth="yes"/>
      <point x="182" y="570"/>
      <point x="171" y="587"/>
      <point x="149" y="603" type="curve" smooth="yes"/>
      <point x="135" y="613"/>
      <point x="112" y="618"/>
      <point x="101" y="618" type="curve" smooth="yes"/>
      <point x="96" y="618"/>
      <point x="101" y="641"/>
      <point x="107" y="646" type="curve"/>
      <point x="151" y="644"/>
      <point x="174" y="642"/>
    </contour>
  </outline>
</glyph>
<glyph name="asciicircum" format="2">
	<unicode hex="005E"/>
	<advance width="380"/>
	<outline>
		<contour>
			<point x="182" y="630" type="curve" smooth="yes"/>
			<point x="187" y="630"/>
			<point x="193" y="625"/>
			<point x="197" y="617" type="curve" smooth="yes"/>
			<point x="236" y="540"/>
			<point x="262" y="502"/>
			<point x="304" y="429" type="curve"/>
			<point x="304" y="419"/>
			<point x="295" y="413"/>
			<point x="289" y="413" type="curve"/>
			<point x="244" y="460"/>
			<point x="182" y="539"/>
			<point x="182" y="539" type="curve"/>
			<point x="182" y="539"/>
			<point x="120" y="460"/>
			<point x="75" y="413" type="curve"/>
			<point x="69" y="413"/>
			<point x="60" y="419"/>
			<point x="60" y="429" type="curve"/>
			<point x="102" y="502"/>
			<point x="128" y="540"/>
			<point x="167" y="617" type="curve" smooth="yes"/>
			<point x="171" y="625"/>
			<point x="177" y="630"/>
		</contour>
	</outline>
</glyph>
<glyph name="a" format="2">
	<unicode hex="0061"/>
	<advance width="438"/>
	<outline>
		<contour>
			<point x="298" y="425" type="curve" smooth="yes"/>
			<point x="332" y="425"/>
			<point x="355" y="419"/>
			<point x="374" y="412" type="curve"/>
			<point x="314" y="104" type="line" smooth="yes"/>
			<point x="311" y="93"/>
			<point x="304" y="48"/>
			<point x="320" y="48" type="curve" smooth="yes"/>
			<point x="341" y="48"/>
			<point x="386" y="101"/>
			<point x="389" y="104" type="curve"/>
			<point x="392" y="104"/>
			<point x="398" y="92"/>
			<point x="398" y="86" type="curve"/>
			<point x="387" y="67"/>
			<point x="317" y="-6"/>
			<point x="271" y="-6" type="curve" smooth="yes"/>
			<point x="250" y="-6"/>
			<point x="237" y="16"/>
			<point x="237" y="45" type="curve" smooth="yes"/>
			<point x="237" y="53"/>
			<point x="240" y="76"/>
			<point x="244" y="97" type="curve" smooth="yes"/>
			<point x="247" y="115"/>
			<point x="248" y="120"/>
			<point x="249" y="127" type="curve"/>
			<point x="229" y="92"/>
			<point x="162" y="-5"/>
			<point x="105" y="-5" type="curve" smooth="yes"/>
			<point x="52" y="-5"/>
			<point x="19" y="42"/>
			<point x="19" y="110" type="curve" smooth="yes"/>
			<point x="19" y="280"/>
			<point x="179" y="425"/>
		</contour>
		<contour>
			<point x="253" y="386" type="curve" smooth="yes"/>
			<point x="178" y="386"/>
			<point x="91" y="259"/>
			<point x="91" y="147" type="curve" smooth="yes"/>
			<point x="91" y="86"/>
			<point x="107" y="52"/>
			<point x="141" y="52" type="curve" smooth="yes"/>
			<point x="190" y="52"/>
			<point x="258" y="174"/>
			<point x="277" y="268" type="curve" smooth="yes"/>
			<point x="298" y="371" type="line"/>
			<point x="289" y="381"/>
			<point x="266" y="386"/>
		</contour>
	</outline>
</glyph>
<glyph name="c" format="2">
  <advance width="350"/>
  <unicode hex="0063"/>
  <outline>
    <contour>
      <point x="269" y="425" type="curve" smooth="yes"/>
      <point x="300" y="425"/>
      <point x="316" y="411"/>
      <point x="329" y="400" type="curve"/>
      <point x="332" y="396"/>
      <point x="338" y="385"/>
      <point x="338" y="374" type="curve" smooth="yes"/>
      <point x="338" y="352"/>
      <point x="327" y="330"/>
      <point x="305" y="330" type="curve" smooth="yes"/>
      <point x="291" y="330"/>
      <point x="277" y="338"/>
      <point x="270" y="350" type="curve" smooth="yes"/>
      <point x="260" y="366"/>
      <point x="247" y="385"/>
      <point x="219" y="385" type="curve" smooth="yes"/>
      <point x="165" y="385"/>
      <point x="100" y="289"/>
      <point x="100" y="158" type="curve" smooth="yes"/>
      <point x="100" y="124"/>
      <point x="105" y="52"/>
      <point x="167" y="52" type="curve" smooth="yes"/>
      <point x="211" y="52"/>
      <point x="265" y="116"/>
      <point x="268" y="119" type="curve"/>
      <point x="271" y="119"/>
      <point x="279" y="106"/>
      <point x="279" y="100" type="curve"/>
      <point x="268" y="81"/>
      <point x="194" y="-6"/>
      <point x="132" y="-6" type="curve" smooth="yes"/>
      <point x="63" y="-6"/>
      <point x="23" y="46"/>
      <point x="23" y="137" type="curve" smooth="yes"/>
      <point x="23" y="293"/>
      <point x="168" y="425"/>
    </contour>
  </outline>
</glyph>
<glyph name="e" format="2">
  <advance width="354"/>
  <unicode hex="0065"/>
  <outline>
    <contour>
      <point x="268" y="425" type="curve" smooth="yes"/>
      <point x="318" y="425"/>
      <point x="332" y="393"/>
      <point x="332" y="364" type="curve" smooth="yes"/>
      <point x="332" y="270"/>
      <point x="162" y="188"/>
      <point x="101" y="188" type="curve"/>
      <point x="100" y="185"/>
      <point x="99" y="162"/>
      <point x="99" y="157" type="curve" smooth="yes"/>
      <point x="99" y="97"/>
      <point x="117" y="52"/>
      <point x="166" y="52" type="curve" smooth="yes"/>
      <point x="210" y="52"/>
      <point x="264" y="116"/>
      <point x="267" y="119" type="curve"/>
      <point x="270" y="119"/>
      <point x="278" y="106"/>
      <point x="278" y="100" type="curve"/>
      <point x="265" y="79"/>
      <point x="192" y="-6"/>
      <point x="130" y="-6" type="curve" smooth="yes"/>
      <point x="61" y="-6"/>
      <point x="22" y="45"/>
      <point x="22" y="136" type="curve" smooth="yes"/>
      <point x="22" y="281"/>
      <point x="156" y="425"/>
    </contour>
    <contour>
      <point x="103" y="213" type="curve"/>
      <point x="141" y="213"/>
      <point x="260" y="274"/>
      <point x="260" y="346" type="curve" smooth="yes"/>
      <point x="260" y="372"/>
      <point x="238" y="385"/>
      <point x="219" y="385" type="curve" smooth="yes"/>
      <point x="152" y="385"/>
      <point x="108" y="263"/>
    </contour>
  </outline>
</glyph>
<glyph name="f" format="2">
	<unicode hex="0066"/>
	<advance width="289"/>
	<outline>
		<contour>
			<point x="328" y="669" type="curve" smooth="yes"/>
			<point x="356" y="669"/>
			<point x="374" y="658"/>
			<point x="381" y="645" type="curve"/>
			<point x="381" y="642"/>
			<point x="381" y="639"/>
			<point x="381" y="636" type="curve" smooth="yes"/>
			<point x="379" y="614"/>
			<point x="371" y="590"/>
			<point x="352" y="590" type="curve" smooth="yes"/>
			<point x="335" y="590"/>
			<point x="325" y="600"/>
			<point x="314" y="612" type="curve" smooth="yes"/>
			<point x="307" y="619"/>
			<point x="300" y="627"/>
			<point x="286" y="627" type="curve" smooth="yes"/>
			<point x="248" y="627"/>
			<point x="228" y="558"/>
			<point x="198" y="403" type="curve"/>
			<point x="296" y="403" type="line" smooth="yes"/>
			<point x="300" y="403"/>
			<point x="301" y="397"/>
			<point x="301" y="392" type="curve" smooth="yes"/>
			<point x="301" y="382"/>
			<point x="297" y="375"/>
			<point x="292" y="367" type="curve"/>
			<point x="191" y="367" type="line"/>
			<point x="191" y="367"/>
			<point x="157" y="165"/>
			<point x="134" y="42" type="curve" smooth="yes"/>
			<point x="103" y="-118"/>
			<point x="10" y="-228"/>
			<point x="-68" y="-228" type="curve" smooth="yes"/>
			<point x="-96" y="-228"/>
			<point x="-114" y="-216"/>
			<point x="-121" y="-203" type="curve"/>
			<point x="-121" y="-198"/>
			<point x="-121" y="-193"/>
			<point x="-120" y="-188" type="curve" smooth="yes"/>
			<point x="-117" y="-168"/>
			<point x="-109" y="-148"/>
			<point x="-92" y="-148" type="curve" smooth="yes"/>
			<point x="-75" y="-148"/>
			<point x="-66" y="-159"/>
			<point x="-55" y="-171" type="curve" smooth="yes"/>
			<point x="-48" y="-178"/>
			<point x="-40" y="-186"/>
			<point x="-26" y="-186" type="curve" smooth="yes"/>
			<point x="12" y="-186"/>
			<point x="32" y="-117"/>
			<point x="62" y="38" type="curve"/>
			<point x="120" y="367" type="line"/>
			<point x="37" y="367" type="line" smooth="yes"/>
			<point x="36" y="367"/>
			<point x="35" y="368"/>
			<point x="35" y="370" type="curve" smooth="yes"/>
			<point x="35" y="380"/>
			<point x="58" y="403"/>
			<point x="80" y="403" type="curve" smooth="yes"/>
			<point x="126" y="403" type="line"/>
			<point x="157" y="563"/>
			<point x="250" y="669"/>
		</contour>
	</outline>
</glyph>
<glyph name="g" format="2">
  <advance width="402"/>
  <unicode hex="0067"/>
  <outline>
    <contour>
      <point x="271" y="-115" type="curve" smooth="yes"/>
      <point x="271" y="-53"/>
      <point x="181" y="-24"/>
      <point x="124" y="-6" type="curve"/>
      <point x="85" y="-23"/>
      <point x="25" y="-52"/>
      <point x="25" y="-107" type="curve" smooth="yes"/>
      <point x="25" y="-172"/>
      <point x="89" y="-193"/>
      <point x="165" y="-193" type="curve" smooth="yes"/>
      <point x="230" y="-193"/>
      <point x="271" y="-156"/>
    </contour>
    <contour>
      <point x="207" y="397" type="curve" smooth="yes"/>
      <point x="145" y="397"/>
      <point x="111" y="308"/>
      <point x="111" y="241" type="curve" smooth="yes"/>
      <point x="111" y="193"/>
      <point x="131" y="147"/>
      <point x="172" y="147" type="curve" smooth="yes"/>
      <point x="235" y="147"/>
      <point x="267" y="226"/>
      <point x="267" y="287" type="curve" smooth="yes"/>
      <point x="267" y="335"/>
      <point x="245" y="397"/>
    </contour>
    <contour>
      <point x="325" y="372" type="curve"/>
      <point x="326" y="366"/>
      <point x="339" y="331"/>
      <point x="339" y="305" type="curve" smooth="yes"/>
      <point x="339" y="201"/>
      <point x="270" y="154"/>
      <point x="250" y="142" type="curve" smooth="yes"/>
      <point x="216" y="121"/>
      <point x="138" y="102"/>
      <point x="138" y="80" type="curve" smooth="yes"/>
      <point x="138" y="48"/>
      <point x="334" y="38"/>
      <point x="334" y="-76" type="curve" smooth="yes"/>
      <point x="334" y="-169"/>
      <point x="245" y="-228"/>
      <point x="105" y="-228" type="curve" smooth="yes"/>
      <point x="17" y="-228"/>
      <point x="-47" y="-193"/>
      <point x="-47" y="-132" type="curve" smooth="yes"/>
      <point x="-47" y="-65"/>
      <point x="36" y="-20"/>
      <point x="94" y="6" type="curve"/>
      <point x="76" y="18" type="line" smooth="yes"/>
      <point x="64" y="26"/>
      <point x="52" y="35"/>
      <point x="52" y="53" type="curve" smooth="yes"/>
      <point x="52" y="77"/>
      <point x="117" y="111"/>
      <point x="149" y="119" type="curve"/>
      <point x="118" y="119"/>
      <point x="39" y="156"/>
      <point x="39" y="233" type="curve" smooth="yes"/>
      <point x="39" y="343"/>
      <point x="133" y="426"/>
      <point x="224" y="426" type="curve" smooth="yes"/>
      <point x="261" y="426"/>
      <point x="283" y="416"/>
      <point x="307" y="404" type="curve" smooth="yes"/>
      <point x="321" y="397"/>
      <point x="355" y="417"/>
      <point x="368" y="419" type="curve"/>
      <point x="381" y="415"/>
      <point x="408" y="398"/>
      <point x="408" y="385" type="curve" smooth="yes"/>
      <point x="408" y="378"/>
      <point x="404" y="371"/>
      <point x="396" y="371" type="curve" smooth="yes"/>
      <point x="382" y="371"/>
      <point x="338" y="373"/>
    </contour>
  </outline>
</glyph>
<glyph name="h" format="2">
  <advance width="458"/>
  <unicode hex="0068"/>
  <outline>
    <contour>
      <point x="202" y="577" type="curve" smooth="yes"/>
      <point x="152" y="322" type="line"/>
      <point x="135" y="232" type="line"/>
      <point x="148" y="256"/>
      <point x="265" y="425"/>
      <point x="329" y="425" type="curve" smooth="yes"/>
      <point x="367" y="425"/>
      <point x="383" y="397"/>
      <point x="383" y="360" type="curve" smooth="yes"/>
      <point x="383" y="327"/>
      <point x="377" y="291"/>
      <point x="369" y="254" type="curve" smooth="yes"/>
      <point x="337" y="104" type="line" smooth="yes"/>
      <point x="336" y="100"/>
      <point x="333" y="77"/>
      <point x="333" y="72" type="curve" smooth="yes"/>
      <point x="333" y="63"/>
      <point x="333" y="48"/>
      <point x="343" y="48" type="curve" smooth="yes"/>
      <point x="364" y="48"/>
      <point x="408" y="101"/>
      <point x="411" y="104" type="curve"/>
      <point x="414" y="104"/>
      <point x="421" y="92"/>
      <point x="421" y="86" type="curve"/>
      <point x="410" y="67"/>
      <point x="339" y="-6"/>
      <point x="293" y="-6" type="curve" smooth="yes"/>
      <point x="272" y="-6"/>
      <point x="260" y="16"/>
      <point x="260" y="45" type="curve" smooth="yes"/>
      <point x="260" y="53"/>
      <point x="262" y="76"/>
      <point x="267" y="97" type="curve" smooth="yes"/>
      <point x="301" y="258" type="line" smooth="yes"/>
      <point x="303" y="267"/>
      <point x="308" y="300"/>
      <point x="308" y="311" type="curve" smooth="yes"/>
      <point x="308" y="333"/>
      <point x="306" y="353"/>
      <point x="289" y="353" type="curve" smooth="yes"/>
      <point x="254" y="353"/>
      <point x="136" y="230"/>
      <point x="114" y="116" type="curve" smooth="yes"/>
      <point x="108" y="86"/>
      <point x="100" y="45"/>
      <point x="90" y="0" type="curve"/>
      <point x="80" y="-3"/>
      <point x="65" y="-4"/>
      <point x="55" y="-4" type="curve" smooth="yes"/>
      <point x="45" y="-4"/>
      <point x="33" y="-3"/>
      <point x="21" y="0" type="curve"/>
      <point x="127" y="546" type="line" smooth="yes"/>
      <point x="130" y="564"/>
      <point x="136" y="587"/>
      <point x="136" y="598" type="curve" smooth="yes"/>
      <point x="136" y="617"/>
      <point x="92" y="616"/>
      <point x="76" y="616" type="curve"/>
      <point x="73" y="620"/>
      <point x="76" y="633"/>
      <point x="80" y="637" type="curve"/>
      <point x="134" y="642"/>
      <point x="188" y="661"/>
      <point x="209" y="669" type="curve"/>
      <point x="214" y="666"/>
      <point x="215" y="656"/>
      <point x="215" y="650" type="curve" smooth="yes"/>
      <point x="215" y="642"/>
      <point x="207" y="601"/>
    </contour>
  </outline>
</glyph>
<glyph name="j" format="2">
	<unicode hex="006A"/>
	<advance width="243"/>
	<outline>
		<contour>
			<point x="114" y="315" type="line" smooth="yes"/>
			<point x="115" y="321"/>
			<point x="118" y="342"/>
			<point x="118" y="347" type="curve" smooth="yes"/>
			<point x="118" y="356"/>
			<point x="118" y="371"/>
			<point x="108" y="371" type="curve" smooth="yes"/>
			<point x="87" y="371"/>
			<point x="43" y="317"/>
			<point x="40" y="314" type="curve"/>
			<point x="37" y="314"/>
			<point x="30" y="327"/>
			<point x="30" y="333" type="curve"/>
			<point x="41" y="352"/>
			<point x="107" y="425"/>
			<point x="153" y="425" type="curve" smooth="yes"/>
			<point x="174" y="425"/>
			<point x="191" y="403"/>
			<point x="191" y="374" type="curve" smooth="yes"/>
			<point x="191" y="366"/>
			<point x="189" y="343"/>
			<point x="185" y="322" type="curve" smooth="yes"/>
			<point x="131" y="44" type="line" smooth="yes"/>
			<point x="124" y="9"/>
			<point x="104" y="-65"/>
			<point x="62" y="-121" type="curve" smooth="yes"/>
			<point x="21" y="-175"/>
			<point x="-40" y="-215"/>
			<point x="-74" y="-229" type="curve"/>
			<point x="-78" y="-226"/>
			<point x="-83" y="-217"/>
			<point x="-83" y="-210" type="curve"/>
			<point x="-18" y="-173"/>
			<point x="35" y="-87"/>
			<point x="56" y="21" type="curve" smooth="yes"/>
		</contour>
		<contour>
			<point x="181" y="631" type="curve" smooth="yes"/>
			<point x="202" y="631"/>
			<point x="216" y="613"/>
			<point x="216" y="592" type="curve" smooth="yes"/>
			<point x="216" y="562"/>
			<point x="193" y="533"/>
			<point x="163" y="533" type="curve" smooth="yes"/>
			<point x="142" y="533"/>
			<point x="130" y="554"/>
			<point x="130" y="575" type="curve" smooth="yes"/>
			<point x="130" y="604"/>
			<point x="152" y="631"/>
		</contour>
	</outline>
</glyph>
<glyph name="k" format="2">
	<unicode hex="006B"/>
	<advance width="449"/>
	<outline>
		<contour>
			<point x="317" y="425" type="curve" smooth="yes"/>
			<point x="355" y="425"/>
			<point x="391" y="396"/>
			<point x="391" y="358" type="curve" smooth="yes"/>
			<point x="391" y="269"/>
			<point x="293" y="225"/>
			<point x="185" y="206" type="curve"/>
			<point x="271" y="77"/>
			<point x="298" y="50"/>
			<point x="338" y="50" type="curve" smooth="yes"/>
			<point x="355" y="50"/>
			<point x="393" y="90"/>
			<point x="404" y="104" type="curve"/>
			<point x="407" y="104"/>
			<point x="414" y="91"/>
			<point x="414" y="86" type="curve"/>
			<point x="406" y="72"/>
			<point x="338" y="-4"/>
			<point x="295" y="-4" type="curve" smooth="yes"/>
			<point x="218" y="-4"/>
			<point x="169" y="117"/>
			<point x="127" y="187" type="curve"/>
			<point x="91" y="0" type="line"/>
			<point x="80" y="-3"/>
			<point x="68" y="-5"/>
			<point x="57" y="-5" type="curve" smooth="yes"/>
			<point x="46" y="-5"/>
			<point x="33" y="-3"/>
			<point x="21" y="0" type="curve"/>
			<point x="128" y="546" type="line" smooth="yes"/>
			<point x="132" y="564"/>
			<point x="137" y="587"/>
			<point x="137" y="598" type="curve" smooth="yes"/>
			<point x="137" y="617"/>
			<point x="93" y="616"/>
			<point x="77" y="616" type="curve"/>
			<point x="74" y="620"/>
			<point x="77" y="633"/>
			<point x="81" y="637" type="curve"/>
			<point x="135" y="642"/>
			<point x="189" y="661"/>
			<point x="210" y="669" type="curve"/>
			<point x="215" y="666"/>
			<point x="216" y="656"/>
			<point x="216" y="650" type="curve" smooth="yes"/>
			<point x="216" y="642"/>
			<point x="208" y="601"/>
			<point x="203" y="577" type="curve" smooth="yes"/>
			<point x="152" y="314" type="line"/>
			<point x="157" y="318"/>
			<point x="233" y="425"/>
		</contour>
		<contour>
			<point x="282" y="379" type="curve" smooth="yes"/>
			<point x="225" y="379"/>
			<point x="147" y="285"/>
			<point x="135" y="225" type="curve"/>
			<point x="200" y="225"/>
			<point x="314" y="265"/>
			<point x="314" y="346" type="curve" smooth="yes"/>
			<point x="314" y="364"/>
			<point x="309" y="379"/>
		</contour>
	</outline>
</glyph>
<glyph name="l" format="2">
  <advance width="237"/>
  <unicode hex="006C"/>
  <outline>
    <contour>
      <point x="131" y="546" type="line" smooth="yes"/>
      <point x="135" y="564"/>
      <point x="140" y="587"/>
      <point x="140" y="598" type="curve" smooth="yes"/>
      <point x="140" y="617"/>
      <point x="96" y="616"/>
      <point x="80" y="616" type="curve"/>
      <point x="77" y="620"/>
      <point x="80" y="633"/>
      <point x="84" y="637" type="curve"/>
      <point x="138" y="642"/>
      <point x="192" y="661"/>
      <point x="213" y="669" type="curve"/>
      <point x="218" y="666"/>
      <point x="219" y="656"/>
      <point x="219" y="650" type="curve" smooth="yes"/>
      <point x="219" y="642"/>
      <point x="211" y="601"/>
      <point x="206" y="577" type="curve" smooth="yes"/>
      <point x="113" y="104" type="line" smooth="yes"/>
      <point x="112" y="100"/>
      <point x="109" y="77"/>
      <point x="109" y="72" type="curve" smooth="yes"/>
      <point x="109" y="63"/>
      <point x="109" y="48"/>
      <point x="119" y="48" type="curve" smooth="yes"/>
      <point x="140" y="48"/>
      <point x="185" y="101"/>
      <point x="188" y="104" type="curve"/>
      <point x="191" y="104"/>
      <point x="197" y="92"/>
      <point x="197" y="86" type="curve"/>
      <point x="186" y="67"/>
      <point x="115" y="-6"/>
      <point x="69" y="-6" type="curve" smooth="yes"/>
      <point x="48" y="-6"/>
      <point x="36" y="16"/>
      <point x="36" y="45" type="curve" smooth="yes"/>
      <point x="36" y="53"/>
      <point x="39" y="76"/>
      <point x="43" y="97" type="curve" smooth="yes"/>
    </contour>
  </outline>
</glyph>
<glyph name="n" format="2">
  <advance width="485"/>
  <unicode hex="006E"/>
  <outline>
    <contour>
      <point x="175" y="322" type="curve" smooth="yes"/>
      <point x="157" y="240" type="line"/>
      <point x="170" y="264"/>
      <point x="284" y="425"/>
      <point x="349" y="425" type="curve" smooth="yes"/>
      <point x="394" y="425"/>
      <point x="409" y="400"/>
      <point x="409" y="360" type="curve" smooth="yes"/>
      <point x="409" y="330"/>
      <point x="403" y="287"/>
      <point x="396" y="254" type="curve" smooth="yes"/>
      <point x="363" y="104" type="line" smooth="yes"/>
      <point x="361" y="94"/>
      <point x="359" y="77"/>
      <point x="359" y="72" type="curve" smooth="yes"/>
      <point x="359" y="63"/>
      <point x="359" y="48"/>
      <point x="369" y="48" type="curve" smooth="yes"/>
      <point x="390" y="48"/>
      <point x="435" y="101"/>
      <point x="438" y="104" type="curve"/>
      <point x="441" y="104"/>
      <point x="447" y="92"/>
      <point x="447" y="86" type="curve"/>
      <point x="436" y="67"/>
      <point x="365" y="-6"/>
      <point x="319" y="-6" type="curve" smooth="yes"/>
      <point x="298" y="-6"/>
      <point x="286" y="16"/>
      <point x="286" y="45" type="curve" smooth="yes"/>
      <point x="286" y="53"/>
      <point x="289" y="76"/>
      <point x="293" y="97" type="curve" smooth="yes"/>
      <point x="327" y="258" type="line" smooth="yes"/>
      <point x="329" y="267"/>
      <point x="334" y="300"/>
      <point x="334" y="311" type="curve" smooth="yes"/>
      <point x="334" y="336"/>
      <point x="333" y="353"/>
      <point x="315" y="353" type="curve" smooth="yes"/>
      <point x="279" y="353"/>
      <point x="158" y="241"/>
      <point x="135" y="119" type="curve" smooth="yes"/>
      <point x="126" y="72"/>
      <point x="120" y="47"/>
      <point x="110" y="0" type="curve"/>
      <point x="98" y="-3"/>
      <point x="89" y="-4"/>
      <point x="75" y="-4" type="curve" smooth="yes"/>
      <point x="61" y="-4"/>
      <point x="53" y="-3"/>
      <point x="41" y="0" type="curve"/>
      <point x="105" y="315" type="line" smooth="yes"/>
      <point x="106" y="321"/>
      <point x="109" y="342"/>
      <point x="109" y="347" type="curve" smooth="yes"/>
      <point x="109" y="356"/>
      <point x="110" y="371"/>
      <point x="100" y="371" type="curve" smooth="yes"/>
      <point x="79" y="371"/>
      <point x="34" y="317"/>
      <point x="31" y="314" type="curve"/>
      <point x="28" y="314"/>
      <point x="21" y="327"/>
      <point x="21" y="333" type="curve"/>
      <point x="32" y="352"/>
      <point x="99" y="425"/>
      <point x="145" y="425" type="curve" smooth="yes"/>
      <point x="166" y="425"/>
      <point x="183" y="403"/>
      <point x="183" y="374" type="curve" smooth="yes"/>
      <point x="183" y="366"/>
      <point x="180" y="343"/>
    </contour>
  </outline>
</glyph>
<glyph name="o" format="2">
	<unicode hex="006F"/>
	<advance width="404"/>
	<outline>
		<contour>
			<point x="231" y="394" type="curve" smooth="yes"/>
			<point x="149" y="394"/>
			<point x="100" y="252"/>
			<point x="100" y="154" type="curve" smooth="yes"/>
			<point x="100" y="76"/>
			<point x="120" y="26"/>
			<point x="155" y="26" type="curve" smooth="yes"/>
			<point x="236" y="26"/>
			<point x="283" y="169"/>
			<point x="283" y="267" type="curve" smooth="yes"/>
			<point x="283" y="345"/>
			<point x="266" y="394"/>
		</contour>
		<contour>
			<point x="245" y="425" type="curve" smooth="yes"/>
			<point x="323" y="425"/>
			<point x="359" y="365"/>
			<point x="359" y="281" type="curve" smooth="yes"/>
			<point x="359" y="144"/>
			<point x="249" y="-5"/>
			<point x="137" y="-5" type="curve" smooth="yes"/>
			<point x="59" y="-5"/>
			<point x="23" y="51"/>
			<point x="23" y="135" type="curve" smooth="yes"/>
			<point x="23" y="272"/>
			<point x="133" y="425"/>
		</contour>
	</outline>
</glyph>
<glyph name="p" format="2">
  <advance width="437"/>
  <unicode hex="0070"/>
  <outline>
    <contour>
      <point x="274" y="371" type="curve" smooth="yes"/>
      <point x="242" y="371"/>
      <point x="184" y="330"/>
      <point x="158" y="293" type="curve"/>
      <point x="126" y="128" type="line" smooth="yes"/>
      <point x="115" y="70"/>
      <point x="143" y="29"/>
      <point x="172" y="29" type="curve" smooth="yes"/>
      <point x="255" y="29"/>
      <point x="325" y="180"/>
      <point x="325" y="296" type="curve" smooth="yes"/>
      <point x="325" y="350"/>
      <point x="305" y="371"/>
    </contour>
    <contour>
      <point x="313" y="425" type="curve" smooth="yes"/>
      <point x="375" y="425"/>
      <point x="398" y="375"/>
      <point x="398" y="307" type="curve" smooth="yes"/>
      <point x="398" y="156"/>
      <point x="271" y="-5"/>
      <point x="152" y="-5" type="curve" smooth="yes"/>
      <point x="135" y="-5"/>
      <point x="113" y="-2"/>
      <point x="107" y="8" type="curve"/>
      <point x="74" y="-142" type="line" smooth="yes"/>
      <point x="72" y="-151"/>
      <point x="72" y="-159"/>
      <point x="72" y="-169" type="curve" smooth="yes"/>
      <point x="72" y="-174"/>
      <point x="75" y="-188"/>
      <point x="85" y="-191" type="curve" smooth="yes"/>
      <point x="102" y="-195"/>
      <point x="128" y="-194"/>
      <point x="131" y="-194" type="curve" smooth="yes"/>
      <point x="135" y="-195"/>
      <point x="133" y="-220"/>
      <point x="128" y="-222" type="curve"/>
      <point x="115" y="-222"/>
      <point x="105" y="-221"/>
      <point x="94" y="-221" type="curve" smooth="yes"/>
      <point x="44" y="-221"/>
      <point x="6" y="-222"/>
      <point x="-51" y="-229" type="curve"/>
      <point x="-56" y="-228"/>
      <point x="-55" y="-204"/>
      <point x="-50" y="-201" type="curve"/>
      <point x="-32" y="-201"/>
      <point x="-19" y="-197"/>
      <point x="-10" y="-186" type="curve" smooth="yes"/>
      <point x="-3" y="-177"/>
      <point x="0" y="-166"/>
      <point x="5" y="-144" type="curve" smooth="yes"/>
      <point x="82" y="244" type="line"/>
      <point x="35" y="197" type="line"/>
      <point x="31" y="202"/>
      <point x="30" y="212"/>
      <point x="30" y="217" type="curve" smooth="yes"/>
      <point x="30" y="221"/>
      <point x="32" y="223"/>
      <point x="33" y="224" type="curve" smooth="yes"/>
      <point x="90" y="285" type="line"/>
      <point x="116" y="423" type="line"/>
      <point x="127" y="426"/>
      <point x="142" y="427"/>
      <point x="153" y="427" type="curve" smooth="yes"/>
      <point x="164" y="427"/>
      <point x="174" y="425"/>
      <point x="184" y="420" type="curve"/>
      <point x="180" y="401"/>
      <point x="169" y="345"/>
      <point x="168" y="338" type="curve"/>
      <point x="194" y="362"/>
      <point x="263" y="425"/>
    </contour>
  </outline>
</glyph>
<glyph name="r" format="2">
  <advance width="347"/>
  <unicode hex="0072"/>
  <outline>
    <contour>
      <point x="300" y="425" type="curve" smooth="yes"/>
      <point x="321" y="425"/>
      <point x="339" y="414"/>
      <point x="348" y="404" type="curve" smooth="yes"/>
      <point x="352" y="399"/>
      <point x="356" y="387"/>
      <point x="356" y="377" type="curve" smooth="yes"/>
      <point x="356" y="352"/>
      <point x="343" y="334"/>
      <point x="321" y="334" type="curve" smooth="yes"/>
      <point x="312" y="334"/>
      <point x="300" y="340"/>
      <point x="292" y="349" type="curve" smooth="yes"/>
      <point x="288" y="354"/>
      <point x="280" y="356"/>
      <point x="272" y="356" type="curve" smooth="yes"/>
      <point x="237" y="356"/>
      <point x="156" y="221"/>
      <point x="137" y="119" type="curve" smooth="yes"/>
      <point x="115" y="0" type="line"/>
      <point x="104" y="-2"/>
      <point x="93" y="-3"/>
      <point x="82" y="-3" type="curve" smooth="yes"/>
      <point x="69" y="-3"/>
      <point x="58" y="-2"/>
      <point x="46" y="0" type="curve"/>
      <point x="104" y="315" type="line" smooth="yes"/>
      <point x="105" y="321"/>
      <point x="108" y="342"/>
      <point x="108" y="347" type="curve" smooth="yes"/>
      <point x="108" y="356"/>
      <point x="109" y="371"/>
      <point x="99" y="371" type="curve" smooth="yes"/>
      <point x="78" y="371"/>
      <point x="33" y="317"/>
      <point x="30" y="314" type="curve"/>
      <point x="27" y="314"/>
      <point x="21" y="327"/>
      <point x="21" y="333" type="curve"/>
      <point x="32" y="352"/>
      <point x="98" y="425"/>
      <point x="144" y="425" type="curve" smooth="yes"/>
      <point x="165" y="425"/>
      <point x="182" y="403"/>
      <point x="182" y="374" type="curve" smooth="yes"/>
      <point x="182" y="366"/>
      <point x="178" y="343"/>
      <point x="174" y="322" type="curve" smooth="yes"/>
      <point x="168" y="290"/>
      <point x="164" y="272"/>
      <point x="157" y="240" type="curve"/>
      <point x="184" y="305"/>
      <point x="254" y="425"/>
    </contour>
  </outline>
</glyph>
<glyph name="s" format="2">
  <advance width="314"/>
  <unicode hex="0073"/>
  <outline>
    <contour>
      <point x="194" y="428" type="curve" smooth="yes"/>
      <point x="233" y="428"/>
      <point x="257" y="419"/>
      <point x="278" y="401" type="curve"/>
      <point x="283" y="394"/>
      <point x="288" y="377"/>
      <point x="288" y="370" type="curve" smooth="yes"/>
      <point x="288" y="348"/>
      <point x="275" y="330"/>
      <point x="255" y="330" type="curve" smooth="yes"/>
      <point x="237" y="330"/>
      <point x="222" y="346"/>
      <point x="209" y="364" type="curve" smooth="yes"/>
      <point x="198" y="380"/>
      <point x="191" y="395"/>
      <point x="163" y="395" type="curve" smooth="yes"/>
      <point x="129" y="395"/>
      <point x="115" y="361"/>
      <point x="115" y="340" type="curve" smooth="yes"/>
      <point x="115" y="301"/>
      <point x="150" y="270"/>
      <point x="180" y="236" type="curve" smooth="yes"/>
      <point x="210" y="201"/>
      <point x="239" y="163"/>
      <point x="239" y="114" type="curve" smooth="yes"/>
      <point x="239" y="42"/>
      <point x="180" y="-6"/>
      <point x="98" y="-6" type="curve" smooth="yes"/>
      <point x="68" y="-6"/>
      <point x="37" y="2"/>
      <point x="12" y="23" type="curve"/>
      <point x="9" y="28"/>
      <point x="2" y="43"/>
      <point x="2" y="53" type="curve" smooth="yes"/>
      <point x="2" y="81"/>
      <point x="18" y="98"/>
      <point x="38" y="98" type="curve" smooth="yes"/>
      <point x="58" y="98"/>
      <point x="65" y="75"/>
      <point x="80" y="54" type="curve" smooth="yes"/>
      <point x="91" y="39"/>
      <point x="106" y="25"/>
      <point x="132" y="25" type="curve" smooth="yes"/>
      <point x="171" y="25"/>
      <point x="180" y="61"/>
      <point x="180" y="82" type="curve" smooth="yes"/>
      <point x="180" y="116"/>
      <point x="154" y="143"/>
      <point x="129" y="172" type="curve" smooth="yes"/>
      <point x="95" y="210"/>
      <point x="59" y="249"/>
      <point x="59" y="305" type="curve" smooth="yes"/>
      <point x="59" y="360"/>
      <point x="112" y="428"/>
    </contour>
  </outline>
</glyph>
<glyph name="t" format="2">
	<unicode hex="0074"/>
	<advance width="271"/>
	<outline>
		<contour>
			<point x="114" y="403" type="line"/>
			<point x="125" y="461" type="line"/>
			<point x="136" y="475"/>
			<point x="180" y="525"/>
			<point x="188" y="525" type="curve" smooth="yes"/>
			<point x="194" y="525"/>
			<point x="201" y="523"/>
			<point x="205" y="520" type="curve"/>
			<point x="184" y="403" type="line"/>
			<point x="257" y="403" type="line" smooth="yes"/>
			<point x="261" y="403"/>
			<point x="262" y="397"/>
			<point x="262" y="392" type="curve" smooth="yes"/>
			<point x="262" y="382"/>
			<point x="258" y="375"/>
			<point x="253" y="367" type="curve"/>
			<point x="177" y="367" type="line"/>
			<point x="125" y="104" type="line" smooth="yes"/>
			<point x="123" y="94"/>
			<point x="121" y="77"/>
			<point x="121" y="72" type="curve" smooth="yes"/>
			<point x="121" y="63"/>
			<point x="121" y="48"/>
			<point x="131" y="48" type="curve" smooth="yes"/>
			<point x="152" y="48"/>
			<point x="196" y="101"/>
			<point x="199" y="104" type="curve"/>
			<point x="202" y="104"/>
			<point x="209" y="92"/>
			<point x="209" y="86" type="curve"/>
			<point x="198" y="67"/>
			<point x="127" y="-6"/>
			<point x="81" y="-6" type="curve" smooth="yes"/>
			<point x="60" y="-6"/>
			<point x="48" y="16"/>
			<point x="48" y="45" type="curve" smooth="yes"/>
			<point x="48" y="53"/>
			<point x="51" y="76"/>
			<point x="55" y="97" type="curve" smooth="yes"/>
			<point x="107" y="367" type="line"/>
			<point x="42" y="367" type="line" smooth="yes"/>
			<point x="41" y="367"/>
			<point x="40" y="368"/>
			<point x="40" y="370" type="curve" smooth="yes"/>
			<point x="40" y="380"/>
			<point x="63" y="403"/>
			<point x="85" y="403" type="curve" smooth="yes"/>
		</contour>
	</outline>
</glyph>
<glyph name="u" format="2">
  <advance width="479"/>
  <unicode hex="0075"/>
  <outline>
    <contour>
      <point x="285" y="97" type="curve" smooth="yes"/>
      <point x="291" y="130"/>
      <point x="296" y="149"/>
      <point x="303" y="182" type="curve"/>
      <point x="278" y="127"/>
      <point x="170" y="-6"/>
      <point x="106" y="-6" type="curve" smooth="yes"/>
      <point x="68" y="-6"/>
      <point x="58" y="27"/>
      <point x="58" y="64" type="curve" smooth="yes"/>
      <point x="58" y="91"/>
      <point x="65" y="137"/>
      <point x="71" y="165" type="curve" smooth="yes"/>
      <point x="104" y="315" type="line" smooth="yes"/>
      <point x="105" y="321"/>
      <point x="107" y="342"/>
      <point x="107" y="347" type="curve" smooth="yes"/>
      <point x="107" y="356"/>
      <point x="108" y="371"/>
      <point x="98" y="371" type="curve" smooth="yes"/>
      <point x="77" y="371"/>
      <point x="32" y="317"/>
      <point x="29" y="314" type="curve"/>
      <point x="26" y="314"/>
      <point x="20" y="327"/>
      <point x="20" y="333" type="curve"/>
      <point x="31" y="352"/>
      <point x="97" y="425"/>
      <point x="143" y="425" type="curve" smooth="yes"/>
      <point x="164" y="425"/>
      <point x="181" y="403"/>
      <point x="181" y="374" type="curve" smooth="yes"/>
      <point x="181" y="366"/>
      <point x="178" y="343"/>
      <point x="174" y="322" type="curve" smooth="yes"/>
      <point x="140" y="161" type="line" smooth="yes"/>
      <point x="138" y="152"/>
      <point x="133" y="119"/>
      <point x="133" y="108" type="curve" smooth="yes"/>
      <point x="133" y="86"/>
      <point x="134" y="66"/>
      <point x="151" y="66" type="curve" smooth="yes"/>
      <point x="186" y="66"/>
      <point x="302" y="190"/>
      <point x="326" y="312" type="curve" smooth="yes"/>
      <point x="334" y="352"/>
      <point x="340" y="378"/>
      <point x="348" y="419" type="curve"/>
      <point x="358" y="422"/>
      <point x="368" y="423"/>
      <point x="378" y="423" type="curve" smooth="yes"/>
      <point x="388" y="423"/>
      <point x="404" y="422"/>
      <point x="416" y="419" type="curve"/>
      <point x="355" y="104" type="line" smooth="yes"/>
      <point x="353" y="94"/>
      <point x="352" y="77"/>
      <point x="352" y="72" type="curve" smooth="yes"/>
      <point x="352" y="63"/>
      <point x="351" y="48"/>
      <point x="361" y="48" type="curve" smooth="yes"/>
      <point x="382" y="48"/>
      <point x="427" y="101"/>
      <point x="430" y="104" type="curve"/>
      <point x="433" y="104"/>
      <point x="439" y="92"/>
      <point x="439" y="86" type="curve"/>
      <point x="428" y="67"/>
      <point x="358" y="-6"/>
      <point x="312" y="-6" type="curve" smooth="yes"/>
      <point x="291" y="-6"/>
      <point x="278" y="16"/>
      <point x="278" y="45" type="curve" smooth="yes"/>
      <point x="278" y="53"/>
      <point x="281" y="76"/>
    </contour>
  </outline>
</glyph>
<glyph name="v" format="2">
  <advance width="428"/>
  <unicode hex="0076"/>
  <outline>
    <contour>
      <point x="182" y="63" type="curve"/>
      <point x="251" y="123"/>
      <point x="277" y="160"/>
      <point x="307" y="221" type="curve" smooth="yes"/>
      <point x="325" y="256"/>
      <point x="331" y="303"/>
      <point x="331" y="325" type="curve" smooth="yes"/>
      <point x="331" y="346"/>
      <point x="323" y="370"/>
      <point x="306" y="387" type="curve"/>
      <point x="312" y="404"/>
      <point x="329" y="425"/>
      <point x="352" y="425" type="curve" smooth="yes"/>
      <point x="389" y="425"/>
      <point x="405" y="392"/>
      <point x="405" y="347" type="curve" smooth="yes"/>
      <point x="405" y="224"/>
      <point x="179" y="-6"/>
      <point x="112" y="-6" type="curve"/>
      <point x="105" y="2"/>
      <point x="104" y="116"/>
      <point x="104" y="145" type="curve" smooth="yes"/>
      <point x="104" y="347" type="line" smooth="yes"/>
      <point x="104" y="356"/>
      <point x="105" y="371"/>
      <point x="95" y="371" type="curve" smooth="yes"/>
      <point x="74" y="371"/>
      <point x="29" y="317"/>
      <point x="26" y="314" type="curve"/>
      <point x="23" y="314"/>
      <point x="17" y="327"/>
      <point x="17" y="333" type="curve"/>
      <point x="28" y="352"/>
      <point x="94" y="425"/>
      <point x="140" y="425" type="curve" smooth="yes"/>
      <point x="161" y="425"/>
      <point x="178" y="401"/>
      <point x="178" y="372" type="curve" smooth="yes"/>
      <point x="178" y="320" type="line"/>
      <point x="178" y="172" type="line" smooth="yes"/>
      <point x="178" y="130"/>
      <point x="179" y="84"/>
    </contour>
  </outline>
</glyph>
<glyph name="w" format="2">
	<unicode hex="0077"/>
	<advance width="614"/>
	<outline>
		<contour>
			<point x="376" y="366" type="curve"/>
			<point x="377" y="326"/>
			<point x="379" y="241"/>
			<point x="382" y="179" type="curve" smooth="yes"/>
			<point x="384" y="137"/>
			<point x="386" y="90"/>
			<point x="396" y="74" type="curve"/>
			<point x="448" y="119"/>
			<point x="479" y="162"/>
			<point x="501" y="224" type="curve" smooth="yes"/>
			<point x="515" y="261"/>
			<point x="515" y="303"/>
			<point x="515" y="325" type="curve" smooth="yes"/>
			<point x="515" y="346"/>
			<point x="506" y="370"/>
			<point x="489" y="387" type="curve"/>
			<point x="495" y="404"/>
			<point x="512" y="425"/>
			<point x="535" y="425" type="curve" smooth="yes"/>
			<point x="572" y="425"/>
			<point x="589" y="392"/>
			<point x="589" y="347" type="curve" smooth="yes"/>
			<point x="589" y="224"/>
			<point x="398" y="-6"/>
			<point x="331" y="-6" type="curve"/>
			<point x="324" y="2"/>
			<point x="313" y="117"/>
			<point x="312" y="146" type="curve" smooth="yes"/>
			<point x="311" y="171"/>
			<point x="310" y="209"/>
			<point x="310" y="209" type="curve"/>
			<point x="245" y="115"/>
			<point x="153" y="-6"/>
			<point x="112" y="-6" type="curve"/>
			<point x="105" y="2"/>
			<point x="104" y="116"/>
			<point x="104" y="145" type="curve" smooth="yes"/>
			<point x="104" y="347" type="line" smooth="yes"/>
			<point x="104" y="356"/>
			<point x="105" y="371"/>
			<point x="95" y="371" type="curve" smooth="yes"/>
			<point x="74" y="371"/>
			<point x="29" y="317"/>
			<point x="26" y="314" type="curve"/>
			<point x="23" y="314"/>
			<point x="17" y="327"/>
			<point x="17" y="333" type="curve"/>
			<point x="28" y="352"/>
			<point x="94" y="425"/>
			<point x="140" y="425" type="curve" smooth="yes"/>
			<point x="161" y="425"/>
			<point x="178" y="401"/>
			<point x="178" y="372" type="curve" smooth="yes"/>
			<point x="178" y="320" type="line"/>
			<point x="178" y="172" type="line" smooth="yes"/>
			<point x="178" y="130"/>
			<point x="179" y="109"/>
			<point x="182" y="88" type="curve"/>
			<point x="226" y="135"/>
			<point x="274" y="218"/>
			<point x="292" y="249" type="curve" smooth="yes"/>
			<point x="315" y="292"/>
			<point x="325" y="318"/>
			<point x="334" y="339" type="curve"/>
			<point x="342" y="349"/>
			<point x="363" y="363"/>
		</contour>
	</outline>
</glyph>
<glyph name="x" format="2">
  <advance width="470"/>
  <unicode hex="0078"/>
  <outline>
    <contour>
      <point x="288" y="87" type="line" smooth="yes"/>
      <point x="292" y="67"/>
      <point x="301" y="51"/>
      <point x="322" y="51" type="curve" smooth="yes"/>
      <point x="339" y="51"/>
      <point x="383" y="90"/>
      <point x="394" y="104" type="curve"/>
      <point x="397" y="104"/>
      <point x="403" y="91"/>
      <point x="403" y="86" type="curve"/>
      <point x="395" y="72"/>
      <point x="327" y="-4"/>
      <point x="284" y="-4" type="curve" smooth="yes"/>
      <point x="254" y="-4"/>
      <point x="228" y="28"/>
      <point x="217" y="80" type="curve" smooth="yes"/>
      <point x="200" y="164" type="line"/>
      <point x="152" y="69"/>
      <point x="125" y="-5"/>
      <point x="71" y="-5" type="curve" smooth="yes"/>
      <point x="57" y="-5"/>
      <point x="41" y="-3"/>
      <point x="25" y="7" type="curve"/>
      <point x="19" y="15"/>
      <point x="15" y="25"/>
      <point x="15" y="40" type="curve" smooth="yes"/>
      <point x="15" y="63"/>
      <point x="29" y="83"/>
      <point x="51" y="83" type="curve" smooth="yes"/>
      <point x="71" y="83"/>
      <point x="75" y="57"/>
      <point x="96" y="55" type="curve" smooth="yes"/>
      <point x="111" y="54"/>
      <point x="118" y="65"/>
      <point x="125" y="77" type="curve" smooth="yes"/>
      <point x="151" y="121"/>
      <point x="168" y="153"/>
      <point x="192" y="200" type="curve"/>
      <point x="165" y="334" type="line" smooth="yes"/>
      <point x="161" y="355"/>
      <point x="152" y="371"/>
      <point x="134" y="371" type="curve" smooth="yes"/>
      <point x="114" y="371"/>
      <point x="71" y="330"/>
      <point x="60" y="316" type="curve"/>
      <point x="57" y="316"/>
      <point x="50" y="330"/>
      <point x="50" y="335" type="curve"/>
      <point x="58" y="349"/>
      <point x="126" y="425"/>
      <point x="169" y="425" type="curve" smooth="yes"/>
      <point x="199" y="425"/>
      <point x="226" y="394"/>
      <point x="236" y="341" type="curve" smooth="yes"/>
      <point x="250" y="274" type="line"/>
      <point x="293" y="360"/>
      <point x="319" y="425"/>
      <point x="369" y="425" type="curve" smooth="yes"/>
      <point x="383" y="425"/>
      <point x="399" y="423"/>
      <point x="415" y="413" type="curve"/>
      <point x="421" y="405"/>
      <point x="426" y="395"/>
      <point x="426" y="380" type="curve" smooth="yes"/>
      <point x="426" y="357"/>
      <point x="412" y="337"/>
      <point x="390" y="337" type="curve" smooth="yes"/>
      <point x="370" y="337"/>
      <point x="366" y="363"/>
      <point x="345" y="365" type="curve" smooth="yes"/>
      <point x="330" y="366"/>
      <point x="322" y="355"/>
      <point x="315" y="343" type="curve" smooth="yes"/>
      <point x="292" y="304"/>
      <point x="277" y="276"/>
      <point x="257" y="238" type="curve"/>
    </contour>
  </outline>
</glyph>
<glyph name="y" format="2">
  <advance width="436"/>
  <unicode hex="0079"/>
  <outline>
    <contour>
      <point x="129" y="425" type="curve" smooth="yes"/>
      <point x="213" y="425"/>
      <point x="216" y="75"/>
      <point x="216" y="15" type="curve"/>
      <point x="251" y="58"/>
      <point x="328" y="172"/>
      <point x="328" y="278" type="curve" smooth="yes"/>
      <point x="328" y="338"/>
      <point x="315" y="362"/>
      <point x="304" y="383" type="curve"/>
      <point x="312" y="408"/>
      <point x="330" y="425"/>
      <point x="353" y="425" type="curve" smooth="yes"/>
      <point x="394" y="425"/>
      <point x="396" y="369"/>
      <point x="396" y="348" type="curve" smooth="yes"/>
      <point x="396" y="119"/>
      <point x="82" y="-228"/>
      <point x="-50" y="-228" type="curve" smooth="yes"/>
      <point x="-85" y="-228"/>
      <point x="-108" y="-209"/>
      <point x="-108" y="-188" type="curve" smooth="yes"/>
      <point x="-108" y="-171"/>
      <point x="-101" y="-153"/>
      <point x="-86" y="-145" type="curve"/>
      <point x="-71" y="-154"/>
      <point x="-29" y="-163"/>
      <point x="-8" y="-163" type="curve" smooth="yes"/>
      <point x="53" y="-163"/>
      <point x="93" y="-129"/>
      <point x="125" y="-82" type="curve" smooth="yes"/>
      <point x="147" y="-49"/>
      <point x="143" y="19"/>
      <point x="143" y="61" type="curve" smooth="yes"/>
      <point x="143" y="172"/>
      <point x="132" y="371"/>
      <point x="84" y="371" type="curve" smooth="yes"/>
      <point x="63" y="371"/>
      <point x="19" y="317"/>
      <point x="16" y="314" type="curve"/>
      <point x="13" y="314"/>
      <point x="6" y="327"/>
      <point x="6" y="333" type="curve"/>
      <point x="17" y="352"/>
      <point x="83" y="425"/>
    </contour>
  </outline>
</glyph>
<glyph name="z" format="2">
	<unicode hex="007A"/>
	<advance width="377"/>
	<outline>
		<contour>
			<point x="142" y="425" type="curve" smooth="yes"/>
			<point x="170" y="425"/>
			<point x="193" y="414"/>
			<point x="217" y="405" type="curve" smooth="yes"/>
			<point x="234" y="399"/>
			<point x="250" y="395"/>
			<point x="271" y="395" type="curve" smooth="yes"/>
			<point x="307" y="395"/>
			<point x="351" y="425"/>
			<point x="359" y="425" type="curve"/>
			<point x="367" y="421"/>
			<point x="370" y="412"/>
			<point x="370" y="405" type="curve" smooth="yes"/>
			<point x="370" y="391"/>
			<point x="93" y="94"/>
			<point x="90" y="90" type="curve"/>
			<point x="94" y="92"/>
			<point x="114" y="101"/>
			<point x="135" y="101" type="curve" smooth="yes"/>
			<point x="156" y="101"/>
			<point x="176" y="93"/>
			<point x="195" y="84" type="curve" smooth="yes"/>
			<point x="214" y="76"/>
			<point x="231" y="67"/>
			<point x="247" y="67" type="curve" smooth="yes"/>
			<point x="272" y="67"/>
			<point x="298" y="124"/>
			<point x="304" y="133" type="curve"/>
			<point x="313" y="133"/>
			<point x="314" y="125"/>
			<point x="315" y="117" type="curve"/>
			<point x="298" y="80"/>
			<point x="259" y="0"/>
			<point x="213" y="0" type="curve" smooth="yes"/>
			<point x="190" y="0"/>
			<point x="160" y="11"/>
			<point x="135" y="21" type="curve" smooth="yes"/>
			<point x="119" y="27"/>
			<point x="87" y="31"/>
			<point x="65" y="31" type="curve" smooth="yes"/>
			<point x="37" y="31"/>
			<point x="21" y="10"/>
			<point x="1" y="0" type="curve"/>
			<point x="-5" y="2"/>
			<point x="-9" y="10"/>
			<point x="-10" y="19" type="curve"/>
			<point x="-10" y="34"/>
			<point x="283" y="341"/>
			<point x="285" y="345" type="curve"/>
			<point x="282" y="343"/>
			<point x="256" y="324"/>
			<point x="224" y="324" type="curve" smooth="yes"/>
			<point x="203" y="324"/>
			<point x="183" y="333"/>
			<point x="164" y="341" type="curve" smooth="yes"/>
			<point x="145" y="350"/>
			<point x="128" y="357"/>
			<point x="111" y="357" type="curve" smooth="yes"/>
			<point x="84" y="357"/>
			<point x="60" y="300"/>
			<point x="54" y="291" type="curve"/>
			<point x="47" y="291"/>
			<point x="43" y="298"/>
			<point x="42" y="307" type="curve"/>
			<point x="48" y="327"/>
			<point x="97" y="425"/>
		</contour>
	</outline>
</glyph>
<glyph name="asciitilde" format="2">
  <advance width="532"/>
  <unicode hex="007E"/>
  <outline>
    <contour>
      <point x="192" y="346" type="curve" smooth="yes"/>
      <point x="278" y="346"/>
      <point x="310" y="294"/>
      <point x="396" y="294" type="curve" smooth="yes"/>
      <point x="431" y="294"/>
      <point x="456" y="315"/>
      <point x="486" y="337" type="curve"/>
      <point x="488" y="335"/>
      <point x="492" y="333"/>
      <point x="492" y="327" type="curve" smooth="yes"/>
      <point x="492" y="298"/>
      <point x="429" y="244"/>
      <point x="360" y="244" type="curve" smooth="yes"/>
      <point x="274" y="244"/>
      <point x="240" y="296"/>
      <point x="154" y="296" type="curve" smooth="yes"/>
      <point x="119" y="296"/>
      <point x="93" y="275"/>
      <point x="63" y="253" type="curve"/>
      <point x="61" y="255"/>
      <point x="58" y="257"/>
      <point x="58" y="263" type="curve" smooth="yes"/>
      <point x="58" y="301"/>
      <point x="138" y="346"/>
    </contour>
  </outline>
</glyph>
<glyph name="exclamdown" format="2">
	<unicode hex="00A1"/>
	<advance width="209"/>
	<outline>
		<contour>
			<point x="52" y="365" type="curve" smooth="yes"/>
			<point x="52" y="394"/>
			<point x="75" y="420"/>
			<point x="104" y="420" type="curve" smooth="yes"/>
			<point x="133" y="420"/>
			<point x="159" y="394"/>
			<point x="159" y="365" type="curve" smooth="yes"/>
			<point x="159" y="336"/>
			<point x="133" y="312"/>
			<point x="104" y="312" type="curve" smooth="yes"/>
			<point x="75" y="312"/>
			<point x="52" y="336"/>
		</contour>
		<contour>
			<point x="101" y="-218" type="curve" smooth="yes"/>
			<point x="71" y="-218"/>
			<point x="58" y="-186"/>
			<point x="58" y="-161" type="curve" smooth="yes"/>
			<point x="58" y="-134"/>
			<point x="70" y="-3"/>
			<point x="91" y="241" type="curve"/>
			<point x="95" y="249"/>
			<point x="97" y="253"/>
			<point x="106" y="254" type="curve"/>
			<point x="111" y="252"/>
			<point x="117" y="249"/>
			<point x="120" y="243" type="curve"/>
			<point x="134" y="86"/>
			<point x="149" y="-111"/>
			<point x="149" y="-161" type="curve" smooth="yes"/>
			<point x="149" y="-188"/>
			<point x="132" y="-218"/>
		</contour>
	</outline>
</glyph>
<glyph name="cent" format="2">
	<unicode hex="00A2"/>
	<advance width="349"/>
	<outline>
		<contour>
			<point x="248" y="463" type="line"/>
			<point x="255" y="463"/>
			<point x="279" y="462"/>
			<point x="278" y="455" type="curve"/>
			<point x="106" y="-44" type="line"/>
			<point x="98" y="-44"/>
			<point x="75" y="-42"/>
			<point x="76" y="-35" type="curve"/>
		</contour>
		<component base="c" xOffset="-6"/>
	</outline>
</glyph>
<glyph name="currency" format="2">
	<unicode hex="00A4"/>
	<advance width="492"/>
	<outline>
		<contour>
			<point x="231" y="148" type="curve" smooth="yes"/>
			<point x="297" y="148"/>
			<point x="354" y="243"/>
			<point x="354" y="333" type="curve" smooth="yes"/>
			<point x="354" y="401"/>
			<point x="322" y="452"/>
			<point x="274" y="452" type="curve" smooth="yes"/>
			<point x="208" y="452"/>
			<point x="150" y="357"/>
			<point x="150" y="267" type="curve" smooth="yes"/>
			<point x="150" y="199"/>
			<point x="183" y="148"/>
		</contour>
		<contour>
			<point x="383" y="444" type="curve"/>
			<point x="447" y="498" type="line" smooth="yes"/>
			<point x="448" y="499"/>
			<point x="450" y="499"/>
			<point x="451" y="499" type="curve" smooth="yes"/>
			<point x="461" y="499"/>
			<point x="475" y="476"/>
			<point x="477" y="455" type="curve"/>
			<point x="411" y="400" type="line"/>
			<point x="418" y="381"/>
			<point x="422" y="361"/>
			<point x="422" y="339" type="curve" smooth="yes"/>
			<point x="422" y="276"/>
			<point x="390" y="222"/>
			<point x="367" y="194" type="curve"/>
			<point x="405" y="138" type="line" smooth="yes"/>
			<point x="405" y="137"/>
			<point x="406" y="137"/>
			<point x="406" y="136" type="curve" smooth="yes"/>
			<point x="406" y="126"/>
			<point x="378" y="104"/>
			<point x="357" y="98" type="curve"/>
			<point x="321" y="151" type="line"/>
			<point x="290" y="130"/>
			<point x="254" y="117"/>
			<point x="218" y="117" type="curve" smooth="yes"/>
			<point x="179" y="117"/>
			<point x="145" y="132"/>
			<point x="122" y="156" type="curve"/>
			<point x="64" y="107" type="line" smooth="yes"/>
			<point x="63" y="106"/>
			<point x="62" y="106"/>
			<point x="61" y="106" type="curve" smooth="yes"/>
			<point x="51" y="106"/>
			<point x="37" y="129"/>
			<point x="35" y="150" type="curve"/>
			<point x="94" y="200" type="line"/>
			<point x="86" y="219"/>
			<point x="82" y="240"/>
			<point x="82" y="262" type="curve" smooth="yes"/>
			<point x="82" y="323"/>
			<point x="112" y="379"/>
			<point x="143" y="413" type="curve"/>
			<point x="106" y="468" type="line" smooth="yes"/>
			<point x="106" y="469"/>
			<point x="105" y="469"/>
			<point x="105" y="470" type="curve" smooth="yes"/>
			<point x="105" y="480"/>
			<point x="133" y="502"/>
			<point x="154" y="508" type="curve"/>
			<point x="190" y="454" type="line"/>
			<point x="220" y="474"/>
			<point x="255" y="484"/>
			<point x="289" y="484" type="curve" smooth="yes"/>
			<point x="328" y="484"/>
			<point x="360" y="469"/>
		</contour>
	</outline>
</glyph>
<glyph name="yen" format="2">
  <advance width="578"/>
  <unicode hex="00A5"/>
  <outline>
    <contour>
      <point x="169" y="211" type="line" smooth="yes"/>
      <point x="166" y="211"/>
      <point x="165" y="215"/>
      <point x="165" y="219" type="curve" smooth="yes"/>
      <point x="165" y="226"/>
      <point x="171" y="242"/>
      <point x="178" y="248" type="curve"/>
      <point x="418" y="248" type="line" smooth="yes"/>
      <point x="420" y="248"/>
      <point x="421" y="245"/>
      <point x="421" y="241" type="curve" smooth="yes"/>
      <point x="421" y="236"/>
      <point x="419" y="220"/>
      <point x="410" y="211" type="curve"/>
    </contour>
    <contour>
      <point x="155" y="135" type="line" smooth="yes"/>
      <point x="152" y="135"/>
      <point x="151" y="139"/>
      <point x="151" y="143" type="curve" smooth="yes"/>
      <point x="151" y="150"/>
      <point x="156" y="166"/>
      <point x="163" y="172" type="curve"/>
      <point x="404" y="172" type="line" smooth="yes"/>
      <point x="406" y="172"/>
      <point x="407" y="169"/>
      <point x="407" y="165" type="curve" smooth="yes"/>
      <point x="407" y="160"/>
      <point x="404" y="144"/>
      <point x="395" y="135" type="curve"/>
    </contour>
    <contour>
      <point x="228" y="108" type="curve" smooth="yes"/>
      <point x="255" y="249" type="line" smooth="yes"/>
      <point x="256" y="256"/>
      <point x="257" y="265"/>
      <point x="254" y="275" type="curve" smooth="yes"/>
      <point x="176" y="511" type="line" smooth="yes"/>
      <point x="164" y="545"/>
      <point x="153" y="560"/>
      <point x="132" y="575" type="curve" smooth="yes"/>
      <point x="119" y="585"/>
      <point x="97" y="590"/>
      <point x="86" y="590" type="curve" smooth="yes"/>
      <point x="81" y="590"/>
      <point x="85" y="612"/>
      <point x="91" y="617" type="curve"/>
      <point x="133" y="615"/>
      <point x="156" y="612"/>
      <point x="199" y="612" type="curve" smooth="yes"/>
      <point x="242" y="612"/>
      <point x="276" y="615"/>
      <point x="311" y="617" type="curve"/>
      <point x="312" y="611"/>
      <point x="309" y="590"/>
      <point x="304" y="590" type="curve" smooth="yes"/>
      <point x="292" y="590"/>
      <point x="251" y="585"/>
      <point x="246" y="561" type="curve" smooth="yes"/>
      <point x="244" y="553"/>
      <point x="247" y="544"/>
      <point x="251" y="532" type="curve" smooth="yes"/>
      <point x="325" y="309" type="line"/>
      <point x="384" y="391"/>
      <point x="472" y="524"/>
      <point x="488" y="552" type="curve" smooth="yes"/>
      <point x="490" y="555"/>
      <point x="492" y="559"/>
      <point x="493" y="565" type="curve" smooth="yes"/>
      <point x="494" y="571"/>
      <point x="484" y="589"/>
      <point x="435" y="589" type="curve"/>
      <point x="432" y="592"/>
      <point x="436" y="612"/>
      <point x="439" y="616" type="curve"/>
      <point x="470" y="614"/>
      <point x="496" y="611"/>
      <point x="527" y="611" type="curve" smooth="yes"/>
      <point x="572" y="611"/>
      <point x="588" y="614"/>
      <point x="623" y="616" type="curve"/>
      <point x="623" y="613"/>
      <point x="618" y="589"/>
      <point x="615" y="589" type="curve" smooth="yes"/>
      <point x="608" y="589"/>
      <point x="559" y="589"/>
      <point x="532" y="552" type="curve" smooth="yes"/>
      <point x="341" y="280" type="line" smooth="yes"/>
      <point x="333" y="269"/>
      <point x="334" y="261"/>
      <point x="332" y="252" type="curve" smooth="yes"/>
      <point x="303" y="108" type="line" smooth="yes"/>
      <point x="297" y="80"/>
      <point x="292" y="54"/>
      <point x="294" y="39" type="curve" smooth="yes"/>
      <point x="295" y="28"/>
      <point x="340" y="24"/>
      <point x="351" y="24" type="curve"/>
      <point x="354" y="19"/>
      <point x="352" y="2"/>
      <point x="346" y="-3" type="curve"/>
      <point x="311" y="-1"/>
      <point x="278" y="2"/>
      <point x="245" y="2" type="curve" smooth="yes"/>
      <point x="212" y="2"/>
      <point x="178" y="-1"/>
      <point x="142" y="-3" type="curve"/>
      <point x="138" y="2"/>
      <point x="143" y="19"/>
      <point x="148" y="24" type="curve"/>
      <point x="159" y="24"/>
      <point x="205" y="28"/>
      <point x="210" y="39" type="curve" smooth="yes"/>
      <point x="218" y="54"/>
      <point x="222" y="80"/>
    </contour>
  </outline>
</glyph>
<glyph name="brokenbar" format="2">
	<unicode hex="00A6"/>
	<advance width="208"/>
	<outline>
		<contour>
			<point x="130" y="391" type="line" smooth="yes"/>
			<point x="130" y="383"/>
			<point x="87" y="376"/>
			<point x="85" y="376" type="curve" smooth="yes"/>
			<point x="78" y="376"/>
			<point x="80" y="380"/>
			<point x="80" y="384" type="curve" smooth="yes"/>
			<point x="80" y="739" type="line"/>
			<point x="80" y="739"/>
			<point x="79" y="745"/>
			<point x="85" y="747" type="curve" smooth="yes"/>
			<point x="102" y="752"/>
			<point x="119" y="752"/>
			<point x="122" y="752" type="curve" smooth="yes"/>
			<point x="131" y="752"/>
			<point x="130" y="746"/>
			<point x="130" y="746" type="curve"/>
		</contour>
		<contour>
			<point x="80" y="-112" type="curve" smooth="yes"/>
			<point x="80" y="243" type="line"/>
			<point x="80" y="243"/>
			<point x="79" y="249"/>
			<point x="85" y="251" type="curve" smooth="yes"/>
			<point x="102" y="256"/>
			<point x="119" y="256"/>
			<point x="122" y="256" type="curve" smooth="yes"/>
			<point x="131" y="256"/>
			<point x="130" y="250"/>
			<point x="130" y="250" type="curve"/>
			<point x="130" y="-105" type="line" smooth="yes"/>
			<point x="130" y="-113"/>
			<point x="87" y="-120"/>
			<point x="85" y="-120" type="curve" smooth="yes"/>
			<point x="78" y="-120"/>
			<point x="80" y="-116"/>
		</contour>
	</outline>
</glyph>
<glyph name="copyright" format="2">
  <advance width="643"/>
  <unicode hex="00A9"/>
  <outline>
    <contour>
      <point x="445" y="270" type="curve"/>
      <point x="445" y="267"/>
      <point x="433" y="212"/>
      <point x="426" y="209" type="curve" smooth="yes"/>
      <point x="395" y="196"/>
      <point x="363" y="190"/>
      <point x="322" y="190" type="curve" smooth="yes"/>
      <point x="243" y="190"/>
      <point x="183" y="251"/>
      <point x="183" y="328" type="curve" smooth="yes"/>
      <point x="183" y="406"/>
      <point x="239" y="472"/>
      <point x="320" y="472" type="curve" smooth="yes"/>
      <point x="349" y="472"/>
      <point x="397" y="466"/>
      <point x="430" y="453" type="curve"/>
      <point x="430" y="453"/>
      <point x="445" y="398"/>
      <point x="445" y="394" type="curve" smooth="yes"/>
      <point x="445" y="389"/>
      <point x="437" y="385"/>
      <point x="430" y="385" type="curve" smooth="yes"/>
      <point x="427" y="385"/>
      <point x="425" y="386"/>
      <point x="423" y="387" type="curve"/>
      <point x="420" y="400"/>
      <point x="401" y="438"/>
      <point x="332" y="438" type="curve" smooth="yes"/>
      <point x="279" y="438"/>
      <point x="238" y="391"/>
      <point x="238" y="337" type="curve" smooth="yes"/>
      <point x="238" y="258"/>
      <point x="296" y="222"/>
      <point x="341" y="222" type="curve" smooth="yes"/>
      <point x="370" y="222"/>
      <point x="398" y="228"/>
      <point x="411" y="240" type="curve" smooth="yes"/>
      <point x="423" y="251"/>
      <point x="424" y="272"/>
      <point x="426" y="272" type="curve" smooth="yes"/>
      <point x="429" y="272"/>
      <point x="444" y="272"/>
    </contour>
    <contour>
      <point x="87" y="334" type="curve" smooth="yes"/>
      <point x="87" y="204"/>
      <point x="192" y="98"/>
      <point x="322" y="98" type="curve" smooth="yes"/>
      <point x="452" y="98"/>
      <point x="559" y="204"/>
      <point x="559" y="334" type="curve" smooth="yes"/>
      <point x="559" y="464"/>
      <point x="452" y="570"/>
      <point x="322" y="570" type="curve" smooth="yes"/>
      <point x="192" y="570"/>
      <point x="87" y="464"/>
    </contour>
    <contour>
      <point x="55" y="334" type="curve" smooth="yes"/>
      <point x="55" y="481"/>
      <point x="174" y="601"/>
      <point x="321" y="601" type="curve" smooth="yes"/>
      <point x="468" y="601"/>
      <point x="589" y="481"/>
      <point x="589" y="334" type="curve" smooth="yes"/>
      <point x="589" y="187"/>
      <point x="468" y="67"/>
      <point x="321" y="67" type="curve" smooth="yes"/>
      <point x="174" y="67"/>
      <point x="55" y="187"/>
    </contour>
  </outline>
</glyph>
<glyph name="ordfeminine" format="2">
  <advance width="371"/>
  <unicode hex="00AA"/>
  <outline>
    <contour>
      <point x="251" y="243" type="curve" smooth="yes"/>
      <point x="235" y="243"/>
      <point x="226" y="258"/>
      <point x="226" y="279" type="curve" smooth="yes"/>
      <point x="226" y="285"/>
      <point x="227" y="300"/>
      <point x="230" y="315" type="curve" smooth="yes"/>
      <point x="232" y="328"/>
      <point x="234" y="331"/>
      <point x="235" y="336" type="curve"/>
      <point x="219" y="312"/>
      <point x="167" y="244"/>
      <point x="124" y="244" type="curve" smooth="yes"/>
      <point x="83" y="244"/>
      <point x="58" y="276"/>
      <point x="58" y="324" type="curve" smooth="yes"/>
      <point x="58" y="442"/>
      <point x="181" y="544"/>
      <point x="272" y="544" type="curve" smooth="yes"/>
      <point x="298" y="544"/>
      <point x="316" y="540"/>
      <point x="331" y="535" type="curve"/>
      <point x="285" y="319" type="line" smooth="yes"/>
      <point x="284" y="316"/>
      <point x="282" y="301"/>
      <point x="282" y="298" type="curve" smooth="yes"/>
      <point x="282" y="292"/>
      <point x="282" y="281"/>
      <point x="289" y="281" type="curve" smooth="yes"/>
      <point x="305" y="281"/>
      <point x="341" y="318"/>
      <point x="343" y="320" type="curve"/>
      <point x="345" y="320"/>
      <point x="350" y="312"/>
      <point x="350" y="308" type="curve"/>
      <point x="342" y="295"/>
      <point x="286" y="243"/>
    </contour>
    <contour>
      <point x="238" y="517" type="curve" smooth="yes"/>
      <point x="180" y="517"/>
      <point x="113" y="429"/>
      <point x="113" y="351" type="curve" smooth="yes"/>
      <point x="113" y="309"/>
      <point x="125" y="283"/>
      <point x="151" y="283" type="curve" smooth="yes"/>
      <point x="189" y="283"/>
      <point x="242" y="370"/>
      <point x="257" y="435" type="curve" smooth="yes"/>
      <point x="272" y="507" type="line"/>
      <point x="265" y="514"/>
      <point x="248" y="517"/>
    </contour>
  </outline>
</glyph>
<glyph name="logicalnot" format="2">
	<unicode hex="00AC"/>
	<advance width="573"/>
	<outline>
		<contour>
			<point x="504" y="410" type="line"/>
			<point x="504" y="165" type="line"/>
			<point x="503" y="164"/>
			<point x="478" y="150"/>
			<point x="458" y="150" type="curve" smooth="yes"/>
			<point x="458" y="150"/>
			<point x="448" y="151"/>
			<point x="445" y="157" type="curve"/>
			<point x="445" y="178"/>
			<point x="445" y="278"/>
			<point x="445" y="355" type="curve"/>
			<point x="50" y="355" type="line"/>
			<point x="50" y="355"/>
			<point x="44" y="355"/>
			<point x="44" y="365" type="curve"/>
			<point x="44" y="365"/>
			<point x="49" y="410"/>
			<point x="59" y="410" type="curve" smooth="yes"/>
		</contour>
	</outline>
</glyph>
<glyph name="degree" format="2">
  <advance width="259"/>
  <unicode hex="00B0"/>
  <outline>
    <contour>
      <point x="123" y="512" type="curve" smooth="yes"/>
      <point x="123" y="485"/>
      <point x="141" y="463"/>
      <point x="168" y="463" type="curve" smooth="yes"/>
      <point x="202" y="463"/>
      <point x="235" y="497"/>
      <point x="235" y="535" type="curve" smooth="yes"/>
      <point x="235" y="562"/>
      <point x="217" y="583"/>
      <point x="190" y="583" type="curve" smooth="yes"/>
      <point x="156" y="583"/>
      <point x="123" y="552"/>
    </contour>
    <contour>
      <point x="88" y="505" type="curve" smooth="yes"/>
      <point x="88" y="568"/>
      <point x="145" y="619"/>
      <point x="197" y="619" type="curve" smooth="yes"/>
      <point x="240" y="619"/>
      <point x="271" y="586"/>
      <point x="271" y="542" type="curve" smooth="yes"/>
      <point x="271" y="481"/>
      <point x="215" y="427"/>
      <point x="161" y="427" type="curve" smooth="yes"/>
      <point x="118" y="427"/>
      <point x="88" y="461"/>
    </contour>
  </outline>
</glyph>
<glyph name="uni00B2" format="2">
	<unicode hex="00B2"/>
	<advance width="349"/>
	<outline>
		<contour>
			<point x="313" y="352" type="curve"/>
			<point x="302" y="324"/>
			<point x="291" y="280"/>
			<point x="277" y="248" type="curve"/>
			<point x="50" y="248" type="line"/>
			<point x="44" y="248"/>
			<point x="36" y="256"/>
			<point x="38" y="260" type="curve"/>
			<point x="77" y="303"/>
			<point x="135" y="354"/>
			<point x="175" y="408" type="curve" smooth="yes"/>
			<point x="202" y="445"/>
			<point x="222" y="482"/>
			<point x="222" y="518" type="curve" smooth="yes"/>
			<point x="222" y="559"/>
			<point x="199" y="588"/>
			<point x="158" y="588" type="curve" smooth="yes"/>
			<point x="114" y="588"/>
			<point x="91" y="561"/>
			<point x="73" y="540" type="curve"/>
			<point x="69" y="536"/>
			<point x="55" y="552"/>
			<point x="56" y="557" type="curve"/>
			<point x="78" y="596"/>
			<point x="124" y="632"/>
			<point x="169" y="632" type="curve" smooth="yes"/>
			<point x="237" y="632"/>
			<point x="285" y="589"/>
			<point x="285" y="527" type="curve" smooth="yes"/>
			<point x="285" y="495"/>
			<point x="270" y="464"/>
			<point x="241" y="429" type="curve" smooth="yes"/>
			<point x="215" y="398"/>
			<point x="165" y="350"/>
			<point x="118" y="302" type="curve"/>
			<point x="236" y="302" type="line" smooth="yes"/>
			<point x="276" y="302"/>
			<point x="288" y="344"/>
			<point x="294" y="354" type="curve" smooth="yes"/>
			<point x="295" y="356"/>
			<point x="296" y="356"/>
			<point x="299" y="357" type="curve" smooth="yes"/>
			<point x="302" y="357"/>
			<point x="310" y="356"/>
		</contour>
	</outline>
</glyph>
<glyph name="threesuperior" format="2">
  <advance width="310"/>
  <unicode hex="00B3"/>
  <outline>
    <contour>
      <point x="158" y="631" type="curve" smooth="yes"/>
      <point x="199" y="631"/>
      <point x="243" y="606"/>
      <point x="243" y="556" type="curve" smooth="yes"/>
      <point x="243" y="513"/>
      <point x="208" y="485"/>
      <point x="187" y="475" type="curve"/>
      <point x="212" y="475"/>
      <point x="274" y="441"/>
      <point x="274" y="377" type="curve" smooth="yes"/>
      <point x="274" y="291"/>
      <point x="200" y="243"/>
      <point x="115" y="243" type="curve" smooth="yes"/>
      <point x="94" y="243"/>
      <point x="60" y="249"/>
      <point x="50" y="258" type="curve"/>
      <point x="50" y="258"/>
      <point x="38" y="268"/>
      <point x="38" y="281" type="curve" smooth="yes"/>
      <point x="38" y="301"/>
      <point x="52" y="313"/>
      <point x="68" y="313" type="curve" smooth="yes"/>
      <point x="85" y="313"/>
      <point x="92" y="297"/>
      <point x="104" y="285" type="curve" smooth="yes"/>
      <point x="114" y="275"/>
      <point x="127" y="271"/>
      <point x="142" y="271" type="curve" smooth="yes"/>
      <point x="183" y="271"/>
      <point x="212" y="299"/>
      <point x="212" y="359" type="curve" smooth="yes"/>
      <point x="212" y="407"/>
      <point x="178" y="443"/>
      <point x="142" y="443" type="curve" smooth="yes"/>
      <point x="124" y="443"/>
      <point x="108" y="437"/>
      <point x="103" y="436" type="curve"/>
      <point x="101" y="438"/>
      <point x="99" y="442"/>
      <point x="98" y="446" type="curve" smooth="yes"/>
      <point x="97" y="450"/>
      <point x="97" y="454"/>
      <point x="98" y="456" type="curve"/>
      <point x="146" y="466"/>
      <point x="188" y="495"/>
      <point x="188" y="543" type="curve" smooth="yes"/>
      <point x="188" y="568"/>
      <point x="164" y="593"/>
      <point x="139" y="593" type="curve" smooth="yes"/>
      <point x="103" y="593"/>
      <point x="76" y="563"/>
      <point x="70" y="557" type="curve"/>
      <point x="65" y="559"/>
      <point x="61" y="571"/>
      <point x="62" y="572" type="curve"/>
      <point x="76" y="593"/>
      <point x="106" y="631"/>
    </contour>
  </outline>
</glyph>
<glyph name="micro" format="2">
  <advance width="481"/>
  <unicode hex="00B5"/>
  <outline>
    <contour>
      <point x="392" y="67" type="curve"/>
      <point x="379" y="34"/>
      <point x="343" y="-4"/>
      <point x="312" y="-4" type="curve" smooth="yes"/>
      <point x="258" y="-4"/>
      <point x="262" y="75"/>
      <point x="267" y="137" type="curve"/>
      <point x="224" y="62"/>
      <point x="177" y="-9"/>
      <point x="127" y="-9" type="curve" smooth="yes"/>
      <point x="85" y="-9"/>
      <point x="79" y="49"/>
      <point x="79" y="86" type="curve"/>
      <point x="77" y="69"/>
      <point x="42" y="-34"/>
      <point x="42" y="-97" type="curve" smooth="yes"/>
      <point x="42" y="-131"/>
      <point x="60" y="-168"/>
      <point x="74" y="-189" type="curve"/>
      <point x="72" y="-203"/>
      <point x="49" y="-216"/>
      <point x="31" y="-216" type="curve" smooth="yes"/>
      <point x="18" y="-216"/>
      <point x="-11" y="-206"/>
      <point x="-11" y="-143" type="curve" smooth="yes"/>
      <point x="-11" y="-77"/>
      <point x="50" y="138"/>
      <point x="70" y="199" type="curve"/>
      <point x="75" y="222"/>
      <point x="100" y="376"/>
      <point x="107" y="413" type="curve"/>
      <point x="111" y="418"/>
      <point x="121" y="427"/>
      <point x="129" y="427" type="curve" smooth="yes"/>
      <point x="139" y="427"/>
      <point x="162" y="412"/>
      <point x="171" y="390" type="curve"/>
      <point x="168" y="372"/>
      <point x="137" y="281"/>
      <point x="114" y="218" type="curve"/>
      <point x="109" y="193"/>
      <point x="106" y="167"/>
      <point x="106" y="146" type="curve" smooth="yes"/>
      <point x="106" y="102"/>
      <point x="117" y="64"/>
      <point x="136" y="64" type="curve" smooth="yes"/>
      <point x="183" y="64"/>
      <point x="228" y="148"/>
      <point x="266" y="217" type="curve"/>
      <point x="287" y="293"/>
      <point x="296" y="345"/>
      <point x="314" y="413" type="curve"/>
      <point x="318" y="418"/>
      <point x="328" y="427"/>
      <point x="336" y="427" type="curve" smooth="yes"/>
      <point x="346" y="427"/>
      <point x="369" y="412"/>
      <point x="378" y="390" type="curve"/>
      <point x="368" y="362"/>
      <point x="304" y="205"/>
      <point x="304" y="205" type="curve"/>
      <point x="286" y="125"/>
      <point x="295" y="64"/>
      <point x="337" y="64" type="curve" smooth="yes"/>
      <point x="360" y="64"/>
      <point x="377" y="80"/>
      <point x="386" y="89" type="curve"/>
      <point x="390" y="86"/>
      <point x="393" y="70"/>
    </contour>
  </outline>
</glyph>
<glyph name="periodcentered" format="2">
	<unicode hex="00B7"/>
	<advance width="292"/>
	<outline>
		<contour>
			<point x="142.626" y="246" type="curve" smooth="yes"/>
			<point x="142.626" y="282"/>
			<point x="175.626" y="314"/>
			<point x="207.626" y="314" type="curve" smooth="yes"/>
			<point x="232.626" y="314"/>
			<point x="249.626" y="295"/>
			<point x="249.626" y="270" type="curve" smooth="yes"/>
			<point x="249.626" y="234"/>
			<point x="217.626" y="200"/>
			<point x="185.626" y="200" type="curve" smooth="yes"/>
			<point x="160.626" y="200"/>
			<point x="142.626" y="220"/>
		</contour>
	</outline>
</glyph>
<glyph name="onehalf" format="2">
	<unicode hex="00BD"/>
	<advance width="732"/>
	<outline>
		<contour>
			<point x="556" y="383" type="curve" smooth="yes"/>
			<point x="624" y="383"/>
			<point x="672" y="340"/>
			<point x="672" y="278" type="curve" smooth="yes"/>
			<point x="672" y="246"/>
			<point x="656" y="215"/>
			<point x="627" y="180" type="curve" smooth="yes"/>
			<point x="601" y="149"/>
			<point x="552" y="101"/>
			<point x="505" y="53" type="curve"/>
			<point x="622" y="53" type="line" smooth="yes"/>
			<point x="662" y="53"/>
			<point x="675" y="95"/>
			<point x="681" y="105" type="curve" smooth="yes"/>
			<point x="682" y="107"/>
			<point x="683" y="107"/>
			<point x="686" y="108" type="curve" smooth="yes"/>
			<point x="689" y="108"/>
			<point x="696" y="107"/>
			<point x="699" y="103" type="curve"/>
			<point x="688" y="75"/>
			<point x="677" y="31"/>
			<point x="663" y="-1" type="curve"/>
			<point x="437" y="-1" type="line"/>
			<point x="431" y="-1"/>
			<point x="423" y="7"/>
			<point x="425" y="11" type="curve"/>
			<point x="462" y="51"/>
			<point x="515" y="98"/>
			<point x="554" y="148" type="curve" smooth="yes"/>
			<point x="586" y="188"/>
			<point x="608" y="230"/>
			<point x="608" y="269" type="curve" smooth="yes"/>
			<point x="608" y="310"/>
			<point x="585" y="339"/>
			<point x="544" y="339" type="curve" smooth="yes"/>
			<point x="500" y="339"/>
			<point x="477" y="312"/>
			<point x="459" y="291" type="curve"/>
			<point x="455" y="287"/>
			<point x="441" y="303"/>
			<point x="442" y="308" type="curve"/>
			<point x="464" y="347"/>
			<point x="511" y="383"/>
		</contour>
		<contour>
			<point x="173" y="521" type="curve" smooth="yes"/>
			<point x="173" y="328" type="line" smooth="yes"/>
			<point x="173" y="308"/>
			<point x="175" y="295"/>
			<point x="180" y="280" type="curve" smooth="yes"/>
			<point x="182" y="273"/>
			<point x="221" y="267"/>
			<point x="229" y="267" type="curve"/>
			<point x="234" y="262"/>
			<point x="230" y="247"/>
			<point x="229" y="245" type="curve"/>
			<point x="191" y="246"/>
			<point x="184" y="248"/>
			<point x="146" y="248" type="curve" smooth="yes"/>
			<point x="108" y="248"/>
			<point x="94" y="246"/>
			<point x="56" y="245" type="curve"/>
			<point x="51" y="248"/>
			<point x="52" y="263"/>
			<point x="56" y="267" type="curve"/>
			<point x="68" y="267"/>
			<point x="101" y="274"/>
			<point x="104" y="281" type="curve" smooth="yes"/>
			<point x="109" y="294"/>
			<point x="112" y="316"/>
			<point x="112" y="326" type="curve" smooth="yes"/>
			<point x="112" y="508" type="line" smooth="yes"/>
			<point x="112" y="527"/>
			<point x="106" y="542"/>
			<point x="96" y="542" type="curve" smooth="yes"/>
			<point x="85" y="542"/>
			<point x="69" y="534"/>
			<point x="49" y="527" type="curve"/>
			<point x="43" y="530"/>
			<point x="38" y="539"/>
			<point x="36" y="545" type="curve"/>
			<point x="55" y="557"/>
			<point x="85" y="574"/>
			<point x="168" y="623" type="curve"/>
			<point x="175" y="621"/>
			<point x="181" y="614"/>
			<point x="181" y="607" type="curve"/>
			<point x="181" y="607"/>
			<point x="173" y="559"/>
		</contour>
		<contour>
			<point x="551" y="619" type="curve"/>
			<point x="214" y="2" type="line" smooth="yes"/>
			<point x="211" y="-4"/>
			<point x="199" y="-15"/>
			<point x="183" y="-12" type="curve" smooth="yes"/>
			<point x="173" y="-10"/>
			<point x="172" y="-4"/>
			<point x="172" y="-4" type="curve"/>
			<point x="513" y="621" type="line"/>
			<point x="514" y="623"/>
			<point x="526" y="632"/>
			<point x="543" y="629" type="curve" smooth="yes"/>
			<point x="549" y="628"/>
			<point x="551" y="622"/>
		</contour>
	</outline>
</glyph>
<glyph name="questiondown" format="2">
  <advance width="336"/>
  <unicode hex="00BF"/>
  <outline>
    <contour>
      <point x="281" y="365" type="curve" smooth="yes"/>
      <point x="281" y="336"/>
      <point x="256" y="312"/>
      <point x="227" y="312" type="curve" smooth="yes"/>
      <point x="198" y="312"/>
      <point x="174" y="336"/>
      <point x="174" y="365" type="curve" smooth="yes"/>
      <point x="174" y="394"/>
      <point x="198" y="420"/>
      <point x="227" y="420" type="curve" smooth="yes"/>
      <point x="256" y="420"/>
      <point x="281" y="394"/>
    </contour>
    <contour>
      <point x="249" y="243" type="curve"/>
      <point x="254" y="222"/>
      <point x="257" y="180"/>
      <point x="257" y="154" type="curve" smooth="yes"/>
      <point x="257" y="82"/>
      <point x="210" y="56"/>
      <point x="174" y="33" type="curve" smooth="yes"/>
      <point x="126" y="3"/>
      <point x="89" y="-19"/>
      <point x="89" y="-66" type="curve" smooth="yes"/>
      <point x="89" y="-117"/>
      <point x="124" y="-146"/>
      <point x="161" y="-146" type="curve" smooth="yes"/>
      <point x="213" y="-146"/>
      <point x="220" y="-126"/>
      <point x="245" y="-126" type="curve" smooth="yes"/>
      <point x="259" y="-126"/>
      <point x="288" y="-143"/>
      <point x="288" y="-175" type="curve" smooth="yes"/>
      <point x="288" y="-190"/>
      <point x="284" y="-204"/>
      <point x="279" y="-211" type="curve"/>
      <point x="269" y="-216"/>
      <point x="253" y="-218"/>
      <point x="232" y="-218" type="curve" smooth="yes"/>
      <point x="168" y="-218"/>
      <point x="40" y="-151"/>
      <point x="40" y="-37" type="curve" smooth="yes"/>
      <point x="40" y="29"/>
      <point x="66" y="70"/>
      <point x="139" y="112" type="curve" smooth="yes"/>
      <point x="165" y="128"/>
      <point x="209" y="162"/>
      <point x="215" y="173" type="curve" smooth="yes"/>
      <point x="224" y="189"/>
      <point x="221" y="219"/>
      <point x="221" y="241" type="curve"/>
      <point x="225" y="249"/>
      <point x="227" y="253"/>
      <point x="236" y="254" type="curve"/>
      <point x="241" y="252"/>
      <point x="246" y="249"/>
    </contour>
  </outline>
</glyph>
<glyph name="AE" format="2">
  <advance width="766"/>
  <unicode hex="00C6"/>
  <outline>
    <contour>
      <point x="379" y="300" type="line"/>
      <point x="237" y="300" type="line"/>
      <point x="119" y="128" type="line" smooth="yes"/>
      <point x="85" y="79"/>
      <point x="75" y="60"/>
      <point x="75" y="49" type="curve" smooth="yes"/>
      <point x="75" y="33"/>
      <point x="121" y="23"/>
      <point x="131" y="23" type="curve" smooth="yes"/>
      <point x="132" y="23"/>
      <point x="131" y="2"/>
      <point x="128" y="-3" type="curve"/>
      <point x="92" y="-1"/>
      <point x="76" y="2"/>
      <point x="36" y="2" type="curve" smooth="yes"/>
      <point x="-6" y="2"/>
      <point x="-16" y="-1"/>
      <point x="-58" y="-3" type="curve"/>
      <point x="-59" y="-2"/>
      <point x="-59" y="23"/>
      <point x="-55" y="23" type="curve" smooth="yes"/>
      <point x="-44" y="23"/>
      <point x="-6" y="31"/>
      <point x="8" y="44" type="curve" smooth="yes"/>
      <point x="36" y="69"/>
      <point x="61" y="100"/>
      <point x="85" y="136" type="curve" smooth="yes"/>
      <point x="386" y="572" type="line" smooth="yes"/>
      <point x="388" y="576"/>
      <point x="391" y="581"/>
      <point x="391" y="587" type="curve" smooth="yes"/>
      <point x="391" y="598"/>
      <point x="382" y="610"/>
      <point x="361" y="610" type="curve"/>
      <point x="357" y="613"/>
      <point x="358" y="635"/>
      <point x="361" y="641" type="curve"/>
      <point x="457" y="642" type="line" smooth="yes"/>
      <point x="542" y="642"/>
      <point x="647" y="648"/>
      <point x="746" y="648" type="curve"/>
      <point x="747" y="599"/>
      <point x="754" y="560"/>
      <point x="758" y="516" type="curve"/>
      <point x="755" y="513"/>
      <point x="747" y="511"/>
      <point x="740" y="511" type="curve" smooth="yes"/>
      <point x="733" y="511"/>
      <point x="729" y="513"/>
      <point x="729" y="518" type="curve" smooth="yes"/>
      <point x="718" y="596"/>
      <point x="683" y="615"/>
      <point x="635" y="615" type="curve" smooth="yes"/>
      <point x="557" y="615" type="line" smooth="yes"/>
      <point x="546" y="615"/>
      <point x="497" y="614"/>
      <point x="493" y="604" type="curve" smooth="yes"/>
      <point x="486" y="588"/>
      <point x="482" y="560"/>
      <point x="479" y="534" type="curve" smooth="yes"/>
      <point x="459" y="339" type="line" smooth="yes"/>
      <point x="458" y="334"/>
      <point x="477" y="333"/>
      <point x="497" y="333" type="curve" smooth="yes"/>
      <point x="545" y="333" type="line" smooth="yes"/>
      <point x="632" y="333"/>
      <point x="630" y="339"/>
      <point x="653" y="403" type="curve" smooth="yes"/>
      <point x="655" y="408"/>
      <point x="661" y="410"/>
      <point x="668" y="410" type="curve" smooth="yes"/>
      <point x="675" y="410"/>
      <point x="680" y="408"/>
      <point x="682" y="405" type="curve"/>
      <point x="662" y="221" type="line"/>
      <point x="660" y="219"/>
      <point x="653" y="217"/>
      <point x="646" y="217" type="curve" smooth="yes"/>
      <point x="639" y="217"/>
      <point x="635" y="220"/>
      <point x="634" y="225" type="curve" smooth="yes"/>
      <point x="626" y="281"/>
      <point x="622" y="287"/>
      <point x="615" y="293" type="curve" smooth="yes"/>
      <point x="605" y="300"/>
      <point x="554" y="301"/>
      <point x="520" y="301" type="curve" smooth="yes"/>
      <point x="495" y="301"/>
      <point x="455" y="301"/>
      <point x="454" y="292" type="curve" smooth="yes"/>
      <point x="436" y="106" type="line" smooth="yes"/>
      <point x="435" y="91"/>
      <point x="430" y="44"/>
      <point x="435" y="39" type="curve" smooth="yes"/>
      <point x="446" y="29"/>
      <point x="460" y="29"/>
      <point x="498" y="29" type="curve" smooth="yes"/>
      <point x="541" y="29" type="line" smooth="yes"/>
      <point x="591" y="29"/>
      <point x="628" y="39"/>
      <point x="657" y="60" type="curve" smooth="yes"/>
      <point x="682" y="78"/>
      <point x="705" y="106"/>
      <point x="726" y="158" type="curve" smooth="yes"/>
      <point x="728" y="162"/>
      <point x="732" y="164"/>
      <point x="739" y="164" type="curve" smooth="yes"/>
      <point x="748" y="164"/>
      <point x="760" y="161"/>
      <point x="762" y="158" type="curve"/>
      <point x="739" y="105"/>
      <point x="704" y="39"/>
      <point x="693" y="-4" type="curve"/>
      <point x="594" y="-4"/>
      <point x="505" y="0"/>
      <point x="385" y="0" type="curve" smooth="yes"/>
      <point x="337" y="0"/>
      <point x="264" y="-3"/>
      <point x="264" y="-3" type="curve"/>
      <point x="262" y="2"/>
      <point x="265" y="28"/>
      <point x="270" y="30" type="curve"/>
      <point x="281" y="30"/>
      <point x="330" y="36"/>
      <point x="341" y="49" type="curve" smooth="yes"/>
      <point x="357" y="68"/>
      <point x="359" y="87"/>
      <point x="362" y="121" type="curve" smooth="yes"/>
    </contour>
    <contour>
      <point x="382" y="333" type="line"/>
      <point x="401" y="537" type="line"/>
      <point x="261" y="333" type="line"/>
    </contour>
  </outline>
</glyph>
<glyph name="Eth" format="2">
	<unicode hex="00D0"/>
	<advance width="667"/>
	<outline>
		<contour>
			<point x="78" y="341" type="curve"/>
			<point x="105" y="341"/>
			<point x="387" y="341"/>
			<point x="400" y="341" type="curve" smooth="yes"/>
			<point x="404" y="341"/>
			<point x="406" y="337"/>
			<point x="405" y="333" type="curve" smooth="yes"/>
			<point x="404" y="328"/>
			<point x="400" y="313"/>
			<point x="395" y="306" type="curve"/>
			<point x="368" y="306"/>
			<point x="85" y="306"/>
			<point x="72" y="306" type="curve" smooth="yes"/>
			<point x="68" y="306"/>
			<point x="68" y="312"/>
			<point x="69" y="316" type="curve" smooth="yes"/>
			<point x="70" y="321"/>
			<point x="71" y="334"/>
		</contour>
		<component base="D"/>
	</outline>
</glyph>
<glyph name="Oslash" format="2">
  <advance width="693"/>
  <unicode hex="00D8"/>
  <outline>
    <contour>
      <point x="115" y="-13" type="line"/>
      <point x="107" y="-10"/>
      <point x="89" y="4"/>
      <point x="94" y="10" type="curve"/>
      <point x="598" y="651" type="line"/>
      <point x="606" y="649"/>
      <point x="625" y="636"/>
      <point x="620" y="630" type="curve"/>
    </contour>
    <component base="O"/>
  </outline>
</glyph>
<glyph name="Thorn" format="2">
  <advance width="458"/>
  <unicode hex="00DE"/>
  <outline>
    <contour>
      <point x="229" y="447" type="curve" smooth="yes"/>
      <point x="204" y="317"/>
      <point x="164" y="113"/>
      <point x="164" y="113" type="curve" smooth="yes"/>
      <point x="158" y="84"/>
      <point x="152" y="57"/>
      <point x="154" y="41" type="curve" smooth="yes"/>
      <point x="155" y="30"/>
      <point x="203" y="25"/>
      <point x="214" y="25" type="curve"/>
      <point x="217" y="20"/>
      <point x="214" y="2"/>
      <point x="208" y="-3" type="curve"/>
      <point x="171" y="-1"/>
      <point x="139" y="2"/>
      <point x="104" y="2" type="curve" smooth="yes"/>
      <point x="69" y="2"/>
      <point x="33" y="-1"/>
      <point x="-5" y="-3" type="curve"/>
      <point x="-9" y="2"/>
      <point x="-5" y="20"/>
      <point x="0" y="25" type="curve"/>
      <point x="11" y="25"/>
      <point x="61" y="30"/>
      <point x="66" y="41" type="curve" smooth="yes"/>
      <point x="74" y="57"/>
      <point x="79" y="84"/>
      <point x="85" y="113" type="curve" smooth="yes"/>
      <point x="166" y="530" type="line" smooth="yes"/>
      <point x="172" y="559"/>
      <point x="177" y="587"/>
      <point x="175" y="603" type="curve" smooth="yes"/>
      <point x="174" y="614"/>
      <point x="126" y="618"/>
      <point x="115" y="618" type="curve"/>
      <point x="112" y="623"/>
      <point x="115" y="641"/>
      <point x="121" y="646" type="curve"/>
      <point x="158" y="644"/>
      <point x="193" y="642"/>
      <point x="228" y="642" type="curve" smooth="yes"/>
      <point x="263" y="642"/>
      <point x="297" y="644"/>
      <point x="335" y="646" type="curve"/>
      <point x="339" y="641"/>
      <point x="334" y="623"/>
      <point x="329" y="618" type="curve"/>
      <point x="318" y="618"/>
      <point x="269" y="614"/>
      <point x="264" y="603" type="curve" smooth="yes"/>
      <point x="256" y="587"/>
      <point x="251" y="559"/>
      <point x="245" y="530" type="curve" smooth="yes"/>
      <point x="236" y="488" type="line"/>
      <point x="258" y="497"/>
      <point x="284" y="499"/>
      <point x="306" y="499" type="curve" smooth="yes"/>
      <point x="410" y="499"/>
      <point x="482" y="441"/>
      <point x="482" y="352" type="curve" smooth="yes"/>
      <point x="482" y="227"/>
      <point x="374" y="131"/>
      <point x="255" y="131" type="curve" smooth="yes"/>
      <point x="234" y="131"/>
      <point x="216" y="137"/>
      <point x="211" y="141" type="curve" smooth="yes"/>
      <point x="209" y="143"/>
      <point x="203" y="151"/>
      <point x="203" y="156" type="curve" smooth="yes"/>
      <point x="203" y="158"/>
      <point x="205" y="159"/>
      <point x="207" y="160" type="curve"/>
      <point x="215" y="156"/>
      <point x="230" y="156"/>
      <point x="239" y="156" type="curve" smooth="yes"/>
      <point x="311" y="156"/>
      <point x="396" y="229"/>
      <point x="396" y="338" type="curve" smooth="yes"/>
      <point x="396" y="393"/>
      <point x="383" y="471"/>
      <point x="282" y="471" type="curve" smooth="yes"/>
      <point x="271" y="471"/>
      <point x="233" y="468"/>
    </contour>
  </outline>
</glyph>
<glyph name="ae" format="2">
  <advance width="545"/>
  <unicode hex="00E6"/>
  <outline>
    <contour>
      <point x="411" y="385" type="curve" smooth="yes"/>
      <point x="349" y="385"/>
      <point x="308" y="295"/>
      <point x="299" y="225" type="curve"/>
      <point x="337" y="225"/>
      <point x="451" y="274"/>
      <point x="451" y="346" type="curve" smooth="yes"/>
      <point x="451" y="370"/>
      <point x="431" y="385"/>
    </contour>
    <contour>
      <point x="212" y="105" type="curve" smooth="yes"/>
      <point x="227" y="196" type="line"/>
      <point x="184" y="188"/>
      <point x="153" y="177"/>
      <point x="131" y="166" type="curve" smooth="yes"/>
      <point x="89" y="144"/>
      <point x="80" y="120"/>
      <point x="80" y="99" type="curve" smooth="yes"/>
      <point x="80" y="68"/>
      <point x="99" y="45"/>
      <point x="124" y="45" type="curve" smooth="yes"/>
      <point x="155" y="45"/>
      <point x="211" y="96"/>
    </contour>
    <contour>
      <point x="245" y="425" type="curve" smooth="yes"/>
      <point x="285" y="425"/>
      <point x="311" y="391"/>
      <point x="315" y="357" type="curve"/>
      <point x="347" y="394"/>
      <point x="405" y="425"/>
      <point x="457" y="425" type="curve" smooth="yes"/>
      <point x="523" y="425"/>
      <point x="523" y="375"/>
      <point x="523" y="361" type="curve" smooth="yes"/>
      <point x="523" y="275"/>
      <point x="366" y="204"/>
      <point x="294" y="194" type="curve"/>
      <point x="293" y="188"/>
      <point x="290" y="167"/>
      <point x="290" y="154" type="curve" smooth="yes"/>
      <point x="290" y="92"/>
      <point x="311" y="52"/>
      <point x="358" y="52" type="curve" smooth="yes"/>
      <point x="399" y="52"/>
      <point x="454" y="115"/>
      <point x="458" y="119" type="curve"/>
      <point x="461" y="119"/>
      <point x="469" y="108"/>
      <point x="470" y="100" type="curve"/>
      <point x="435" y="50"/>
      <point x="370" y="-6"/>
      <point x="320" y="-6" type="curve" smooth="yes"/>
      <point x="280" y="-6"/>
      <point x="233" y="21"/>
      <point x="219" y="68" type="curve"/>
      <point x="202" y="47"/>
      <point x="114" y="-8"/>
      <point x="88" y="-8" type="curve" smooth="yes"/>
      <point x="47" y="-8"/>
      <point x="6" y="17"/>
      <point x="6" y="78" type="curve" smooth="yes"/>
      <point x="6" y="123"/>
      <point x="40" y="160"/>
      <point x="63" y="176" type="curve" smooth="yes"/>
      <point x="78" y="186"/>
      <point x="191" y="217"/>
      <point x="227" y="229" type="curve" smooth="yes"/>
      <point x="234" y="231"/>
      <point x="232" y="238"/>
      <point x="235" y="251" type="curve" smooth="yes"/>
      <point x="246" y="310" type="line" smooth="yes"/>
      <point x="248" y="318"/>
      <point x="248" y="326"/>
      <point x="248" y="330" type="curve" smooth="yes"/>
      <point x="248" y="353"/>
      <point x="228" y="388"/>
      <point x="193" y="388" type="curve" smooth="yes"/>
      <point x="164" y="388"/>
      <point x="151" y="367"/>
      <point x="138" y="331" type="curve" smooth="yes"/>
      <point x="126" y="300"/>
      <point x="109" y="287"/>
      <point x="88" y="287" type="curve" smooth="yes"/>
      <point x="67" y="287"/>
      <point x="65" y="306"/>
      <point x="65" y="315" type="curve" smooth="yes"/>
      <point x="65" y="328"/>
      <point x="71" y="340"/>
      <point x="76" y="348" type="curve"/>
      <point x="104" y="372"/>
      <point x="182" y="425"/>
    </contour>
  </outline>
</glyph>
<glyph name="eth" format="2">
  <advance width="426"/>
  <unicode hex="00F0"/>
  <outline>
    <contour>
      <point x="152" y="497" type="line"/>
      <point x="146" y="502"/>
      <point x="139" y="520"/>
      <point x="144" y="528" type="curve"/>
      <point x="384" y="688" type="line"/>
      <point x="390" y="682"/>
      <point x="397" y="662"/>
      <point x="394" y="657" type="curve"/>
    </contour>
    <contour>
      <point x="253" y="425" type="curve" smooth="yes"/>
      <point x="274" y="425"/>
      <point x="294" y="423"/>
      <point x="306" y="416" type="curve"/>
      <point x="308" y="494"/>
      <point x="249" y="627"/>
      <point x="132" y="656" type="curve"/>
      <point x="133" y="663"/>
      <point x="138" y="672"/>
      <point x="145" y="672" type="curve"/>
      <point x="302" y="646"/>
      <point x="379" y="497"/>
      <point x="379" y="345" type="curve" smooth="yes"/>
      <point x="379" y="131"/>
      <point x="259" y="-5"/>
      <point x="149" y="-5" type="curve" smooth="yes"/>
      <point x="62" y="-5"/>
      <point x="38" y="71"/>
      <point x="38" y="137" type="curve" smooth="yes"/>
      <point x="38" y="244"/>
      <point x="129" y="425"/>
    </contour>
    <contour>
      <point x="245" y="394" type="curve" smooth="yes"/>
      <point x="182" y="394"/>
      <point x="114" y="285"/>
      <point x="114" y="154" type="curve" smooth="yes"/>
      <point x="114" y="109"/>
      <point x="122" y="26"/>
      <point x="171" y="26" type="curve" smooth="yes"/>
      <point x="233" y="26"/>
      <point x="298" y="132"/>
      <point x="298" y="267" type="curve" smooth="yes"/>
      <point x="298" y="293"/>
      <point x="297" y="332"/>
      <point x="295" y="345" type="curve" smooth="yes"/>
      <point x="291" y="371"/>
      <point x="267" y="394"/>
    </contour>
  </outline>
</glyph>
<glyph name="divide" format="2">
  <advance width="584"/>
  <unicode hex="00F7"/>
  <outline>
    <contour>
      <point x="64" y="214" type="line"/>
      <point x="64" y="214"/>
      <point x="59" y="214"/>
      <point x="59" y="224" type="curve" smooth="yes"/>
      <point x="59" y="228"/>
      <point x="64" y="261"/>
      <point x="75" y="269" type="curve"/>
      <point x="248" y="269"/>
      <point x="346" y="269"/>
      <point x="519" y="269" type="curve" smooth="yes"/>
      <point x="523" y="269"/>
      <point x="527" y="265"/>
      <point x="527" y="257" type="curve" smooth="yes"/>
      <point x="527" y="241"/>
      <point x="520" y="222"/>
      <point x="512" y="214" type="curve"/>
    </contour>
    <component base="uni0307" xOffset="544" yOffset="-481"/>
    <component base="uni0307" xOffset="544" yOffset="-107"/>
  </outline>
</glyph>
<glyph name="oslash" format="2">
	<unicode hex="00F8"/>
	<advance width="404"/>
	<outline>
		<contour>
			<point x="51" y="0" type="line"/>
			<point x="45" y="3"/>
			<point x="28" y="14"/>
			<point x="32" y="20" type="curve"/>
			<point x="333" y="409" type="line"/>
			<point x="339" y="406"/>
			<point x="356" y="397"/>
			<point x="352" y="391" type="curve"/>
		</contour>
		<component base="o"/>
	</outline>
</glyph>
<glyph name="thorn" format="2">
  <advance width="438"/>
  <unicode hex="00FE"/>
  <outline>
    <contour>
      <point x="216" y="578" type="curve" smooth="yes"/>
      <point x="213" y="559"/>
      <point x="170" y="345"/>
      <point x="169" y="338" type="curve"/>
      <point x="195" y="362"/>
      <point x="264" y="425"/>
      <point x="314" y="425" type="curve" smooth="yes"/>
      <point x="376" y="425"/>
      <point x="399" y="375"/>
      <point x="399" y="307" type="curve" smooth="yes"/>
      <point x="399" y="156"/>
      <point x="272" y="-5"/>
      <point x="153" y="-5" type="curve" smooth="yes"/>
      <point x="136" y="-5"/>
      <point x="114" y="-2"/>
      <point x="108" y="8" type="curve"/>
      <point x="75" y="-142" type="line" smooth="yes"/>
      <point x="73" y="-151"/>
      <point x="73" y="-159"/>
      <point x="73" y="-169" type="curve" smooth="yes"/>
      <point x="73" y="-174"/>
      <point x="76" y="-188"/>
      <point x="86" y="-191" type="curve" smooth="yes"/>
      <point x="103" y="-195"/>
      <point x="129" y="-194"/>
      <point x="132" y="-194" type="curve" smooth="yes"/>
      <point x="136" y="-195"/>
      <point x="134" y="-220"/>
      <point x="129" y="-222" type="curve"/>
      <point x="116" y="-222"/>
      <point x="106" y="-221"/>
      <point x="95" y="-221" type="curve" smooth="yes"/>
      <point x="45" y="-221"/>
      <point x="7" y="-222"/>
      <point x="-50" y="-229" type="curve"/>
      <point x="-55" y="-228"/>
      <point x="-54" y="-204"/>
      <point x="-49" y="-201" type="curve"/>
      <point x="-31" y="-201"/>
      <point x="-18" y="-197"/>
      <point x="-9" y="-186" type="curve" smooth="yes"/>
      <point x="-2" y="-177"/>
      <point x="1" y="-166"/>
      <point x="6" y="-144" type="curve" smooth="yes"/>
      <point x="83" y="244" type="line"/>
      <point x="36" y="197" type="line"/>
      <point x="32" y="202"/>
      <point x="31" y="212"/>
      <point x="31" y="217" type="curve" smooth="yes"/>
      <point x="31" y="221"/>
      <point x="32" y="223"/>
      <point x="33" y="224" type="curve" smooth="yes"/>
      <point x="91" y="285" type="line"/>
      <point x="141" y="547" type="line" smooth="yes"/>
      <point x="144" y="565"/>
      <point x="150" y="588"/>
      <point x="150" y="599" type="curve" smooth="yes"/>
      <point x="150" y="618"/>
      <point x="106" y="617"/>
      <point x="90" y="617" type="curve"/>
      <point x="87" y="621"/>
      <point x="90" y="634"/>
      <point x="94" y="638" type="curve"/>
      <point x="148" y="643"/>
      <point x="202" y="662"/>
      <point x="223" y="670" type="curve"/>
      <point x="228" y="667"/>
      <point x="229" y="657"/>
      <point x="229" y="651" type="curve" smooth="yes"/>
      <point x="229" y="643"/>
      <point x="221" y="602"/>
    </contour>
    <contour>
      <point x="275" y="371" type="curve" smooth="yes"/>
      <point x="243" y="371"/>
      <point x="185" y="330"/>
      <point x="159" y="293" type="curve"/>
      <point x="127" y="128" type="line" smooth="yes"/>
      <point x="116" y="70"/>
      <point x="144" y="29"/>
      <point x="173" y="29" type="curve" smooth="yes"/>
      <point x="256" y="29"/>
      <point x="326" y="180"/>
      <point x="326" y="296" type="curve" smooth="yes"/>
      <point x="326" y="350"/>
      <point x="306" y="371"/>
    </contour>
  </outline>
</glyph>
<glyph name="Aogonek" format="2">
  <advance width="572"/>
  <unicode hex="0104"/>
  <outline>
    <contour>
      <point x="476" y="59" type="curve" smooth="yes"/>
      <point x="481" y="36"/>
      <point x="524" y="25"/>
      <point x="531" y="25" type="curve"/>
      <point x="534" y="18"/>
      <point x="530" y="0"/>
      <point x="528" y="-3" type="curve"/>
      <point x="492" y="-1"/>
      <point x="516" y="0"/>
      <point x="481" y="0" type="curve" smooth="yes"/>
      <point x="375" y="0"/>
      <point x="299" y="-102"/>
      <point x="299" y="-136" type="curve" smooth="yes"/>
      <point x="299" y="-151"/>
      <point x="306" y="-167"/>
      <point x="330" y="-167" type="curve" smooth="yes"/>
      <point x="376" y="-167"/>
      <point x="405" y="-130"/>
      <point x="411" y="-130" type="curve" smooth="yes"/>
      <point x="419" y="-130"/>
      <point x="408" y="-156"/>
      <point x="405" y="-159" type="curve" smooth="yes"/>
      <point x="380" y="-187"/>
      <point x="337" y="-225"/>
      <point x="296" y="-225" type="curve" smooth="yes"/>
      <point x="267" y="-225"/>
      <point x="247" y="-200"/>
      <point x="247" y="-174" type="curve" smooth="yes"/>
      <point x="247" y="-120"/>
      <point x="308" y="-55"/>
      <point x="352" y="-11" type="curve" smooth="yes"/>
      <point x="373" y="10"/>
      <point x="388" y="15"/>
      <point x="388" y="52" type="curve" smooth="yes"/>
      <point x="388" y="64"/>
      <point x="387" y="95"/>
      <point x="386" y="104" type="curve" smooth="yes"/>
      <point x="364" y="250" type="line"/>
      <point x="170" y="250" type="line"/>
      <point x="137" y="190"/>
      <point x="109" y="139"/>
      <point x="100" y="122" type="curve" smooth="yes"/>
      <point x="82" y="88"/>
      <point x="72" y="64"/>
      <point x="72" y="49" type="curve" smooth="yes"/>
      <point x="72" y="28"/>
      <point x="125" y="25"/>
      <point x="132" y="25" type="curve"/>
      <point x="134" y="22"/>
      <point x="131" y="3"/>
      <point x="128" y="-3" type="curve"/>
      <point x="92" y="-1"/>
      <point x="82" y="2"/>
      <point x="42" y="2" type="curve" smooth="yes"/>
      <point x="0" y="2"/>
      <point x="-12" y="-1"/>
      <point x="-54" y="-3" type="curve"/>
      <point x="-56" y="0"/>
      <point x="-52" y="18"/>
      <point x="-48" y="25" type="curve"/>
      <point x="-37" y="25"/>
      <point x="-5" y="31"/>
      <point x="7" y="44" type="curve" smooth="yes"/>
      <point x="31" y="69"/>
      <point x="48" y="101"/>
      <point x="68" y="136" type="curve" smooth="yes"/>
      <point x="337" y="619" type="line" smooth="yes"/>
      <point x="346" y="635"/>
      <point x="368" y="647"/>
      <point x="376" y="647" type="curve" smooth="yes"/>
      <point x="379" y="647"/>
      <point x="380" y="646"/>
      <point x="381" y="645" type="curve"/>
      <point x="465" y="123" type="line" smooth="yes"/>
      <point x="467" y="112"/>
      <point x="472" y="79"/>
    </contour>
    <contour>
      <point x="188" y="282" type="line"/>
      <point x="359" y="282" type="line"/>
      <point x="321" y="522" type="line"/>
    </contour>
  </outline>
</glyph>
<glyph name="aogonek" format="2">
	<unicode hex="0105"/>
	<advance width="438"/>
	<outline>
		<contour>
			<point x="253" y="386" type="curve" smooth="yes"/>
			<point x="178" y="386"/>
			<point x="91" y="259"/>
			<point x="91" y="147" type="curve" smooth="yes"/>
			<point x="91" y="86"/>
			<point x="107" y="52"/>
			<point x="141" y="52" type="curve" smooth="yes"/>
			<point x="190" y="52"/>
			<point x="258" y="174"/>
			<point x="277" y="268" type="curve" smooth="yes"/>
			<point x="298" y="371" type="line"/>
			<point x="289" y="381"/>
			<point x="266" y="386"/>
		</contour>
		<contour>
			<point x="398" y="86" type="curve"/>
			<point x="392" y="75"/>
			<point x="363" y="45"/>
			<point x="337" y="24" type="curve" smooth="yes"/>
			<point x="301" y="-5"/>
			<point x="207" y="-86"/>
			<point x="207" y="-136" type="curve" smooth="yes"/>
			<point x="207" y="-151"/>
			<point x="213" y="-167"/>
			<point x="237" y="-167" type="curve" smooth="yes"/>
			<point x="283" y="-167"/>
			<point x="312" y="-130"/>
			<point x="318" y="-130" type="curve" smooth="yes"/>
			<point x="326" y="-130"/>
			<point x="315" y="-156"/>
			<point x="312" y="-159" type="curve" smooth="yes"/>
			<point x="287" y="-187"/>
			<point x="245" y="-225"/>
			<point x="204" y="-225" type="curve" smooth="yes"/>
			<point x="175" y="-225"/>
			<point x="154" y="-202"/>
			<point x="154" y="-176" type="curve" smooth="yes"/>
			<point x="154" y="-126"/>
			<point x="214" y="-50"/>
			<point x="260" y="-4" type="curve"/>
			<point x="245" y="2"/>
			<point x="237" y="22"/>
			<point x="237" y="45" type="curve" smooth="yes"/>
			<point x="237" y="53"/>
			<point x="240" y="76"/>
			<point x="244" y="97" type="curve" smooth="yes"/>
			<point x="247" y="115"/>
			<point x="248" y="120"/>
			<point x="249" y="127" type="curve"/>
			<point x="229" y="92"/>
			<point x="162" y="-5"/>
			<point x="105" y="-5" type="curve" smooth="yes"/>
			<point x="52" y="-5"/>
			<point x="19" y="42"/>
			<point x="19" y="110" type="curve" smooth="yes"/>
			<point x="19" y="280"/>
			<point x="179" y="425"/>
			<point x="298" y="425" type="curve" smooth="yes"/>
			<point x="332" y="425"/>
			<point x="355" y="419"/>
			<point x="374" y="412" type="curve"/>
			<point x="314" y="104" type="line" smooth="yes"/>
			<point x="313" y="100"/>
			<point x="311" y="77"/>
			<point x="311" y="72" type="curve" smooth="yes"/>
			<point x="311" y="63"/>
			<point x="310" y="48"/>
			<point x="320" y="48" type="curve" smooth="yes"/>
			<point x="341" y="48"/>
			<point x="386" y="101"/>
			<point x="389" y="104" type="curve"/>
			<point x="392" y="104"/>
			<point x="398" y="92"/>
		</contour>
	</outline>
</glyph>
<glyph name="hbar" format="2">
  <advance width="458"/>
  <unicode hex="0127"/>
  <outline>
    <contour>
      <point x="87" y="552" type="curve"/>
      <point x="111" y="552"/>
      <point x="299" y="552"/>
      <point x="311" y="552" type="curve" smooth="yes"/>
      <point x="314" y="552"/>
      <point x="314" y="548"/>
      <point x="313" y="544" type="curve" smooth="yes"/>
      <point x="312" y="539"/>
      <point x="308" y="527"/>
      <point x="303" y="519" type="curve"/>
      <point x="279" y="519"/>
      <point x="90" y="519"/>
      <point x="78" y="519" type="curve" smooth="yes"/>
      <point x="75" y="519"/>
      <point x="75" y="525"/>
      <point x="76" y="529" type="curve" smooth="yes"/>
      <point x="77" y="534"/>
      <point x="80" y="544"/>
    </contour>
    <component base="h"/>
  </outline>
</glyph>
<glyph name="Iogonek" format="2">
	<unicode hex="012E"/>
	<advance width="305"/>
	<outline>
		<contour>
			<point x="213" y="25" type="curve"/>
			<point x="215" y="21"/>
			<point x="209" y="1"/>
			<point x="207" y="-3" type="curve"/>
			<point x="191" y="-3"/>
			<point x="176" y="-6"/>
			<point x="161" y="-10" type="curve" smooth="yes"/>
			<point x="91" y="-31"/>
			<point x="38" y="-95"/>
			<point x="38" y="-136" type="curve" smooth="yes"/>
			<point x="38" y="-151"/>
			<point x="44" y="-167"/>
			<point x="68" y="-167" type="curve" smooth="yes"/>
			<point x="114" y="-167"/>
			<point x="143" y="-130"/>
			<point x="149" y="-130" type="curve" smooth="yes"/>
			<point x="157" y="-130"/>
			<point x="147" y="-156"/>
			<point x="144" y="-159" type="curve" smooth="yes"/>
			<point x="119" y="-187"/>
			<point x="76" y="-225"/>
			<point x="35" y="-225" type="curve" smooth="yes"/>
			<point x="6" y="-225"/>
			<point x="-14" y="-202"/>
			<point x="-14" y="-176" type="curve" smooth="yes"/>
			<point x="-14" y="-115"/>
			<point x="49" y="-24"/>
			<point x="105" y="2" type="curve"/>
			<point x="70" y="2"/>
			<point x="32" y="-1"/>
			<point x="-6" y="-3" type="curve"/>
			<point x="-10" y="2"/>
			<point x="-6" y="20"/>
			<point x="-1" y="25" type="curve"/>
			<point x="10" y="25"/>
			<point x="60" y="30"/>
			<point x="65" y="41" type="curve" smooth="yes"/>
			<point x="73" y="57"/>
			<point x="78" y="84"/>
			<point x="84" y="113" type="curve" smooth="yes"/>
			<point x="165" y="530" type="line" smooth="yes"/>
			<point x="171" y="559"/>
			<point x="176" y="587"/>
			<point x="174" y="603" type="curve" smooth="yes"/>
			<point x="173" y="614"/>
			<point x="125" y="618"/>
			<point x="114" y="618" type="curve"/>
			<point x="111" y="623"/>
			<point x="114" y="641"/>
			<point x="120" y="646" type="curve"/>
			<point x="157" y="644"/>
			<point x="192" y="642"/>
			<point x="227" y="642" type="curve" smooth="yes"/>
			<point x="262" y="642"/>
			<point x="296" y="644"/>
			<point x="334" y="646" type="curve"/>
			<point x="338" y="641"/>
			<point x="333" y="623"/>
			<point x="328" y="618" type="curve"/>
			<point x="317" y="618"/>
			<point x="268" y="614"/>
			<point x="263" y="603" type="curve" smooth="yes"/>
			<point x="255" y="587"/>
			<point x="250" y="559"/>
			<point x="244" y="530" type="curve" smooth="yes"/>
			<point x="163" y="113" type="line" smooth="yes"/>
			<point x="157" y="84"/>
			<point x="151" y="57"/>
			<point x="153" y="41" type="curve" smooth="yes"/>
			<point x="154" y="30"/>
			<point x="202" y="25"/>
		</contour>
	</outline>
</glyph>
<glyph name="dotlessi" format="2">
  <advance width="255"/>
  <unicode hex="0131"/>
  <outline>
    <contour>
      <point x="108" y="315" type="line" smooth="yes"/>
      <point x="109" y="321"/>
      <point x="112" y="342"/>
      <point x="112" y="347" type="curve" smooth="yes"/>
      <point x="112" y="356"/>
      <point x="113" y="371"/>
      <point x="103" y="371" type="curve" smooth="yes"/>
      <point x="82" y="371"/>
      <point x="37" y="317"/>
      <point x="34" y="314" type="curve"/>
      <point x="31" y="314"/>
      <point x="24" y="327"/>
      <point x="24" y="333" type="curve"/>
      <point x="35" y="352"/>
      <point x="101" y="425"/>
      <point x="147" y="425" type="curve" smooth="yes"/>
      <point x="168" y="425"/>
      <point x="186" y="403"/>
      <point x="186" y="374" type="curve" smooth="yes"/>
      <point x="186" y="366"/>
      <point x="183" y="343"/>
      <point x="179" y="322" type="curve" smooth="yes"/>
      <point x="129" y="104" type="line" smooth="yes"/>
      <point x="127" y="94"/>
      <point x="125" y="77"/>
      <point x="125" y="72" type="curve" smooth="yes"/>
      <point x="125" y="63"/>
      <point x="125" y="48"/>
      <point x="135" y="48" type="curve" smooth="yes"/>
      <point x="156" y="48"/>
      <point x="200" y="101"/>
      <point x="203" y="104" type="curve"/>
      <point x="206" y="104"/>
      <point x="213" y="92"/>
      <point x="213" y="86" type="curve"/>
      <point x="202" y="67"/>
      <point x="131" y="-6"/>
      <point x="85" y="-6" type="curve" smooth="yes"/>
      <point x="64" y="-6"/>
      <point x="52" y="16"/>
      <point x="52" y="45" type="curve" smooth="yes"/>
      <point x="52" y="53"/>
      <point x="55" y="76"/>
      <point x="59" y="97" type="curve" smooth="yes"/>
    </contour>
  </outline>
</glyph>
<glyph name="kgreenlandic" format="2">
	<unicode hex="0138"/>
	<advance width="470"/>
	<outline>
		<contour>
			<point x="104" y="315" type="line" smooth="yes"/>
			<point x="105" y="321"/>
			<point x="108" y="342"/>
			<point x="108" y="347" type="curve" smooth="yes"/>
			<point x="108" y="356"/>
			<point x="109" y="371"/>
			<point x="99" y="371" type="curve" smooth="yes"/>
			<point x="78" y="371"/>
			<point x="33" y="317"/>
			<point x="30" y="314" type="curve"/>
			<point x="27" y="314"/>
			<point x="21" y="327"/>
			<point x="21" y="333" type="curve"/>
			<point x="32" y="352"/>
			<point x="98" y="425"/>
			<point x="144" y="425" type="curve" smooth="yes"/>
			<point x="165" y="425"/>
			<point x="182" y="403"/>
			<point x="182" y="374" type="curve" smooth="yes"/>
			<point x="182" y="366"/>
			<point x="178" y="343"/>
			<point x="175" y="322" type="curve" smooth="yes"/>
			<point x="174" y="314" type="line"/>
			<point x="179" y="318"/>
			<point x="255" y="425"/>
			<point x="339" y="425" type="curve" smooth="yes"/>
			<point x="377" y="425"/>
			<point x="412" y="396"/>
			<point x="412" y="358" type="curve" smooth="yes"/>
			<point x="412" y="269"/>
			<point x="314" y="225"/>
			<point x="206" y="206" type="curve"/>
			<point x="292" y="77"/>
			<point x="319" y="50"/>
			<point x="359" y="50" type="curve" smooth="yes"/>
			<point x="376" y="50"/>
			<point x="415" y="90"/>
			<point x="426" y="104" type="curve"/>
			<point x="429" y="104"/>
			<point x="436" y="91"/>
			<point x="436" y="86" type="curve"/>
			<point x="428" y="72"/>
			<point x="359" y="-4"/>
			<point x="316" y="-4" type="curve" smooth="yes"/>
			<point x="239" y="-4"/>
			<point x="190" y="117"/>
			<point x="148" y="187" type="curve"/>
			<point x="112" y="0" type="line"/>
			<point x="101" y="-3"/>
			<point x="89" y="-5"/>
			<point x="78" y="-5" type="curve" smooth="yes"/>
			<point x="67" y="-5"/>
			<point x="55" y="-3"/>
			<point x="43" y="0" type="curve"/>
		</contour>
		<contour>
			<point x="304" y="379" type="curve" smooth="yes"/>
			<point x="247" y="379"/>
			<point x="168" y="285"/>
			<point x="156" y="225" type="curve"/>
			<point x="221" y="225"/>
			<point x="336" y="265"/>
			<point x="336" y="346" type="curve" smooth="yes"/>
			<point x="336" y="364"/>
			<point x="331" y="379"/>
		</contour>
	</outline>
</glyph>
<glyph name="Lslash" format="2">
	<unicode hex="0141"/>
	<advance width="516"/>
	<outline>
		<contour>
			<point x="63" y="202" type="curve" smooth="yes"/>
			<point x="428" y="437" type="line"/>
			<point x="432" y="432"/>
			<point x="441" y="409"/>
			<point x="437" y="406" type="curve" smooth="yes"/>
			<point x="73" y="174" type="line"/>
			<point x="69" y="180"/>
			<point x="59" y="199"/>
		</contour>
		<component base="L" xOffset="-1"/>
	</outline>
</glyph>
<glyph name="lslash" format="2">
  <advance width="239"/>
  <unicode hex="0142"/>
  <outline>
    <contour>
      <point x="41" y="281" type="curve" smooth="yes"/>
      <point x="234" y="413" type="line"/>
      <point x="237" y="408"/>
      <point x="247" y="390"/>
      <point x="242" y="387" type="curve" smooth="yes"/>
      <point x="48" y="254" type="line"/>
      <point x="44" y="260"/>
      <point x="36" y="278"/>
    </contour>
    <component base="l"/>
  </outline>
</glyph>
<glyph name="Eng" format="2">
	<unicode hex="014A"/>
	<advance width="713"/>
	<outline>
		<contour>
			<point x="498" y="43" type="curve"/>
			<point x="221" y="556" type="line"/>
			<point x="135" y="112" type="line" smooth="yes"/>
			<point x="128" y="77"/>
			<point x="125" y="61"/>
			<point x="131" y="45" type="curve" smooth="yes"/>
			<point x="135" y="35"/>
			<point x="181" y="25"/>
			<point x="196" y="25" type="curve"/>
			<point x="199" y="18"/>
			<point x="195" y="3"/>
			<point x="192" y="-3" type="curve"/>
			<point x="156" y="-1"/>
			<point x="129" y="2"/>
			<point x="89" y="2" type="curve" smooth="yes"/>
			<point x="47" y="2"/>
			<point x="30" y="-1"/>
			<point x="-12" y="-3" type="curve"/>
			<point x="-14" y="2"/>
			<point x="-13" y="14"/>
			<point x="-6" y="25" type="curve"/>
			<point x="5" y="25"/>
			<point x="59" y="33"/>
			<point x="68" y="45" type="curve" smooth="yes"/>
			<point x="79" y="60"/>
			<point x="84" y="74"/>
			<point x="91" y="111" type="curve" smooth="yes"/>
			<point x="173" y="535" type="line" smooth="yes"/>
			<point x="180" y="572"/>
			<point x="182" y="587"/>
			<point x="177" y="602" type="curve" smooth="yes"/>
			<point x="173" y="614"/>
			<point x="121" y="621"/>
			<point x="110" y="621" type="curve"/>
			<point x="107" y="632"/>
			<point x="111" y="644"/>
			<point x="115" y="649" type="curve"/>
			<point x="156" y="647"/>
			<point x="179" y="645"/>
			<point x="209" y="645" type="curve" smooth="yes"/>
			<point x="236" y="645"/>
			<point x="265" y="645"/>
			<point x="278" y="646" type="curve"/>
			<point x="309" y="568"/>
			<point x="469" y="313"/>
			<point x="540" y="162" type="curve"/>
			<point x="612" y="532" type="line" smooth="yes"/>
			<point x="619" y="567"/>
			<point x="622" y="584"/>
			<point x="616" y="600" type="curve" smooth="yes"/>
			<point x="612" y="610"/>
			<point x="566" y="619"/>
			<point x="551" y="619" type="curve"/>
			<point x="548" y="626"/>
			<point x="552" y="641"/>
			<point x="555" y="647" type="curve"/>
			<point x="591" y="645"/>
			<point x="618" y="643"/>
			<point x="658" y="643" type="curve" smooth="yes"/>
			<point x="700" y="643"/>
			<point x="716" y="645"/>
			<point x="758" y="647" type="curve"/>
			<point x="760" y="642"/>
			<point x="760" y="630"/>
			<point x="753" y="619" type="curve"/>
			<point x="742" y="619"/>
			<point x="687" y="612"/>
			<point x="678" y="600" type="curve" smooth="yes"/>
			<point x="667" y="585"/>
			<point x="663" y="570"/>
			<point x="656" y="533" type="curve" smooth="yes"/>
			<point x="575" y="113" type="line" smooth="yes"/>
			<point x="525" y="-145"/>
			<point x="390" y="-228"/>
			<point x="312" y="-228" type="curve"/>
			<point x="310" y="-225"/>
			<point x="309" y="-220"/>
			<point x="309" y="-215" type="curve" smooth="yes"/>
			<point x="309" y="-213"/>
			<point x="310" y="-209"/>
			<point x="310" y="-209" type="curve"/>
			<point x="408" y="-179"/>
			<point x="470" y="-66"/>
		</contour>
	</outline>
</glyph>
<glyph name="eng" format="2">
  <advance width="464"/>
  <unicode hex="014B"/>
  <outline>
    <contour>
      <point x="352" y="44" type="line" smooth="yes"/>
      <point x="344" y="9"/>
      <point x="324" y="-65"/>
      <point x="282" y="-121" type="curve" smooth="yes"/>
      <point x="241" y="-175"/>
      <point x="180" y="-215"/>
      <point x="146" y="-229" type="curve"/>
      <point x="142" y="-226"/>
      <point x="138" y="-217"/>
      <point x="138" y="-210" type="curve"/>
      <point x="203" y="-173"/>
      <point x="253" y="-87"/>
      <point x="276" y="21" type="curve" smooth="yes"/>
      <point x="327" y="258" type="line" smooth="yes"/>
      <point x="329" y="267"/>
      <point x="334" y="300"/>
      <point x="334" y="311" type="curve" smooth="yes"/>
      <point x="334" y="336"/>
      <point x="333" y="353"/>
      <point x="315" y="353" type="curve" smooth="yes"/>
      <point x="279" y="353"/>
      <point x="158" y="241"/>
      <point x="135" y="119" type="curve" smooth="yes"/>
      <point x="126" y="72"/>
      <point x="120" y="47"/>
      <point x="110" y="0" type="curve"/>
      <point x="96" y="-2"/>
      <point x="89" y="-4"/>
      <point x="75" y="-4" type="curve" smooth="yes"/>
      <point x="61" y="-4"/>
      <point x="55" y="-2"/>
      <point x="41" y="0" type="curve"/>
      <point x="105" y="315" type="line" smooth="yes"/>
      <point x="106" y="321"/>
      <point x="109" y="342"/>
      <point x="109" y="347" type="curve" smooth="yes"/>
      <point x="109" y="356"/>
      <point x="110" y="371"/>
      <point x="100" y="371" type="curve" smooth="yes"/>
      <point x="79" y="371"/>
      <point x="34" y="317"/>
      <point x="31" y="314" type="curve"/>
      <point x="28" y="314"/>
      <point x="21" y="327"/>
      <point x="21" y="333" type="curve"/>
      <point x="32" y="352"/>
      <point x="99" y="425"/>
      <point x="145" y="425" type="curve" smooth="yes"/>
      <point x="166" y="425"/>
      <point x="183" y="403"/>
      <point x="183" y="374" type="curve" smooth="yes"/>
      <point x="183" y="366"/>
      <point x="180" y="343"/>
      <point x="175" y="322" type="curve" smooth="yes"/>
      <point x="157" y="240" type="line"/>
      <point x="170" y="264"/>
      <point x="284" y="425"/>
      <point x="349" y="425" type="curve" smooth="yes"/>
      <point x="394" y="425"/>
      <point x="409" y="400"/>
      <point x="409" y="360" type="curve" smooth="yes"/>
      <point x="409" y="330"/>
      <point x="403" y="287"/>
      <point x="396" y="254" type="curve" smooth="yes"/>
    </contour>
  </outline>
</glyph>
